Montero2[wght].glyphspackage
{
glyphname = exclam;
layers = (
{
layerId = "577C2F50-0FC2-4837-984D-4FA1DCF6681B";
shapes = (
{
closed = 1;
nodes = (
(114,236,l),
(254,236,l),
(278,720,l),
(90,720,l)
);
},
{
alignment = -1;
pos = (33,0);
ref = period;
}
);
width = 368;
},
{
layerId = "E6E1701F-FDD6-4B99-AB09-C7A03B8D4814";
shapes = (
{
closed = 1;
nodes = (
(114,241,l),
(199,241,l),
(211,720,l),
(102,720,l)
);
},
{
alignment = -1;
pos = (35,0);
ref = period;
}
);
width = 313;
},
{
layerId = "DBF002CB-ACA5-4984-BB80-D7F3ACD5E203";
shapes = (
{
closed = 1;
nodes = (
(114,246,l),
(144,246,l),
(144,720,l),
(114,720,l)
);
},
{
alignment = -1;
pos = (38,0);
ref = period;
}
);
width = 258;
}
);
leftKerningGroup = PCT_EXCLAM;
rightKerningGroup = PCT_EXCLAM;
unicode = 33;
}
{
glyphname = quotedbl;
layers = (
{
layerId = "3717EFD3-6B64-4297-9C46-7E4C78651CC4";
shapes = (
{
alignment = -1;
ref = quotesingle;
},
{
pos = (206,0);
ref = quotesingle;
}
);
width = 482;
},
{
layerId = "50A05132-A89A-4BC5-B81A-F4657F37FF17";
shapes = (
{
closed = 1;
nodes = (
(143,472,l),
(157,573,o),
(170,668,o),
(170,706,cs),
(170,737,o),
(148,760,o),
(118,760,cs),
(89,760,o),
(66,737,o),
(66,706,cs),
(66,670,o),
(79,575,o),
(92,472,c)
);
},
{
closed = 1;
nodes = (
(312,472,l),
(326,573,o),
(339,668,o),
(339,706,cs),
(339,737,o),
(317,760,o),
(287,760,cs),
(258,760,o),
(235,737,o),
(235,706,cs),
(235,670,o),
(248,575,o),
(261,472,c)
);
}
);
width = 405;
},
{
layerId = "10DD257C-652B-4320-8EE1-77E209923FFD";
shapes = (
{
alignment = -1;
ref = quotesingle;
},
{
pos = (132,0);
ref = quotesingle;
}
);
width = 328;
}
);
leftKerningGroup = PCT_QUOTE;
rightKerningGroup = PCT_QUOTE;
unicode = 34;
}
{
glyphname = numbersign;
layers = (
{
layerId = "3717EFD3-6B64-4297-9C46-7E4C78651CC4";
shapes = (
{
closed = 1;
nodes = (
(52,0,l),
(192,0,l),
(482,720,l),
(342,720,l)
);
},
{
closed = 1;
nodes = (
(364,0,l),
(504,0,l),
(794,720,l),
(654,720,l)
);
},
{
closed = 1;
nodes = (
(104,416,l),
(798,416,l),
(798,528,l),
(104,528,l)
);
},
{
closed = 1;
nodes = (
(48,194,l),
(744,194,l),
(744,304,l),
(48,304,l)
);
}
);
width = 846;
},
{
layerId = "50A05132-A89A-4BC5-B81A-F4657F37FF17";
shapes = (
{
closed = 1;
nodes = (
(78,0,l),
(164,0,l),
(458,720,l),
(372,720,l)
);
},
{
closed = 1;
nodes = (
(368,0,l),
(454,0,l),
(746,720,l),
(660,720,l)
);
},
{
closed = 1;
nodes = (
(120,438,l),
(772,438,l),
(772,520,l),
(120,520,l)
);
},
{
closed = 1;
nodes = (
(52,200,l),
(704,200,l),
(704,282,l),
(52,282,l)
);
}
);
width = 824;
},
{
layerId = "10DD257C-652B-4320-8EE1-77E209923FFD";
shapes = (
{
closed = 1;
nodes = (
(84,0,l),
(116,0,l),
(414,720,l),
(382,720,l)
);
},
{
closed = 1;
nodes = (
(394,0,l),
(426,0,l),
(724,720,l),
(690,720,l)
);
},
{
closed = 1;
nodes = (
(132,484,l),
(744,484,l),
(744,512,l),
(132,512,l)
);
},
{
closed = 1;
nodes = (
(64,206,l),
(678,206,l),
(678,234,l),
(64,234,l)
);
}
);
width = 808;
}
);
leftKerningGroup = PCT_OCTOTHORP;
rightKerningGroup = PCT_OCTOTHORP;
unicode = 35;
}
{
glyphname = dollar;
layers = (
{
layerId = "577C2F50-0FC2-4837-984D-4FA1DCF6681B";
shapes = (
{
closed = 1;
nodes = (
(444,-4,o),
(542,102,o),
(542,220,cs),
(542,360,o),
(404,410,o),
(368,422,c),
(314,442,o),
(232,462,o),
(232,516,cs),
(232,550,o),
(264,574,o),
(308,574,cs),
(358,574,o),
(376,542,o),
(386,512,c),
(532,576,l),
(498,666,o),
(418,728,o),
(302,728,cs),
(170,728,o),
(68,650,o),
(68,526,cs),
(68,418,o),
(138,358,o),
(228,324,cs),
(294,300,o),
(378,280,o),
(378,218,cs),
(378,174,o),
(338,150,o),
(302,150,cs),
(250,150,o),
(214,202,o),
(200,244,c),
(40,176,l),
(70,76,o),
(182,-4,o),
(304,-4,cs)
);
},
{
closed = 1;
nodes = (
(340,-124,l),
(340,28,l),
(330,138,l),
(334,328,l),
(338,386,l),
(338,600,l),
(350,680,l),
(350,844,l),
(266,844,l),
(266,682,l),
(276,600,l),
(276,386,l),
(270,328,l),
(268,138,l),
(258,30,l),
(258,-124,l)
);
}
);
width = 582;
},
{
layerId = "E6E1701F-FDD6-4B99-AB09-C7A03B8D4814";
shapes = (
{
closed = 1;
nodes = (
(392,-8,o),
(492,74,o),
(492,200,cs),
(492,340,o),
(370,388,o),
(300,414,cs),
(248,434,o),
(174,460,o),
(174,540,cs),
(174,602,o),
(228,632,o),
(276,632,cs),
(332,632,o),
(374,590,o),
(390,556,c),
(480,596,l),
(450,664,o),
(382,728,o),
(276,728,cs),
(160,728,o),
(74,656,o),
(74,544,cs),
(74,428,o),
(154,368,o),
(248,332,cs),
(294,314,o),
(394,284,o),
(394,198,cs),
(394,134,o),
(340,88,o),
(276,88,cs),
(210,88,o),
(162,142,o),
(144,196,c),
(52,156,l),
(76,74,o),
(166,-8,o),
(280,-8,cs)
);
},
{
closed = 1;
nodes = (
(318,-124,l),
(318,10,l),
(314,76,l),
(314,348,l),
(318,386,l),
(318,644,l),
(322,694,l),
(322,832,l),
(240,832,l),
(240,694,l),
(244,646,l),
(244,386,l),
(240,348,l),
(240,76,l),
(236,10,l),
(236,-124,l)
);
}
);
width = 544;
},
{
layerId = "DBF002CB-ACA5-4984-BB80-D7F3ACD5E203";
shapes = (
{
closed = 1;
nodes = (
(367,-8,o),
(462,60,o),
(462,176,cs),
(462,322,o),
(320,364,o),
(260,388,cs),
(194,414,o),
(120,461,o),
(120,556,cs),
(120,638,o),
(177,698,o),
(264,698,cs),
(348,698,o),
(394,644,o),
(414,602,c),
(442,614,l),
(419,666,o),
(362,728,o),
(264,728,cs),
(166,728,o),
(90,662,o),
(90,556,cs),
(90,444,o),
(173,392,o),
(268,354,cs),
(333,328,o),
(432,288,o),
(432,176,cs),
(432,78,o),
(352,22,o),
(264,22,cs),
(190,22,o),
(122,64,o),
(96,138,c),
(64,124,l),
(93,58,o),
(156,-8,o),
(262,-8,cs)
);
},
{
closed = 1;
nodes = (
(284,-124,l),
(284,0,l),
(284,10,l),
(284,366,l),
(284,374,l),
(284,706,l),
(284,720,l),
(284,820,l),
(252,820,l),
(252,720,l),
(252,706,l),
(252,374,l),
(252,366,l),
(252,10,l),
(252,0,l),
(252,-124,l)
);
}
);
width = 526;
}
);
leftKerningGroup = LAT_S_UC;
rightKerningGroup = LAT_S_UC;
unicode = 36;
}
{
glyphname = percent;
layers = (
{
layerId = "6324EBA6-AEA3-4E83-9504-1204FE3965A0";
shapes = (
{
closed = 1;
nodes = (
(334,362,o),
(412,440,o),
(412,544,cs),
(412,648,o),
(334,726,o),
(230,726,cs),
(126,726,o),
(48,648,o),
(48,544,cs),
(48,440,o),
(126,362,o),
(230,362,cs)
);
},
{
closed = 1;
nodes = (
(194,472,o),
(166,502,o),
(166,544,cs),
(166,586,o),
(194,616,o),
(230,616,cs),
(268,616,o),
(294,586,o),
(294,544,cs),
(294,502,o),
(268,472,o),
(230,472,cs)
);
},
{
closed = 1;
nodes = (
(204,0,l),
(350,0,l),
(750,720,l),
(604,720,l)
);
},
{
closed = 1;
nodes = (
(828,-8,o),
(906,70,o),
(906,174,cs),
(906,278,o),
(828,356,o),
(724,356,cs),
(620,356,o),
(542,278,o),
(542,174,cs),
(542,70,o),
(620,-8,o),
(724,-8,cs)
);
},
{
closed = 1;
nodes = (
(688,102,o),
(660,132,o),
(660,174,cs),
(660,216,o),
(688,246,o),
(724,246,cs),
(762,246,o),
(788,216,o),
(788,174,cs),
(788,132,o),
(762,102,o),
(724,102,cs)
);
}
);
width = 952;
},
{
layerId = "94997179-B2A0-4125-8E55-188F48EDA314";
shapes = (
{
closed = 1;
nodes = (
(310,381,o),
(384,459,o),
(384,555,cs),
(384,653,o),
(310,729,o),
(216,729,cs),
(122,729,o),
(48,653,o),
(48,555,cs),
(48,459,o),
(122,381,o),
(216,381,cs)
);
},
{
closed = 1;
nodes = (
(168,461,o),
(132,501,o),
(132,555,cs),
(132,611,o),
(168,649,o),
(216,649,cs),
(266,649,o),
(300,611,o),
(300,555,cs),
(300,501,o),
(266,461,o),
(216,461,cs)
);
},
{
closed = 1;
nodes = (
(158,0,l),
(262,0,l),
(694,720,l),
(590,720,l)
);
},
{
closed = 1;
nodes = (
(728,-8,o),
(802,70,o),
(802,166,cs),
(802,264,o),
(728,340,o),
(634,340,cs),
(540,340,o),
(466,264,o),
(466,166,cs),
(466,70,o),
(540,-8,o),
(634,-8,cs)
);
},
{
closed = 1;
nodes = (
(586,72,o),
(550,112,o),
(550,166,cs),
(550,222,o),
(586,260,o),
(634,260,cs),
(684,260,o),
(718,222,o),
(718,166,cs),
(718,112,o),
(684,72,o),
(634,72,cs)
);
}
);
width = 850;
},
{
layerId = "DBC57AB7-6BBF-4709-9065-B7AB4DBB4D97";
shapes = (
{
closed = 1;
nodes = (
(278,400,o),
(338,470,o),
(338,564,cs),
(338,658,o),
(276,728,o),
(194,728,cs),
(112,728,o),
(50,658,o),
(50,564,cs),
(50,470,o),
(114,400,o),
(196,400,cs)
);
},
{
closed = 1;
nodes = (
(130,430,o),
(80,488,o),
(80,564,cs),
(80,642,o),
(130,700,o),
(194,700,cs),
(260,700,o),
(308,642,o),
(308,564,cs),
(308,486,o),
(260,428,o),
(194,428,c)
);
},
{
closed = 1;
nodes = (
(114,0,l),
(148,0,l),
(620,720,l),
(584,720,l)
);
},
{
closed = 1;
nodes = (
(620,-8,o),
(680,62,o),
(680,156,cs),
(680,250,o),
(618,320,o),
(536,320,cs),
(454,320,o),
(392,250,o),
(392,156,cs),
(392,62,o),
(456,-8,o),
(538,-8,cs)
);
},
{
closed = 1;
nodes = (
(472,22,o),
(422,80,o),
(422,156,cs),
(422,234,o),
(472,292,o),
(536,292,cs),
(602,292,o),
(650,234,o),
(650,156,cs),
(650,78,o),
(602,20,o),
(536,20,c)
);
}
);
width = 728;
}
);
unicode = 37;
}
{
glyphname = ampersand;
layers = (
{
anchors = (
{
name = base;
position = "{416, 0}";
},
{
name = bottom;
position = "{410, 0}";
},
{
name = cedilla;
position = "{422, 0}";
},
{
name = top;
position = "{406, 720}";
}
);
layerId = "3717EFD3-6B64-4297-9C46-7E4C78651CC4";
shapes = (
{
closed = 1;
nodes = (
(164,728,o),
(78,634,o),
(78,535,cs),
(78,426,o),
(182,336,o),
(264,256,cs),
(408,116,o),
(492,0,o),
(606,0,cs),
(642,0,l),
(662,142,l),
(648,142,ls),
(582,142,o),
(480,256,o),
(406,324,c),
(334,398,o),
(244,470,o),
(242,534,c),
(244,572,o),
(264,602,o),
(316,602,cs),
(362,602,o),
(413,590,o),
(445,560,c),
(498,681,l),
(430,721,o),
(372,728,o),
(309,728,cs)
);
},
{
closed = 1;
nodes = (
(258,407,l),
(159,355,o),
(21,324,o),
(20,184,c),
(22,80,o),
(74,-8,o),
(242,-8,cs),
(448,-8,o),
(670,178,o),
(670,386,c),
(528,386,l),
(528,260,o),
(384,118,o),
(292,118,cs),
(234,118,o),
(194,142,o),
(194,194,cs),
(194,244,o),
(264,278,o),
(339,320,c)
);
}
);
width = 690;
},
{
anchors = (
{
name = base;
position = "{416, 0}";
},
{
name = bottom;
position = "{402, 0}";
},
{
name = cedilla;
position = "{408, 0}";
},
{
name = top;
position = "{402, 720}";
}
);
layerId = "50A05132-A89A-4BC5-B81A-F4657F37FF17";
shapes = (
{
closed = 1;
nodes = (
(159,728,o),
(81,642,o),
(81,549,cs),
(81,439,o),
(192,340,o),
(273,255,c),
(387,141,o),
(497,0,o),
(595,0,cs),
(624,0,l),
(636,94,l),
(620,94,l),
(558,95,o),
(437,228,o),
(373,293,c),
(294,380,o),
(191,467,o),
(190,547,c),
(191,598,o),
(227,642,o),
(286,642,cs),
(346,643,o),
(394,625,o),
(433,587,c),
(470,670,l),
(408,712,o),
(356,728,o),
(289,728,cs)
);
},
{
closed = 1;
nodes = (
(223,404,l),
(135,356,o),
(26,315,o),
(25,188,c),
(27,73,o),
(97,-8,o),
(243,-8,cs),
(425,-8,o),
(608,178,o),
(615,382,c),
(520,382,l),
(513,231,o),
(380,76,o),
(272,76,cs),
(201,76,o),
(141,115,o),
(141,195,cs),
(141,262,o),
(206,303,o),
(277,344,c)
);
}
);
width = 659;
},
{
anchors = (
{
name = base;
position = "{424, 0}";
},
{
name = bottom;
position = "{404, 0}";
},
{
name = cedilla;
position = "{404, 0}";
},
{
name = top;
position = "{404, 720}";
}
);
layerId = "10DD257C-652B-4320-8EE1-77E209923FFD";
shapes = (
{
closed = 1;
nodes = (
(153,728,o),
(84,652,o),
(84,568,cs),
(84,456,o),
(206,346,o),
(286,254,c),
(358,176,o),
(504,0,o),
(580,0,cs),
(600,0,l),
(600,28,l),
(582,28,l),
(524,30,o),
(378,190,o),
(327,250,cs),
(238,354,o),
(118,462,o),
(118,564,cs),
(118,634,o),
(175,698,o),
(245,698,c),
(323,700,o),
(358,686,o),
(402,647,c),
(416,679,l),
(369,712,o),
(333,728,o),
(262,728,cs)
);
},
{
closed = 1;
nodes = (
(175,401,l),
(101,357,o),
(33,303,o),
(32,194,c),
(34,64,o),
(128,-8,o),
(244,-8,cs),
(392,-8,o),
(522,177,o),
(538,377,c),
(508,377,l),
(491,190,o),
(374,18,o),
(244,18,cs),
(154,18,o),
(66,78,o),
(66,196,cs),
(66,288,o),
(124,337,o),
(190,377,c)
);
}
);
width = 616;
}
);
unicode = 38;
}
{
glyphname = quotesingle;
layers = (
{
layerId = "6324EBA6-AEA3-4E83-9504-1204FE3965A0";
shapes = (
{
closed = 1;
nodes = (
(178,432,l),
(201,526,o),
(224,628,o),
(224,672,cs),
(224,721,o),
(186,760,o),
(138,760,cs),
(90,760,o),
(52,721,o),
(52,672,cs),
(52,631,o),
(74,529,o),
(96,432,c)
);
}
);
width = 276;
},
{
layerId = "94997179-B2A0-4125-8E55-188F48EDA314";
shapes = (
{
closed = 1;
nodes = (
(144,472,l),
(158,573,o),
(174,664,o),
(174,704,cs),
(174,736,o),
(150,760,o),
(118,760,cs),
(88,760,o),
(64,736,o),
(64,704,cs),
(64,666,o),
(79,575,o),
(92,472,c)
);
}
);
width = 238;
},
{
layerId = "DBC57AB7-6BBF-4709-9065-B7AB4DBB4D97";
shapes = (
{
closed = 1;
nodes = (
(108,512,l),
(113,620,o),
(116,708,o),
(116,740,cs),
(116,752,o),
(110,760,o),
(98,760,cs),
(88,760,o),
(80,752,o),
(80,740,cs),
(80,708,o),
(83,620,o),
(88,512,c)
);
}
);
width = 196;
}
);
leftKerningGroup = PCT_QUOTE;
rightKerningGroup = PCT_QUOTE;
unicode = 39;
}
{
glyphname = parenleft;
layers = (
{
layerId = "3717EFD3-6B64-4297-9C46-7E4C78651CC4";
shapes = (
{
closed = 1;
nodes = (
(370,-106,l),
(264,-10,o),
(182,150,o),
(180,334,cs),
(182,516,o),
(264,674,o),
(370,774,c),
(270,852,l),
(142,742,o),
(48,547,o),
(48,334,cs),
(48,119,o),
(142,-79,o),
(270,-186,c)
);
}
);
width = 394;
},
{
layerId = "50A05132-A89A-4BC5-B81A-F4657F37FF17";
shapes = (
{
closed = 1;
nodes = (
(327,-124,l),
(218,-24,o),
(135,142,o),
(134,334,c),
(135,526,o),
(218,689,o),
(327,791,c),
(266,841,l),
(144,731,o),
(53,545,o),
(52,334,c),
(53,123,o),
(144,-67,o),
(266,-175,c)
);
}
);
width = 347;
},
{
layerId = "10DD257C-652B-4320-8EE1-77E209923FFD";
shapes = (
{
closed = 1;
nodes = (
(284,-142,l),
(172,-38,o),
(88,134,o),
(88,334,cs),
(88,536,o),
(172,704,o),
(284,808,c),
(262,830,l),
(146,720,o),
(58,542,o),
(56,334,cs),
(58,126,o),
(146,-54,o),
(262,-164,c)
);
}
);
width = 300;
}
);
leftKerningGroup = PCT_PARENLEFT;
rightKerningGroup = PCT_BRACELEFT;
unicode = 40;
}
{
glyphname = parenright;
layers = (
{
layerId = "3717EFD3-6B64-4297-9C46-7E4C78651CC4";
shapes = (
{
closed = 1;
nodes = (
(24,772,l),
(130,676,o),
(212,516,o),
(214,332,cs),
(212,150,o),
(130,-8,o),
(24,-108,c),
(124,-186,l),
(252,-76,o),
(346,119,o),
(346,332,cs),
(346,547,o),
(252,745,o),
(124,852,c)
);
}
);
width = 394;
},
{
layerId = "50A05132-A89A-4BC5-B81A-F4657F37FF17";
shapes = (
{
closed = 1;
nodes = (
(20,790,l),
(129,690,o),
(212,524,o),
(213,332,c),
(212,140,o),
(129,-23,o),
(20,-125,c),
(81,-175,l),
(203,-65,o),
(294,121,o),
(295,332,c),
(294,543,o),
(203,733,o),
(81,841,c)
);
}
);
width = 347;
},
{
layerId = "10DD257C-652B-4320-8EE1-77E209923FFD";
shapes = (
{
closed = 1;
nodes = (
(16,808,l),
(128,704,o),
(212,532,o),
(212,332,cs),
(212,130,o),
(128,-38,o),
(16,-142,c),
(38,-164,l),
(154,-54,o),
(242,124,o),
(244,332,cs),
(242,540,o),
(154,720,o),
(38,830,c)
);
}
);
width = 300;
}
);
leftKerningGroup = PCT_BRACERIGHT;
rightKerningGroup = PCT_PARENRIGHT;
unicode = 41;
}
{
glyphname = asterisk;
layers = (
{
layerId = "3717EFD3-6B64-4297-9C46-7E4C78651CC4";
shapes = (
{
closed = 1;
nodes = (
(173,435,o),
(195,412,o),
(224,412,cs),
(253,412,o),
(275,435,o),
(276,468,c),
(275,491,o),
(254,545,o),
(242,606,c),
(254,666,o),
(275,721,o),
(276,744,c),
(275,777,o),
(253,800,o),
(224,800,cs),
(195,800,o),
(173,777,o),
(174,744,c),
(173,722,o),
(193,668,o),
(206,606,c),
(193,545,o),
(173,490,o),
(174,468,c)
);
},
{
closed = 1;
nodes = (
(345,475,o),
(378,484,o),
(392,508,cs),
(407,534,o),
(398,566,o),
(370,582,cs),
(349,593,o),
(291,603,o),
(234,622,c),
(186,663,o),
(149,708,o),
(130,720,cs),
(101,737,o),
(70,728,o),
(56,702,c),
(41,678,o),
(49,646,o),
(80,630,cs),
(98,620,o),
(155,610,o),
(216,592,c),
(262,547,o),
(299,505,o),
(320,492,cs)
);
},
{
closed = 1;
nodes = (
(52,563,o),
(41,534,o),
(56,510,c),
(70,484,o),
(102,476,o),
(130,492,cs),
(151,505,o),
(187,548,o),
(234,592,c),
(291,609,o),
(349,620,o),
(370,630,cs),
(400,645,o),
(406,678,o),
(392,704,c),
(377,728,o),
(348,735,o),
(318,718,cs),
(299,708,o),
(261,663,o),
(216,622,c),
(155,602,o),
(98,592,o),
(80,580,cs)
);
}
);
width = 448;
},
{
layerId = "50A05132-A89A-4BC5-B81A-F4657F37FF17";
shapes = (
{
closed = 1;
nodes = (
(189,441,o),
(204,425,o),
(223,425,cs),
(244,425,o),
(258,441,o),
(258,464,cs),
(258,486,o),
(246,544,o),
(237,614,c),
(246,685,o),
(258,744,o),
(258,765,cs),
(258,788,o),
(244,803,o),
(223,803,cs),
(204,803,o),
(189,788,o),
(189,765,cs),
(189,745,o),
(200,686,o),
(209,614,c),
(201,544,o),
(189,485,o),
(189,464,cs)
);
},
{
closed = 1;
nodes = (
(356,497,o),
(377,503,o),
(387,519,cs),
(397,537,o),
(391,558,o),
(371,569,cs),
(353,580,o),
(295,599,o),
(231,626,c),
(173,669,o),
(128,709,o),
(109,720,cs),
(90,731,o),
(70,726,o),
(59,708,cs),
(50,692,o),
(55,670,o),
(75,659,c),
(94,650,o),
(150,630,o),
(217,603,c),
(273,558,o),
(319,520,o),
(337,509,cs)
);
},
{
closed = 1;
nodes = (
(57,556,o),
(50,537,o),
(59,520,c),
(70,502,o),
(90,498,o),
(110,509,cs),
(129,520,o),
(174,559,o),
(231,603,c),
(296,630,o),
(353,650,o),
(372,659,cs),
(392,669,o),
(397,691,o),
(387,709,c),
(377,726,o),
(357,730,o),
(337,719,cs),
(319,709,o),
(273,669,o),
(217,626,c),
(151,599,o),
(94,580,o),
(76,568,cs)
);
}
);
width = 446;
},
{
layerId = "10DD257C-652B-4320-8EE1-77E209923FFD";
shapes = (
{
closed = 1;
nodes = (
(204,446,o),
(212,438,o),
(222,438,cs),
(234,438,o),
(240,446,o),
(240,460,cs),
(240,480,o),
(238,542,o),
(232,622,c),
(237,703,o),
(240,767,o),
(240,786,cs),
(240,798,o),
(234,806,o),
(222,806,cs),
(212,806,o),
(204,798,o),
(204,786,cs),
(204,767,o),
(207,703,o),
(212,622,c),
(208,542,o),
(204,480,o),
(204,460,cs)
);
},
{
closed = 1;
nodes = (
(366,519,o),
(376,521,o),
(382,530,c),
(387,540,o),
(383,549,o),
(372,556,cs),
(356,567,o),
(299,595,o),
(228,630,c),
(159,675,o),
(107,710,o),
(88,720,cs),
(79,725,o),
(69,724,o),
(62,714,c),
(58,705,o),
(60,693,o),
(70,688,cs),
(89,679,o),
(144,650,o),
(218,614,c),
(284,569,o),
(338,535,o),
(354,526,cs)
);
},
{
closed = 1;
nodes = (
(61,549,o),
(58,539,o),
(62,530,c),
(69,520,o),
(78,520,o),
(90,526,cs),
(107,535,o),
(161,569,o),
(228,614,c),
(300,650,o),
(356,679,o),
(374,688,cs),
(384,693,o),
(387,704,o),
(382,714,c),
(376,723,o),
(365,725,o),
(356,720,cs),
(338,710,o),
(285,675,o),
(218,630,c),
(146,595,o),
(89,567,o),
(72,556,cs)
);
}
);
width = 444;
}
);
leftKerningGroup = PCT_QUOTE;
rightKerningGroup = PCT_QUOTE;
unicode = 42;
}
{
glyphname = plus;
layers = (
{
layerId = "6324EBA6-AEA3-4E83-9504-1204FE3965A0";
shapes = (
{
closed = 1;
nodes = (
(32,234,l),
(554,234,l),
(554,382,l),
(32,382,l)
);
},
{
closed = 1;
nodes = (
(220,576,l),
(220,42,l),
(368,42,l),
(368,576,l)
);
}
);
width = 588;
},
{
layerId = "94997179-B2A0-4125-8E55-188F48EDA314";
shapes = (
{
closed = 1;
nodes = (
(32,262,l),
(499,262,l),
(499,350,l),
(32,350,l)
);
},
{
closed = 1;
nodes = (
(222,548,l),
(222,65,l),
(310,65,l),
(310,548,l)
);
}
);
width = 532;
},
{
layerId = "DBC57AB7-6BBF-4709-9065-B7AB4DBB4D97";
shapes = (
{
closed = 1;
nodes = (
(32,290,l),
(444,290,l),
(444,318,l),
(32,318,l)
);
},
{
closed = 1;
nodes = (
(224,520,l),
(224,88,l),
(252,88,l),
(252,520,l)
);
}
);
width = 476;
}
);
leftKerningGroup = PCT_EMDASH;
rightKerningGroup = PCT_EMDASH;
unicode = 43;
}
{
glyphname = comma;
layers = (
{
layerId = "3717EFD3-6B64-4297-9C46-7E4C78651CC4";
shapes = (
{
closed = 1;
nodes = (
(94,-176,l),
(158,-116,ls),
(209,-69,o),
(258,-8,o),
(258,72,cs),
(258,152,o),
(208,192,o),
(152,192,cs),
(98,192,o),
(48,152,o),
(48,92,cs),
(48,34,o),
(98,-8,o),
(148,-8,cs),
(186,-8,o),
(204,22,o),
(204,48,c),
(182,48,l),
(184,-8,o),
(129,-47,o),
(104,-70,cs),
(46,-122,l)
);
}
);
width = 310;
},
{
layerId = "50A05132-A89A-4BC5-B81A-F4657F37FF17";
shapes = (
{
closed = 1;
nodes = (
(72,-154,l),
(128,-94,ls),
(162,-58,o),
(198,-14,o),
(198,48,cs),
(198,104,o),
(162,134,o),
(122,134,cs),
(82,134,o),
(50,104,o),
(50,64,cs),
(50,22,o),
(84,-8,o),
(120,-8,cs),
(148,-8,o),
(158,10,o),
(164,32,c),
(144,32,l),
(144,-2,o),
(116,-36,o),
(88,-64,cs),
(36,-118,l)
);
}
);
width = 246;
},
{
layerId = "10DD257C-652B-4320-8EE1-77E209923FFD";
shapes = (
{
closed = 1;
nodes = (
(44,-132,l),
(92,-72,ls),
(112,-48,o),
(132,-18,o),
(132,22,cs),
(132,62,o),
(110,76,o),
(88,76,cs),
(60,76,o),
(46,54,o),
(46,34,cs),
(46,10,o),
(64,-8,o),
(86,-8,cs),
(102,-8,o),
(108,-2,o),
(118,14,c),
(100,14,l),
(102,-4,o),
(96,-24,o),
(68,-58,cs),
(20,-114,l)
);
}
);
width = 180;
}
);
leftKerningGroup = PCT_COMMA;
rightKerningGroup = PCT_COMMA;
unicode = 44;
}
{
glyphname = hyphen;
layers = (
{
layerId = "3717EFD3-6B64-4297-9C46-7E4C78651CC4";
shapes = (
{
closed = 1;
nodes = (
(50,198,l),
(378,198,l),
(378,346,l),
(50,346,l)
);
}
);
width = 428;
},
{
layerId = "50A05132-A89A-4BC5-B81A-F4657F37FF17";
shapes = (
{
closed = 1;
nodes = (
(50,223,l),
(337,223,l),
(337,312,l),
(50,312,l)
);
}
);
width = 387;
},
{
layerId = "10DD257C-652B-4320-8EE1-77E209923FFD";
shapes = (
{
closed = 1;
nodes = (
(50,248,l),
(296,248,l),
(296,278,l),
(50,278,l)
);
}
);
width = 346;
}
);
leftKerningGroup = PCT_EMDASH;
rightKerningGroup = PCT_EMDASH;
unicode = 45;
}
{
glyphname = period;
layers = (
{
layerId = "6324EBA6-AEA3-4E83-9504-1204FE3965A0";
shapes = (
{
closed = 1;
nodes = (
(208,-8,o),
(252,36,o),
(252,92,cs),
(252,148,o),
(208,192,o),
(152,192,cs),
(96,192,o),
(52,148,o),
(52,92,cs),
(52,36,o),
(96,-8,o),
(152,-8,cs)
);
}
);
width = 304;
},
{
layerId = "94997179-B2A0-4125-8E55-188F48EDA314";
shapes = (
{
closed = 1;
nodes = (
(161,-8,o),
(192,23,o),
(192,63,cs),
(192,103,o),
(161,134,o),
(121,134,cs),
(81,134,o),
(50,103,o),
(50,63,cs),
(50,23,o),
(81,-8,o),
(121,-8,cs)
);
}
);
width = 242;
},
{
layerId = "DBC57AB7-6BBF-4709-9065-B7AB4DBB4D97";
shapes = (
{
closed = 1;
nodes = (
(114,-8,o),
(132,10,o),
(132,34,cs),
(132,58,o),
(114,76,o),
(90,76,cs),
(66,76,o),
(48,58,o),
(48,34,cs),
(48,10,o),
(66,-8,o),
(90,-8,cs)
);
}
);
width = 180;
}
);
leftKerningGroup = PCT_COMMA;
rightKerningGroup = PCT_COMMA;
unicode = 46;
}
{
glyphname = slash;
layers = (
{
layerId = "6324EBA6-AEA3-4E83-9504-1204FE3965A0";
shapes = (
{
closed = 1;
nodes = (
(372,812,l),
(-24,-146,l),
(116,-146,l),
(514,812,l)
);
}
);
width = 490;
},
{
layerId = "94997179-B2A0-4125-8E55-188F48EDA314";
shapes = (
{
closed = 1;
nodes = (
(370,812,l),
(-26,-146,l),
(60,-146,l),
(457,812,l)
);
}
);
width = 431;
},
{
layerId = "DBC57AB7-6BBF-4709-9065-B7AB4DBB4D97";
shapes = (
{
closed = 1;
nodes = (
(368,812,l),
(-28,-146,l),
(4,-146,l),
(400,812,l)
);
}
);
width = 372;
}
);
leftKerningGroup = PCT_SLASHSS10;
rightKerningGroup = PCT_SLASHSS10;
unicode = 47;
}
{
glyphname = zero;
layers = (
{
anchors = (
{
name = center;
position = "{316, 360}";
}
);
layerId = "3717EFD3-6B64-4297-9C46-7E4C78651CC4";
shapes = (
{
closed = 1;
nodes = (
(476,-8,o),
(592,110,o),
(592,316,cs),
(592,398,ls),
(592,606,o),
(476,728,o),
(316,728,cs),
(158,728,o),
(40,606,o),
(40,398,cs),
(40,316,ls),
(40,110,o),
(158,-8,o),
(316,-8,cs)
);
},
{
closed = 1;
nodes = (
(256,144,o),
(216,190,o),
(216,286,cs),
(216,430,ls),
(216,528,o),
(256,572,o),
(316,572,cs),
(380,572,o),
(416,528,o),
(416,430,cs),
(416,286,ls),
(416,190,o),
(380,144,o),
(316,144,cs)
);
}
);
width = 632;
},
{
anchors = (
{
name = center;
position = "{319, 360}";
}
);
layerId = "50A05132-A89A-4BC5-B81A-F4657F37FF17";
shapes = (
{
closed = 1;
nodes = (
(475,-8,o),
(583,116,o),
(583,318,cs),
(583,398,ls),
(583,602,o),
(475,728,o),
(319,728,cs),
(164,728,o),
(55,602,o),
(55,398,cs),
(55,318,ls),
(55,116,o),
(164,-8,o),
(319,-8,cs)
);
},
{
closed = 1;
nodes = (
(224,83,o),
(159,166,o),
(159,303,cs),
(159,414,ls),
(159,554,o),
(221,635,o),
(319,635,cs),
(420,635,o),
(479,554,o),
(479,414,cs),
(479,303,ls),
(479,166,o),
(417,83,o),
(319,83,cs)
);
}
);
width = 638;
},
{
anchors = (
{
name = center;
position = "{322, 360}";
}
);
layerId = "10DD257C-652B-4320-8EE1-77E209923FFD";
shapes = (
{
closed = 1;
nodes = (
(474,-8,o),
(574,121,o),
(574,320,cs),
(574,398,ls),
(574,598,o),
(474,728,o),
(322,728,cs),
(170,728,o),
(70,598,o),
(70,398,cs),
(70,320,ls),
(70,121,o),
(170,-8,o),
(322,-8,cs)
);
},
{
closed = 1;
nodes = (
(191,22,o),
(102,141,o),
(102,320,cs),
(102,398,ls),
(102,579,o),
(186,698,o),
(322,698,cs),
(460,698,o),
(542,579,o),
(542,398,cs),
(542,320,ls),
(542,141,o),
(453,22,o),
(322,22,cs)
);
}
);
width = 644;
}
);
leftKerningGroup = NUM_ZERO;
rightKerningGroup = NUM_ZERO;
unicode = 48;
}
{
glyphname = one;
layers = (
{
layerId = "3717EFD3-6B64-4297-9C46-7E4C78651CC4";
shapes = (
{
closed = 1;
nodes = (
(370,0,l),
(370,720,l),
(318,720,l),
(56,602,l),
(56,436,l),
(224,508,l),
(190,560,l),
(190,0,l)
);
}
);
width = 452;
},
{
layerId = "50A05132-A89A-4BC5-B81A-F4657F37FF17";
shapes = (
{
closed = 1;
nodes = (
(313,0,l),
(313,720,l),
(277,720,l),
(65,617,l),
(65,517,l),
(230,597,l),
(207,626,l),
(207,0,l)
);
}
);
width = 410;
},
{
layerId = "10DD257C-652B-4320-8EE1-77E209923FFD";
shapes = (
{
closed = 1;
nodes = (
(256,0,l),
(256,720,l),
(236,720,l),
(74,632,l),
(74,598,l),
(236,686,l),
(224,692,l),
(224,0,l)
);
}
);
width = 368;
}
);
leftKerningGroup = NUM_ONE;
rightKerningGroup = NUM_ONE;
unicode = 49;
}
{
glyphname = two;
layers = (
{
guides = (
{
position = "{0, 728}";
}
);
layerId = "3717EFD3-6B64-4297-9C46-7E4C78651CC4";
shapes = (
{
closed = 1;
nodes = (
(50,0,l),
(544,0,l),
(544,156,l),
(428,156,l),
(334,152,l),
(334,156,l),
(390,226,ls),
(468,324,o),
(544,402,o),
(544,514,cs),
(544,646,o),
(438,728,o),
(294,728,cs),
(147,728,o),
(48,641,o),
(37,503,c),
(214,482,l),
(214,536,o),
(248,572,o),
(296,572,cs),
(340,572,o),
(370,542,o),
(370,500,cs),
(370,434,o),
(296,356,o),
(242,286,cs),
(50,36,l)
);
}
);
width = 596;
},
{
layerId = "50A05132-A89A-4BC5-B81A-F4657F37FF17";
shapes = (
{
closed = 1;
nodes = (
(58,0,l),
(524,0,l),
(524,93,l),
(332,93,l),
(224,91,l),
(224,94,l),
(348,240,l),
(438,348,o),
(512,422,o),
(512,527,cs),
(512,650,o),
(415,728,o),
(289,728,cs),
(158,728,o),
(67,637,o),
(58,518,c),
(162,505,l),
(162,580,o),
(215,635,o),
(290,635,cs),
(362,635,o),
(409,583,o),
(409,521,cs),
(409,446,o),
(338,371,o),
(261,278,c),
(58,28,l)
);
}
);
width = 583;
},
{
guides = (
{
position = "{0, 728}";
}
);
layerId = "10DD257C-652B-4320-8EE1-77E209923FFD";
shapes = (
{
closed = 1;
nodes = (
(66,0,l),
(504,0,l),
(504,30,l),
(236,30,l),
(114,30,l),
(114,32,l),
(306,254,ls),
(408,372,o),
(480,442,o),
(480,540,cs),
(480,654,o),
(392,728,o),
(284,728,cs),
(168,728,o),
(86,633,o),
(79,532,c),
(110,528,l),
(110,624,o),
(182,698,o),
(284,698,cs),
(384,698,o),
(448,624,o),
(448,542,cs),
(448,458,o),
(380,386,o),
(280,270,cs),
(66,20,l)
);
}
);
width = 570;
}
);
leftKerningGroup = NUM_TWO;
rightKerningGroup = NUM_TWO;
unicode = 50;
}
{
glyphname = three;
layers = (
{
layerId = "577C2F50-0FC2-4837-984D-4FA1DCF6681B";
shapes = (
{
closed = 1;
nodes = (
(438,-8,o),
(548,82,o),
(548,200,cs),
(548,318,o),
(440,392,o),
(290,390,c),
(290,340,l),
(426,340,o),
(520,414,o),
(520,526,cs),
(520,634,o),
(430,728,o),
(286,728,cs),
(157,728,o),
(82,648,o),
(52,562,c),
(212,531,l),
(216,554,o),
(240,580,o),
(282,580,cs),
(324,580,o),
(350,554,o),
(350,510,cs),
(350,466,o),
(322,430,o),
(266,430,cs),
(228,430,l),
(228,298,l),
(262,298,ls),
(338,298,o),
(374,262,o),
(374,218,cs),
(374,172,o),
(338,136,o),
(286,136,cs),
(241,136,o),
(205,163,o),
(204,204,c),
(37,162,l),
(90,32,o),
(149,-8,o),
(288,-8,cs)
);
}
);
width = 596;
},
{
layerId = "E6E1701F-FDD6-4B99-AB09-C7A03B8D4814";
shapes = (
{
closed = 1;
nodes = (
(419,-8,o),
(523,83,o),
(523,199,cs),
(523,315,o),
(420,396,o),
(277,391,c),
(277,357,l),
(397,354,o),
(488,434,o),
(488,542,cs),
(488,646,o),
(404,728,o),
(279,728,cs),
(170,728,o),
(100,665,o),
(72,589,c),
(172,566,l),
(185,604,o),
(223,635,o),
(276,635,cs),
(338,635,o),
(383,594,o),
(383,533,cs),
(383,471,o),
(333,416,o),
(260,416,cs),
(224,416,l),
(224,331,l),
(249,331,ls),
(352,331,o),
(415,281,o),
(415,209,cs),
(415,139,o),
(357,84,o),
(280,83,c),
(218,84,o),
(164,120,o),
(153,179,c),
(50,151,l),
(91,40,o),
(162,-8,o),
(282,-8,cs)
);
}
);
width = 577;
},
{
layerId = "DBF002CB-ACA5-4984-BB80-D7F3ACD5E203";
shapes = (
{
closed = 1;
nodes = (
(398,-8,o),
(494,84,o),
(494,198,cs),
(494,312,o),
(396,400,o),
(262,392,c),
(262,376,l),
(364,370,o),
(452,456,o),
(452,560,cs),
(452,660,o),
(374,728,o),
(270,728,cs),
(184,728,o),
(121,684,o),
(95,620,c),
(126,607,l),
(149,662,o),
(204,698,o),
(270,698,cs),
(354,698,o),
(420,640,o),
(420,560,cs),
(420,476,o),
(346,400,o),
(254,400,cs),
(220,400,l),
(220,370,l),
(234,370,ls),
(368,370,o),
(462,302,o),
(462,198,cs),
(462,100,o),
(378,24,o),
(274,22,c),
(192,24,o),
(117,71,o),
(95,150,c),
(65,138,l),
(93,49,o),
(178,-8,o),
(274,-8,cs)
);
}
);
width = 558;
}
);
leftKerningGroup = NUM_THREE;
rightKerningGroup = NUM_EIGHT;
unicode = 51;
}
{
glyphname = four;
layers = (
{
layerId = "6324EBA6-AEA3-4E83-9504-1204FE3965A0";
shapes = (
{
closed = 1;
nodes = (
(516,0,l),
(516,720,l),
(360,720,l),
(20,238,l),
(20,138,l),
(588,138,l),
(588,282,l),
(200,282,l),
(200,284,l),
(284,406,l),
(342,502,l),
(346,502,l),
(346,386,l),
(346,0,l)
);
}
);
width = 620;
},
{
layerId = "94997179-B2A0-4125-8E55-188F48EDA314";
shapes = (
{
closed = 1;
nodes = (
(472,0,l),
(472,720,l),
(386,720,l),
(32,214,l),
(32,154,l),
(564,154,l),
(564,244,l),
(174,244,l),
(172,246,l),
(318,464,l),
(370,546,l),
(374,546,l),
(370,442,l),
(370,0,l)
);
}
);
width = 598;
},
{
layerId = "DBC57AB7-6BBF-4709-9065-B7AB4DBB4D97";
shapes = (
{
closed = 1;
nodes = (
(434,0,l),
(434,720,l),
(412,720,l),
(46,188,l),
(46,172,l),
(538,172,l),
(538,202,l),
(92,202,l),
(92,204,l),
(344,570,l),
(400,654,l),
(404,654,l),
(402,536,l),
(402,0,l)
);
}
);
width = 576;
}
);
leftKerningGroup = NUM_FOUR;
rightKerningGroup = NUM_FOUR;
unicode = 52;
}
{
glyphname = five;
layers = (
{
layerId = "3717EFD3-6B64-4297-9C46-7E4C78651CC4";
shapes = (
{
closed = 1;
nodes = (
(52,132,l),
(88,48,o),
(194,-8,o),
(300,-8,cs),
(450,-8,o),
(564,90,o),
(564,230,cs),
(564,368,o),
(456,460,o),
(332,460,cs),
(284,460,o),
(230,446,o),
(206,424,c),
(238,370,l),
(249,568,l),
(502,568,l),
(502,720,l),
(96,720,l),
(76,320,l),
(212,282,l),
(230,308,o),
(278,328,o),
(312,328,cs),
(360,328,o),
(400,290,o),
(400,236,cs),
(400,186,o),
(362,146,o),
(308,146,cs),
(270,146,o),
(236,172,o),
(224,204,c)
);
}
);
width = 608;
},
{
layerId = "50A05132-A89A-4BC5-B81A-F4657F37FF17";
shapes = (
{
closed = 1;
nodes = (
(68,138,l),
(106,48,o),
(200,-8,o),
(302,-8,cs),
(434,-8,o),
(542,84,o),
(542,224,cs),
(542,364,o),
(436,456,o),
(310,456,cs),
(254,456,o),
(195,438,o),
(171,414,c),
(199,374,l),
(218,624,l),
(490,624,l),
(490,720,l),
(121,720,l),
(95,344,l),
(163,314,l),
(185,344,o),
(242,364,o),
(296,364,cs),
(384,364,o),
(440,310,o),
(440,226,cs),
(440,144,o),
(384,88,o),
(302,88,cs),
(234,88,o),
(186,128,o),
(164,178,c)
);
}
);
width = 600;
},
{
layerId = "10DD257C-652B-4320-8EE1-77E209923FFD";
shapes = (
{
closed = 1;
nodes = (
(72,138,l),
(108,48,o),
(198,-8,o),
(290,-8,cs),
(414,-8,o),
(514,86,o),
(514,220,cs),
(514,352,o),
(416,450,o),
(286,450,cs),
(224,450,o),
(141,424,o),
(123,394,c),
(133,386,l),
(160,690,l),
(466,690,l),
(466,720,l),
(131,720,l),
(101,374,l),
(127,362,l),
(143,388,o),
(214,420,o),
(284,420,cs),
(402,420,o),
(482,330,o),
(482,218,cs),
(482,104,o),
(398,22,o),
(294,22,cs),
(208,22,o),
(128,78,o),
(100,150,c)
);
}
);
width = 578;
}
);
leftKerningGroup = NUM_FIVE;
rightKerningGroup = NUM_FIVE;
unicode = 53;
}
{
glyphname = six;
layers = (
{
layerId = "6324EBA6-AEA3-4E83-9504-1204FE3965A0";
shapes = (
{
closed = 1;
nodes = (
(448,-8,o),
(558,88,o),
(558,228,cs),
(558,366,o),
(450,458,o),
(332,458,cs),
(298,458,o),
(280,450,o),
(274,442,c),
(290,432,l),
(480,720,l),
(286,720,l),
(98,432,ls),
(76,398,o),
(32,314,o),
(32,234,cs),
(32,104,o),
(144,-8,o),
(302,-8,cs)
);
},
{
closed = 1;
nodes = (
(240,142,o),
(198,181,o),
(198,234,cs),
(198,284,o),
(240,322,o),
(296,322,cs),
(351,322,o),
(392,284,o),
(392,234,cs),
(392,181,o),
(351,142,o),
(296,142,cs)
);
}
);
width = 590;
},
{
layerId = "94997179-B2A0-4125-8E55-188F48EDA314";
shapes = (
{
closed = 1;
nodes = (
(432,-8,o),
(536,92,o),
(536,226,cs),
(536,362,o),
(432,458,o),
(308,458,cs),
(270,458,o),
(236,448,o),
(214,428,c),
(234,418,l),
(444,720,l),
(324,720,l),
(116,414,ls),
(86,370,o),
(48,296,o),
(48,220,cs),
(48,94,o),
(150,-8,o),
(292,-8,cs)
);
},
{
closed = 1;
nodes = (
(212,84,o),
(152,146,o),
(152,228,cs),
(152,308,o),
(214,368,o),
(292,368,cs),
(372,368,o),
(432,308,o),
(432,228,cs),
(432,146,o),
(372,84,o),
(292,84,cs)
);
}
);
width = 584;
},
{
layerId = "DBC57AB7-6BBF-4709-9065-B7AB4DBB4D97";
shapes = (
{
closed = 1;
nodes = (
(419,-8,o),
(516,91,o),
(516,222,cs),
(516,352,o),
(420,448,o),
(294,448,cs),
(254,448,o),
(202,438,o),
(162,404,c),
(178,414,l),
(412,720,l),
(374,720,l),
(130,398,ls),
(94,350,o),
(62,290,o),
(62,222,cs),
(62,91,o),
(160,-8,o),
(290,-8,cs)
);
},
{
closed = 1;
nodes = (
(178,22,o),
(94,108,o),
(94,222,cs),
(94,336,o),
(178,418,o),
(290,418,cs),
(404,418,o),
(484,336,o),
(484,222,cs),
(484,108,o),
(401,22,o),
(290,22,cs)
);
}
);
width = 578;
}
);
leftKerningGroup = NUM_SIX;
rightKerningGroup = NUM_SIX;
unicode = 54;
}
{
glyphname = seven;
layers = (
{
layerId = "3717EFD3-6B64-4297-9C46-7E4C78651CC4";
shapes = (
{
closed = 1;
nodes = (
(68,0,l),
(252,0,l),
(538,692,l),
(538,720,l),
(20,720,l),
(20,564,l),
(400,564,l),
(348,648,l)
);
}
);
width = 550;
},
{
layerId = "50A05132-A89A-4BC5-B81A-F4657F37FF17";
shapes = (
{
closed = 1;
nodes = (
(116,0,l),
(225,0,l),
(513,696,l),
(513,720,l),
(30,720,l),
(30,627,l),
(433,627,l),
(402,677,l)
);
}
);
width = 537;
},
{
layerId = "10DD257C-652B-4320-8EE1-77E209923FFD";
shapes = (
{
closed = 1;
nodes = (
(164,0,l),
(198,0,l),
(488,700,l),
(488,720,l),
(40,720,l),
(40,690,l),
(466,690,l),
(456,706,l)
);
}
);
width = 524;
}
);
leftKerningGroup = NUM_SEVEN;
rightKerningGroup = NUM_SEVEN;
unicode = 55;
}
{
glyphname = eight;
layers = (
{
layerId = "577C2F50-0FC2-4837-984D-4FA1DCF6681B";
shapes = (
{
closed = 1;
nodes = (
(472,-8,o),
(588,82,o),
(588,204,cs),
(588,326,o),
(472,416,o),
(318,416,cs),
(164,416,o),
(48,326,o),
(48,204,cs),
(48,82,o),
(164,-8,o),
(318,-8,cs)
);
},
{
closed = 1;
nodes = (
(262,132,o),
(220,168,o),
(220,214,cs),
(220,262,o),
(262,298,o),
(318,298,cs),
(374,298,o),
(416,262,o),
(416,214,cs),
(416,168,o),
(374,132,o),
(318,132,cs)
);
},
{
closed = 1;
nodes = (
(458,312,o),
(554,410,o),
(554,526,cs),
(554,652,o),
(444,728,o),
(318,728,cs),
(184,728,o),
(82,646,o),
(82,526,cs),
(82,410,o),
(178,312,o),
(318,312,cs)
);
},
{
closed = 1;
nodes = (
(268,432,o),
(232,466,o),
(232,514,cs),
(232,560,o),
(270,594,o),
(318,594,cs),
(366,594,o),
(404,560,o),
(404,514,cs),
(404,466,o),
(368,432,o),
(318,432,cs)
);
}
);
width = 636;
},
{
layerId = "E6E1701F-FDD6-4B99-AB09-C7A03B8D4814";
shapes = (
{
closed = 1;
nodes = (
(442,-8,o),
(546,82,o),
(546,202,cs),
(546,322,o),
(442,410,o),
(302,410,cs),
(164,410,o),
(58,322,o),
(58,202,cs),
(58,82,o),
(164,-8,o),
(302,-8,cs)
);
},
{
closed = 1;
nodes = (
(219,84,o),
(162,134,o),
(162,206,cs),
(162,278,o),
(219,328,o),
(300,328,cs),
(383,328,o),
(442,276,o),
(442,206,cs),
(442,134,o),
(381,84,o),
(300,84,cs)
);
},
{
closed = 1;
nodes = (
(420,346,o),
(512,428,o),
(512,538,cs),
(512,644,o),
(426,728,o),
(302,728,cs),
(180,728,o),
(92,646,o),
(92,538,cs),
(92,426,o),
(186,346,o),
(302,346,cs)
);
},
{
closed = 1;
nodes = (
(238,420,o),
(192,468,o),
(192,532,cs),
(192,596,o),
(238,636,o),
(302,636,cs),
(366,636,o),
(412,596,o),
(412,532,cs),
(412,468,o),
(366,420,o),
(302,420,cs)
);
}
);
width = 604;
},
{
layerId = "DBF002CB-ACA5-4984-BB80-D7F3ACD5E203";
shapes = (
{
closed = 1;
nodes = (
(432,-8,o),
(532,82,o),
(532,200,cs),
(532,318,o),
(430,406,o),
(298,406,cs),
(166,406,o),
(64,318,o),
(64,200,cs),
(64,82,o),
(164,-8,o),
(298,-8,cs)
);
},
{
closed = 1;
nodes = (
(182,22,o),
(96,100,o),
(96,200,cs),
(96,300,o),
(182,376,o),
(298,376,cs),
(414,376,o),
(500,300,o),
(500,200,cs),
(500,100,o),
(414,22,o),
(298,22,cs)
);
},
{
closed = 1;
nodes = (
(406,376,o),
(484,452,o),
(484,552,cs),
(484,652,o),
(408,728,o),
(298,728,cs),
(188,728,o),
(112,652,o),
(112,552,cs),
(112,452,o),
(190,376,o),
(298,376,cs)
);
},
{
closed = 1;
nodes = (
(208,406,o),
(144,472,o),
(144,552,cs),
(144,636,o),
(212,700,o),
(298,700,cs),
(384,700,o),
(452,636,o),
(452,552,cs),
(452,472,o),
(388,406,o),
(298,406,cs)
);
}
);
width = 596;
}
);
leftKerningGroup = NUM_EIGHT;
rightKerningGroup = NUM_EIGHT;
unicode = 56;
}
{
glyphname = nine;
layers = (
{
layerId = "6324EBA6-AEA3-4E83-9504-1204FE3965A0";
shapes = (
{
closed = 1;
nodes = (
(142,728,o),
(32,632,o),
(32,492,cs),
(32,354,o),
(140,262,o),
(258,262,cs),
(292,262,o),
(310,270,o),
(316,278,c),
(300,288,l),
(110,0,l),
(304,0,l),
(492,288,ls),
(514,322,o),
(558,406,o),
(558,486,cs),
(558,616,o),
(446,728,o),
(288,728,cs)
);
},
{
closed = 1;
nodes = (
(350,578,o),
(392,539,o),
(392,486,cs),
(392,436,o),
(350,398,o),
(294,398,cs),
(239,398,o),
(198,436,o),
(198,486,cs),
(198,539,o),
(239,578,o),
(294,578,cs)
);
}
);
width = 590;
},
{
layerId = "94997179-B2A0-4125-8E55-188F48EDA314";
shapes = (
{
closed = 1;
nodes = (
(151,728,o),
(47,631,o),
(47,495,cs),
(47,361,o),
(149,267,o),
(271,267,cs),
(308,267,o),
(343,276,o),
(366,297,c),
(350,297,l),
(138,0,l),
(254,0,l),
(470,305,ls),
(499,346,o),
(537,418,o),
(537,492,cs),
(537,623,o),
(432,728,o),
(288,728,cs)
);
},
{
closed = 1;
nodes = (
(375,638,o),
(438,576,o),
(438,492,cs),
(438,410,o),
(375,350,o),
(291,350,cs),
(207,350,o),
(146,410,o),
(146,492,cs),
(146,576,o),
(208,638,o),
(291,638,cs)
);
}
);
width = 584;
},
{
layerId = "DBC57AB7-6BBF-4709-9065-B7AB4DBB4D97";
shapes = (
{
closed = 1;
nodes = (
(159,728,o),
(62,629,o),
(62,498,cs),
(62,368,o),
(158,272,o),
(284,272,cs),
(324,272,o),
(376,282,o),
(416,316,c),
(400,306,l),
(166,0,l),
(204,0,l),
(448,322,ls),
(484,370,o),
(516,430,o),
(516,498,cs),
(516,629,o),
(418,728,o),
(288,728,cs)
);
},
{
closed = 1;
nodes = (
(400,698,o),
(484,612,o),
(484,498,cs),
(484,384,o),
(400,302,o),
(288,302,cs),
(174,302,o),
(94,384,o),
(94,498,cs),
(94,612,o),
(177,698,o),
(288,698,cs)
);
}
);
width = 578;
}
);
leftKerningGroup = NUM_NINE;
rightKerningGroup = NUM_NINE;
unicode = 57;
}
{
glyphname = colon;
layers = (
{
layerId = "6324EBA6-AEA3-4E83-9504-1204FE3965A0";
shapes = (
{
closed = 1;
nodes = (
(208,372,o),
(252,416,o),
(252,472,cs),
(252,528,o),
(208,572,o),
(152,572,cs),
(96,572,o),
(52,528,o),
(52,472,cs),
(52,416,o),
(96,372,o),
(152,372,cs)
);
},
{
closed = 1;
nodes = (
(208,-8,o),
(252,36,o),
(252,92,cs),
(252,148,o),
(208,192,o),
(152,192,cs),
(96,192,o),
(52,148,o),
(52,92,cs),
(52,36,o),
(96,-8,o),
(152,-8,cs)
);
}
);
width = 320;
},
{
layerId = "94997179-B2A0-4125-8E55-188F48EDA314";
shapes = (
{
closed = 1;
nodes = (
(173,386,o),
(204,417,o),
(204,457,cs),
(204,497,o),
(173,528,o),
(133,528,cs),
(93,528,o),
(62,497,o),
(62,457,cs),
(62,417,o),
(93,386,o),
(133,386,cs)
);
},
{
closed = 1;
nodes = (
(173,-8,o),
(204,23,o),
(204,63,cs),
(204,103,o),
(173,134,o),
(133,134,cs),
(93,134,o),
(62,103,o),
(62,63,cs),
(62,23,o),
(93,-8,o),
(133,-8,cs)
);
}
);
width = 266;
},
{
layerId = "DBC57AB7-6BBF-4709-9065-B7AB4DBB4D97";
shapes = (
{
closed = 1;
nodes = (
(113,412,o),
(131,430,o),
(131,454,cs),
(131,478,o),
(113,496,o),
(89,496,cs),
(65,496,o),
(47,478,o),
(47,454,cs),
(47,430,o),
(65,412,o),
(89,412,cs)
);
},
{
closed = 1;
nodes = (
(114,-8,o),
(132,10,o),
(132,34,cs),
(132,58,o),
(114,76,o),
(90,76,cs),
(66,76,o),
(48,58,o),
(48,34,cs),
(48,10,o),
(66,-8,o),
(90,-8,cs)
);
}
);
width = 212;
}
);
leftKerningGroup = PCT_COLON;
rightKerningGroup = PCT_COLON;
unicode = 58;
}
{
glyphname = semicolon;
layers = (
{
layerId = "6324EBA6-AEA3-4E83-9504-1204FE3965A0";
shapes = (
{
closed = 1;
nodes = (
(216,372,o),
(260,416,o),
(260,472,cs),
(260,528,o),
(216,572,o),
(160,572,cs),
(104,572,o),
(60,528,o),
(60,472,cs),
(60,416,o),
(104,372,o),
(160,372,cs)
);
},
{
closed = 1;
nodes = (
(102,-176,l),
(166,-116,ls),
(217,-69,o),
(266,-8,o),
(266,72,cs),
(266,152,o),
(216,192,o),
(160,192,cs),
(106,192,o),
(56,152,o),
(56,92,cs),
(56,34,o),
(106,-8,o),
(156,-8,cs),
(194,-8,o),
(212,22,o),
(212,48,c),
(190,48,l),
(192,-8,o),
(137,-47,o),
(112,-70,cs),
(54,-122,l)
);
}
);
width = 326;
},
{
layerId = "94997179-B2A0-4125-8E55-188F48EDA314";
shapes = (
{
closed = 1;
nodes = (
(173,386,o),
(204,417,o),
(204,457,cs),
(204,497,o),
(173,528,o),
(133,528,cs),
(93,528,o),
(62,497,o),
(62,457,cs),
(62,417,o),
(93,386,o),
(133,386,cs)
);
},
{
closed = 1;
nodes = (
(84,-154,l),
(140,-94,ls),
(174,-58,o),
(210,-14,o),
(210,48,cs),
(210,104,o),
(174,134,o),
(134,134,cs),
(94,134,o),
(62,104,o),
(62,64,cs),
(62,22,o),
(96,-8,o),
(132,-8,cs),
(160,-8,o),
(170,10,o),
(176,32,c),
(156,32,l),
(156,-2,o),
(128,-36,o),
(100,-64,cs),
(48,-118,l)
);
}
);
width = 269;
},
{
layerId = "DBC57AB7-6BBF-4709-9065-B7AB4DBB4D97";
shapes = (
{
closed = 1;
nodes = (
(130,412,o),
(148,430,o),
(148,454,cs),
(148,478,o),
(130,496,o),
(106,496,cs),
(82,496,o),
(64,478,o),
(64,454,cs),
(64,430,o),
(82,412,o),
(106,412,cs)
);
},
{
closed = 1;
nodes = (
(60,-132,l),
(108,-72,ls),
(128,-48,o),
(148,-18,o),
(148,22,cs),
(148,62,o),
(126,76,o),
(104,76,cs),
(76,76,o),
(62,54,o),
(62,34,cs),
(62,10,o),
(80,-8,o),
(102,-8,cs),
(118,-8,o),
(124,-2,o),
(134,14,c),
(116,14,l),
(118,-4,o),
(112,-24,o),
(84,-58,cs),
(36,-114,l)
);
}
);
width = 212;
}
);
leftKerningGroup = PCT_COLON;
rightKerningGroup = PCT_COLON;
unicode = 59;
}
{
glyphname = less;
layers = (
{
layerId = "577C2F50-0FC2-4837-984D-4FA1DCF6681B";
shapes = (
{
closed = 1;
nodes = (
(510,576,l),
(32,384,l),
(32,236,l),
(510,42,l),
(510,202,l),
(210,308,l),
(210,312,l),
(510,416,l)
);
}
);
width = 542;
},
{
layerId = "E6E1701F-FDD6-4B99-AB09-C7A03B8D4814";
shapes = (
{
closed = 1;
nodes = (
(477,533,l),
(34,352,l),
(34,260,l),
(477,81,l),
(477,176,l),
(138,304,l),
(138,308,l),
(477,437,l)
);
}
);
width = 511;
},
{
layerId = "DBF002CB-ACA5-4984-BB80-D7F3ACD5E203";
shapes = (
{
closed = 1;
nodes = (
(444,490,l),
(36,324,l),
(36,288,l),
(444,120,l),
(444,152,l),
(66,304,l),
(66,308,l),
(444,460,l)
);
}
);
width = 480;
}
);
unicode = 60;
}
{
glyphname = equal;
layers = (
{
layerId = "3717EFD3-6B64-4297-9C46-7E4C78651CC4";
shapes = (
{
closed = 1;
nodes = (
(32,264,l),
(554,264,l),
(554,412,l),
(32,412,l)
);
},
{
closed = 1;
nodes = (
(32,76,l),
(554,76,l),
(554,224,l),
(32,224,l)
);
}
);
width = 588;
},
{
layerId = "50A05132-A89A-4BC5-B81A-F4657F37FF17";
shapes = (
{
closed = 1;
nodes = (
(32,381,l),
(499,381,l),
(499,469,l),
(32,469,l)
);
},
{
closed = 1;
nodes = (
(32,144,l),
(499,144,l),
(499,232,l),
(32,232,l)
);
}
);
width = 532;
},
{
layerId = "10DD257C-652B-4320-8EE1-77E209923FFD";
shapes = (
{
closed = 1;
nodes = (
(32,290,l),
(444,290,l),
(444,318,l),
(32,318,l)
);
},
{
closed = 1;
nodes = (
(32,182,l),
(444,182,l),
(444,210,l),
(32,210,l)
);
}
);
width = 476;
}
);
unicode = 61;
}
{
glyphname = greater;
layers = (
{
layerId = "577C2F50-0FC2-4837-984D-4FA1DCF6681B";
shapes = (
{
closed = 1;
nodes = (
(32,42,l),
(510,234,l),
(510,382,l),
(32,576,l),
(32,416,l),
(332,310,l),
(332,306,l),
(32,202,l)
);
}
);
width = 542;
},
{
layerId = "E6E1701F-FDD6-4B99-AB09-C7A03B8D4814";
shapes = (
{
closed = 1;
nodes = (
(34,81,l),
(477,260,l),
(477,352,l),
(34,533,l),
(34,437,l),
(373,308,l),
(373,304,l),
(34,176,l)
);
}
);
width = 511;
},
{
layerId = "DBF002CB-ACA5-4984-BB80-D7F3ACD5E203";
shapes = (
{
closed = 1;
nodes = (
(36,120,l),
(444,286,l),
(444,322,l),
(36,490,l),
(36,458,l),
(414,306,l),
(414,302,l),
(36,150,l)
);
}
);
width = 480;
}
);
unicode = 62;
}
{
glyphname = question;
layers = (
{
layerId = "3717EFD3-6B64-4297-9C46-7E4C78651CC4";
shapes = (
{
closed = 1;
nodes = (
(124,732,o),
(30,640,o),
(28,516,c),
(178,516,l),
(180,558,o),
(216,588,o),
(258,588,cs),
(302,588,o),
(332,566,o),
(330,528,c),
(332,452,o),
(182,418,o),
(180,270,c),
(180,236,l),
(324,236,l),
(324,270,l),
(326,380,o),
(482,406,o),
(480,548,c),
(482,658,o),
(394,732,o),
(266,732,cs)
);
},
{
closed = 1;
nodes = (
(312,-8,o),
(356,36,o),
(356,92,cs),
(356,148,o),
(312,192,o),
(256,192,cs),
(200,192,o),
(156,148,o),
(156,92,cs),
(156,36,o),
(200,-8,o),
(256,-8,cs)
);
}
);
width = 510;
},
{
layerId = "50A05132-A89A-4BC5-B81A-F4657F37FF17";
shapes = (
{
closed = 1;
nodes = (
(119,730,o),
(33,652,o),
(32,546,c),
(126,546,l),
(125,602,o),
(171,643,o),
(232,644,c),
(294,643,o),
(337,602,o),
(338,548,c),
(337,450,o),
(179,460,o),
(178,312,c),
(178,242,l),
(272,242,l),
(272,314,l),
(271,413,o),
(430,419,o),
(430,558,cs),
(430,656,o),
(345,730,o),
(232,730,cs)
);
},
{
closed = 1;
nodes = (
(266,-8,o),
(297,23,o),
(297,64,cs),
(297,105,o),
(266,136,o),
(225,136,cs),
(184,136,o),
(153,105,o),
(153,64,cs),
(153,23,o),
(184,-8,o),
(225,-8,cs)
);
}
);
width = 456;
},
{
layerId = "10DD257C-652B-4320-8EE1-77E209923FFD";
shapes = (
{
closed = 1;
nodes = (
(126,728,o),
(50,658,o),
(50,576,c),
(80,576,l),
(80,642,o),
(142,700,o),
(218,698,c),
(302,700,o),
(360,644,o),
(360,570,cs),
(360,444,o),
(196,446,o),
(196,298,cs),
(196,246,l),
(226,246,l),
(226,300,ls),
(226,432,o),
(392,430,o),
(390,570,c),
(392,662,o),
(320,728,o),
(224,728,cs)
);
},
{
closed = 1;
nodes = (
(236,-8,o),
(254,10,o),
(254,34,cs),
(254,58,o),
(236,76,o),
(212,76,cs),
(188,76,o),
(170,58,o),
(170,34,cs),
(170,10,o),
(188,-8,o),
(212,-8,cs)
);
}
);
width = 440;
}
);
leftKerningGroup = PCT_QUESTION;
rightKerningGroup = PCT_QUESTION;
unicode = 63;
}
{
glyphname = at;
layers = (
{
layerId = "3717EFD3-6B64-4297-9C46-7E4C78651CC4";
shapes = (
{
closed = 1;
nodes = (
(540,-134,o),
(626,-116,o),
(670,-88,c),
(618,10,l),
(556,-14,o),
(504,-26,o),
(452,-26,cs),
(280,-26,o),
(142,102,o),
(142,296,cs),
(142,486,o),
(280,620,o),
(474,620,cs),
(659,620,o),
(790,509,o),
(790,352,cs),
(790,276,o),
(764,180,o),
(702,180,cs),
(656,180,o),
(656,236,o),
(656,244,cs),
(656,516,l),
(542,516,l),
(542,480,l),
(528,480,l),
(542,430,l),
(542,196,l),
(528,146,l),
(576,146,l),
(596,94,o),
(656,70,o),
(708,70,cs),
(826,70,o),
(904,188,o),
(904,336,cs),
(904,572,o),
(706,728,o),
(472,728,cs),
(216,728,o),
(28,544,o),
(28,298,cs),
(28,42,o),
(222,-134,o),
(462,-134,cs)
);
},
{
closed = 1;
nodes = (
(558,70,o),
(616,192,o),
(616,296,cs),
(616,420,o),
(538,522,o),
(428,522,cs),
(324,522,o),
(236,430,o),
(236,296,cs),
(236,168,o),
(316,70,o),
(432,70,cs)
);
},
{
closed = 1;
nodes = (
(412,202,o),
(378,242,o),
(378,296,cs),
(378,350,o),
(412,390,o),
(464,390,cs),
(512,390,o),
(542,354,o),
(542,296,cs),
(542,236,o),
(508,202,o),
(462,202,cs)
);
}
);
width = 932;
},
{
layerId = "50A05132-A89A-4BC5-B81A-F4657F37FF17";
shapes = (
{
closed = 1;
nodes = (
(570,-134,o),
(646,-104,o),
(684,-78,c),
(648,-2,l),
(604,-26,o),
(542,-52,o),
(460,-52,cs),
(262,-52,o),
(122,92,o),
(122,294,cs),
(122,502,o),
(270,646,o),
(470,646,cs),
(660,646,o),
(812,516,o),
(812,320,cs),
(812,224,o),
(776,156,o),
(716,156,cs),
(674,156,o),
(644,190,o),
(644,244,cs),
(644,508,l),
(562,508,l),
(562,466,l),
(550,466,l),
(562,422,l),
(562,196,l),
(552,146,l),
(586,146,l),
(604,104,o),
(664,76,o),
(718,76,cs),
(824,76,o),
(894,178,o),
(894,326,cs),
(894,570,o),
(704,728,o),
(470,728,cs),
(224,728,o),
(40,548,o),
(40,294,cs),
(40,40,o),
(224,-134,o),
(468,-134,cs)
);
},
{
closed = 1;
nodes = (
(552,78,o),
(632,172,o),
(632,294,cs),
(632,416,o),
(552,508,o),
(442,508,cs),
(330,508,o),
(244,416,o),
(244,292,cs),
(244,170,o),
(330,78,o),
(442,78,cs)
);
},
{
closed = 1;
nodes = (
(388,166,o),
(342,218,o),
(342,292,cs),
(342,368,o),
(388,422,o),
(450,422,cs),
(512,422,o),
(560,372,o),
(560,292,cs),
(560,218,o),
(518,166,o),
(452,166,cs)
);
}
);
width = 934;
},
{
layerId = "10DD257C-652B-4320-8EE1-77E209923FFD";
shapes = (
{
closed = 1;
nodes = (
(588,-132,o),
(672,-106,o),
(722,-70,c),
(704,-48,l),
(640,-90,o),
(570,-102,o),
(504,-102,cs),
(242,-102,o),
(90,84,o),
(90,308,cs),
(90,534,o),
(242,700,o),
(476,700,cs),
(676,700,o),
(848,580,o),
(848,326,c),
(850,208,o),
(808,112,o),
(722,112,cs),
(668,112,o),
(622,148,o),
(622,222,cs),
(622,496,l),
(592,496,l),
(592,418,l),
(576,418,l),
(594,384,l),
(594,190,l),
(584,168,l),
(598,168,l),
(614,114,o),
(668,82,o),
(724,82,cs),
(830,82,o),
(878,196,o),
(878,328,cs),
(878,598,o),
(686,730,o),
(474,730,cs),
(230,730,o),
(60,554,o),
(60,306,cs),
(60,46,o),
(252,-132,o),
(494,-132,cs)
);
},
{
closed = 1;
nodes = (
(548,80,o),
(622,167,o),
(622,290,cs),
(622,411,o),
(549,496,o),
(446,496,cs),
(341,496,o),
(266,410,o),
(266,288,cs),
(266,166,o),
(340,80,o),
(444,80,cs)
);
},
{
closed = 1;
nodes = (
(356,110,o),
(296,180,o),
(296,286,cs),
(296,394,o),
(356,466,o),
(446,466,cs),
(535,466,o),
(594,395,o),
(594,288,cs),
(594,181,o),
(535,110,o),
(446,110,cs)
);
}
);
width = 938;
}
);
leftKerningGroup = at;
rightKerningGroup = at;
unicode = 64;
}
{
glyphname = A;
layers = (
{
anchors = (
{
name = bottom;
position = "{378, 0}";
},
{
name = ogonek;
position = "{678, 0}";
},
{
name = top;
position = "{378, 720}";
}
);
layerId = "6324EBA6-AEA3-4E83-9504-1204FE3965A0";
shapes = (
{
closed = 1;
nodes = (
(4,0,l),
(196,0,l),
(262,176,l),
(276,246,l),
(376,514,l),
(380,514,l),
(480,246,l),
(494,176,l),
(560,0,l),
(752,0,l),
(454,720,l),
(302,720,l)
);
},
{
closed = 1;
nodes = (
(180,132,l),
(576,132,l),
(576,278,l),
(180,278,l)
);
}
);
width = 756;
},
{
anchors = (
{
name = bottom;
position = "{354, 0}";
},
{
name = ogonek;
position = "{618, 0}";
},
{
name = top;
position = "{354, 720}";
}
);
layerId = "94997179-B2A0-4125-8E55-188F48EDA314";
shapes = (
{
closed = 1;
nodes = (
(12,0,l),
(120,0,l),
(204,206,l),
(218,244,l),
(350,574,l),
(354,574,l),
(486,244,l),
(500,206,l),
(584,0,l),
(692,0,l),
(394,720,l),
(310,720,l)
);
},
{
closed = 1;
nodes = (
(154,180,l),
(548,180,l),
(548,272,l),
(154,272,l)
);
}
);
width = 704;
},
{
anchors = (
{
name = bottom;
position = "{342, 0}";
},
{
name = ogonek;
position = "{578, 0}";
},
{
name = top;
position = "{342, 720}";
}
);
layerId = "DBC57AB7-6BBF-4709-9065-B7AB4DBB4D97";
shapes = (
{
closed = 1;
nodes = (
(32,0,l),
(66,0,l),
(162,242,l),
(168,254,l),
(338,676,l),
(342,676,l),
(512,252,l),
(518,240,l),
(614,0,l),
(648,0,l),
(354,720,l),
(326,720,l)
);
},
{
closed = 1;
nodes = (
(148,232,l),
(534,232,l),
(534,262,l),
(148,262,l)
);
}
);
width = 680;
}
);
leftKerningGroup = LAT_A_UC;
rightKerningGroup = LAT_A_UC;
unicode = 65;
}
{
glyphname = B;
layers = (
{
anchors = (
{
name = bottom;
position = "{348, 0}";
},
{
name = center;
position = "{162, 226}";
},
{
name = top;
position = "{312, 720}";
}
);
layerId = "6324EBA6-AEA3-4E83-9504-1204FE3965A0";
shapes = (
{
closed = 1;
nodes = (
(396,0,ls),
(534,0,o),
(636,86,o),
(636,212,cs),
(636,330,o),
(546,380,o),
(452,394,c),
(452,350,l),
(522,374,o),
(582,450,o),
(582,536,cs),
(582,640,o),
(488,720,o),
(328,720,cs),
(238,720,l),
(238,564,l),
(332,564,ls),
(382,564,o),
(410,544,o),
(410,498,cs),
(410,454,o),
(384,430,o),
(344,430,cs),
(238,430,l),
(238,298,l),
(378,298,ls),
(424,298,o),
(458,272,o),
(458,230,cs),
(458,184,o),
(426,156,o),
(384,156,cs),
(238,156,l),
(238,0,l)
);
},
{
closed = 1;
nodes = (
(252,0,l),
(252,720,l),
(72,720,l),
(72,0,l)
);
}
);
width = 660;
},
{
anchors = (
{
name = bottom;
position = "{314, 0}";
},
{
name = center;
position = "{140, 208}";
},
{
name = top;
position = "{312, 720}";
}
);
layerId = "94997179-B2A0-4125-8E55-188F48EDA314";
shapes = (
{
closed = 1;
nodes = (
(326,0,ls),
(471,0,o),
(565,79,o),
(566,202,c),
(565,302,o),
(503,364,o),
(408,388,c),
(408,362,l),
(461,382,o),
(516,452,o),
(516,536,cs),
(516,649,o),
(421,720,o),
(274,720,cs),
(170,720,l),
(170,628,l),
(280,628,ls),
(361,628,o),
(413,586,o),
(412,520,c),
(413,448,o),
(370,414,o),
(288,414,cs),
(170,414,l),
(170,322,l),
(318,322,ls),
(405,322,o),
(462,277,o),
(462,208,cs),
(462,138,o),
(411,92,o),
(332,92,cs),
(180,92,l),
(180,0,l)
);
},
{
closed = 1;
nodes = (
(190,0,l),
(190,720,l),
(86,720,l),
(86,0,l)
);
}
);
width = 608;
},
{
anchors = (
{
name = bottom;
position = "{290, 0}";
},
{
name = center;
position = "{120, 206}";
},
{
name = top;
position = "{286, 720}";
}
);
layerId = "DBC57AB7-6BBF-4709-9065-B7AB4DBB4D97";
shapes = (
{
closed = 1;
nodes = (
(302,0,ls),
(440,0,o),
(528,76,o),
(528,192,cs),
(528,292,o),
(466,360,o),
(364,378,c),
(364,372,l),
(428,400,o),
(470,460,o),
(470,536,cs),
(470,646,o),
(392,720,o),
(280,720,cs),
(110,720,l),
(110,690,l),
(280,690,ls),
(372,690,o),
(438,630,o),
(438,536,cs),
(438,446,o),
(372,386,o),
(280,386,cs),
(110,386,l),
(110,356,l),
(302,356,ls),
(422,356,o),
(496,292,o),
(496,192,cs),
(496,92,o),
(422,30,o),
(302,30,cs),
(128,30,l),
(128,0,l)
);
},
{
closed = 1;
nodes = (
(132,0,l),
(132,720,l),
(100,720,l),
(100,0,l)
);
}
);
width = 594;
}
);
leftKerningGroup = LAT_H_UC;
rightKerningGroup = LAT_B_UC;
unicode = 66;
}
{
glyphname = C;
layers = (
{
anchors = (
{
name = base;
position = "{416, 0}";
},
{
name = bottom;
position = "{410, 0}";
},
{
name = cedilla;
position = "{422, 0}";
},
{
name = top;
position = "{406, 720}";
}
);
layerId = "577C2F50-0FC2-4837-984D-4FA1DCF6681B";
shapes = (
{
closed = 1;
nodes = (
(496,-8,o),
(574,8,o),
(640,46,c),
(572,206,l),
(538,170,o),
(476,156,o),
(428,156,cs),
(308,156,o),
(210,240,o),
(210,362,cs),
(210,482,o),
(308,564,o),
(420,564,cs),
(484,564,o),
(538,540,o),
(570,510,c),
(638,670,l),
(570,710,o),
(492,728,o),
(420,728,cs),
(206,728,o),
(28,572,o),
(28,360,cs),
(28,148,o),
(208,-8,o),
(426,-8,cs)
);
}
);
width = 672;
},
{
anchors = (
{
name = base;
position = "{416, 0}";
},
{
name = bottom;
position = "{402, 0}";
},
{
name = cedilla;
position = "{408, 0}";
},
{
name = top;
position = "{402, 720}";
}
);
layerId = "E6E1701F-FDD6-4B99-AB09-C7A03B8D4814";
shapes = (
{
closed = 1;
nodes = (
(490,-8,o),
(574,18,o),
(632,62,c),
(592,156,l),
(550,114,o),
(482,88,o),
(414,88,cs),
(266,88,o),
(146,208,o),
(146,362,cs),
(146,522,o),
(276,632,o),
(412,632,cs),
(480,632,o),
(548,608,o),
(590,568,c),
(630,662,l),
(570,702,o),
(492,728,o),
(410,728,cs),
(214,728,o),
(40,576,o),
(40,360,c),
(42,148,o),
(210,-8,o),
(410,-8,cs)
);
}
);
width = 668;
},
{
anchors = (
{
name = base;
position = "{424, 0}";
},
{
name = bottom;
position = "{404, 0}";
},
{
name = cedilla;
position = "{404, 0}";
},
{
name = top;
position = "{404, 720}";
}
);
layerId = "DBF002CB-ACA5-4984-BB80-D7F3ACD5E203";
shapes = (
{
closed = 1;
nodes = (
(488,-8,o),
(575,24,o),
(630,76,c),
(616,108,l),
(572,58,o),
(492,24,o),
(404,22,c),
(236,24,o),
(92,164,o),
(92,360,cs),
(92,560,o),
(246,700,o),
(406,698,c),
(484,700,o),
(564,670,o),
(614,620,c),
(628,652,l),
(575,696,o),
(494,728,o),
(406,728,cs),
(224,728,o),
(60,576,o),
(60,360,cs),
(60,148,o),
(218,-8,o),
(402,-8,cs)
);
}
);
width = 674;
}
);
leftKerningGroup = LAT_O_UC;
rightKerningGroup = LAT_C_UC;
unicode = 67;
}
{
glyphname = D;
layers = (
{
anchors = (
{
name = bottom;
position = "{344, 0}";
},
{
name = center;
position = "{168, 360}";
},
{
name = top;
position = "{346, 720}";
}
);
layerId = "577C2F50-0FC2-4837-984D-4FA1DCF6681B";
shapes = (
{
closed = 1;
nodes = (
(72,0,l),
(336,0,ls),
(506,0,o),
(694,116,o),
(694,364,cs),
(694,610,o),
(506,720,o),
(322,720,cs),
(72,720,l)
);
},
{
closed = 1;
nodes = (
(252,160,l),
(252,560,l),
(342,560,ls),
(402,560,o),
(514,518,o),
(514,364,cs),
(514,208,o),
(402,160,o),
(342,160,cs)
);
}
);
width = 722;
},
{
anchors = (
{
name = bottom;
position = "{344, 0}";
},
{
name = center;
position = "{144, 360}";
},
{
name = top;
position = "{344, 720}";
}
);
layerId = "E6E1701F-FDD6-4B99-AB09-C7A03B8D4814";
shapes = (
{
closed = 1;
nodes = (
(86,0,l),
(329,0,ls),
(513,0,o),
(665,135,o),
(664,366,c),
(665,590,o),
(513,720,o),
(322,720,cs),
(86,720,l)
);
},
{
closed = 1;
nodes = (
(192,95,l),
(192,625,l),
(330,625,ls),
(451,625,o),
(558,533,o),
(558,366,cs),
(558,193,o),
(451,95,o),
(330,95,cs)
);
}
);
width = 708;
},
{
anchors = (
{
name = bottom;
position = "{344, 0}";
},
{
name = center;
position = "{120, 360}";
},
{
name = top;
position = "{342, 720}";
}
);
layerId = "DBF002CB-ACA5-4984-BB80-D7F3ACD5E203";
shapes = (
{
closed = 1;
nodes = (
(100,0,l),
(322,0,ls),
(520,0,o),
(636,154,o),
(634,368,cs),
(636,570,o),
(520,720,o),
(322,720,cs),
(100,720,l)
);
},
{
closed = 1;
nodes = (
(132,30,l),
(132,690,l),
(318,690,ls),
(500,690,o),
(602,548,o),
(602,368,cs),
(602,178,o),
(500,30,o),
(318,30,cs)
);
}
);
width = 694;
}
);
leftKerningGroup = LAT_H_UC;
rightKerningGroup = LAT_O_UC;
unicode = 68;
}
{
glyphname = E;
layers = (
{
anchors = (
{
name = bottom;
position = "{306, 0}";
},
{
name = cedilla;
position = "{304, 0}";
},
{
name = ogonek;
position = "{404, 0}";
},
{
name = top;
position = "{304, 720}";
},
{
name = topleft;
position = "{20, 720}";
}
);
layerId = "6324EBA6-AEA3-4E83-9504-1204FE3965A0";
shapes = (
{
closed = 1;
nodes = (
(72,0,l,{name = .dv02;}),
(498,0,l),
(498,160,l),
(252,160,l,{name = .dv01;}),
(252,286,l,{name = .dv03;}),
(456,286,l),
(456,438,l),
(252,438,l,{name = .dv04;}),
(252,560,l,{name = .dv06;}),
(498,560,l),
(498,720,l),
(72,720,l,{name = .dv05;})
);
}
);
width = 550;
},
{
anchors = (
{
name = bottom;
position = "{306, 0}";
},
{
name = cedilla;
position = "{302, 0}";
},
{
name = ogonek;
position = "{399, 0}";
},
{
name = top;
position = "{300, 720}";
},
{
name = topleft;
position = "{20, 720}";
}
);
layerId = "94997179-B2A0-4125-8E55-188F48EDA314";
shapes = (
{
closed = 1;
nodes = (
(86,0,l),
(485,0,l),
(485,95,l),
(192,95,l),
(192,320,l),
(440,320,l),
(440,411,l),
(192,411,l),
(192,625,l),
(485,625,l),
(485,720,l),
(86,720,l)
);
}
);
width = 545;
},
{
anchors = (
{
name = bottom;
position = "{306, 0}";
},
{
name = cedilla;
position = "{300, 0}";
},
{
name = ogonek;
position = "{394, 0}";
},
{
name = top;
position = "{296, 720}";
},
{
name = topleft;
position = "{20, 720}";
}
);
layerId = "DBC57AB7-6BBF-4709-9065-B7AB4DBB4D97";
shapes = (
{
closed = 1;
nodes = (
(100,0,l,{name = .dv02;}),
(472,0,l),
(472,30,l),
(132,30,l,{name = .dv01;}),
(132,354,l,{name = .dv03;}),
(424,354,l),
(424,384,l),
(132,384,l,{name = .dv04;}),
(132,690,l,{name = .dv06;}),
(472,690,l),
(472,720,l),
(100,720,l,{name = .dv05;})
);
}
);
width = 540;
}
);
leftKerningGroup = LAT_H_UC;
rightKerningGroup = LAT_E_UC;
unicode = 69;
}
{
glyphname = F;
layers = (
{
anchors = (
{
name = bottom;
position = "{162, 0}";
},
{
name = center;
position = "{162, 142}";
},
{
name = top;
position = "{316, 720}";
}
);
layerId = "6324EBA6-AEA3-4E83-9504-1204FE3965A0";
shapes = (
{
closed = 1;
nodes = (
(72,0,l),
(252,0,l),
(252,256,l),
(456,256,l),
(456,416,l),
(252,416,l),
(252,560,l),
(498,560,l),
(498,720,l),
(72,720,l)
);
}
);
width = 530;
},
{
anchors = (
{
name = bottom;
position = "{139, 0}";
},
{
name = center;
position = "{139, 163}";
},
{
name = top;
position = "{306, 720}";
}
);
layerId = "94997179-B2A0-4125-8E55-188F48EDA314";
shapes = (
{
closed = 1;
nodes = (
(86,0,l),
(192,0,l),
(192,305,l),
(438,305,l),
(438,400,l),
(192,400,l),
(192,625,l),
(479,625,l),
(479,720,l),
(86,720,l)
);
}
);
width = 515;
},
{
anchors = (
{
name = bottom;
position = "{116, 0}";
},
{
name = center;
position = "{116, 184}";
},
{
name = top;
position = "{296, 720}";
}
);
layerId = "DBC57AB7-6BBF-4709-9065-B7AB4DBB4D97";
shapes = (
{
closed = 1;
nodes = (
(100,0,l),
(132,0,l),
(132,354,l),
(420,354,l),
(420,384,l),
(132,384,l),
(132,690,l),
(460,690,l),
(460,720,l),
(100,720,l)
);
}
);
width = 500;
}
);
leftKerningGroup = LAT_H_UC;
rightKerningGroup = LAT_F_UC;
unicode = 70;
}
{
glyphname = G;
layers = (
{
anchors = (
{
name = bottom;
position = "{398, 0}";
},
{
name = hook;
position = "{640, 670}";
},
{
name = top;
position = "{398, 720}";
}
);
layerId = "6324EBA6-AEA3-4E83-9504-1204FE3965A0";
shapes = (
{
closed = 1;
nodes = (
(608,-8,o),
(740,120,o),
(740,288,cs),
(740,420,l),
(388,418,l),
(388,270,l),
(572,270,l),
(572,202,o),
(500,152,o),
(412,152,cs),
(290,152,o),
(212,242,o),
(212,360,cs),
(212,486,o),
(300,564,o),
(420,564,cs),
(484,564,o),
(538,540,o),
(570,510,c),
(638,670,l),
(570,710,o),
(492,728,o),
(418,728,cs),
(208,728,o),
(28,580,o),
(28,356,cs),
(28,148,o),
(186,-8,o),
(408,-8,cs)
);
}
);
width = 772;
},
{
anchors = (
{
name = bottom;
position = "{392, 0}";
},
{
name = hook;
position = "{630, 662}";
},
{
name = top;
position = "{384, 720}";
}
);
layerId = "94997179-B2A0-4125-8E55-188F48EDA314";
shapes = (
{
closed = 1;
nodes = (
(586,-8,o),
(708,128,o),
(708,316,cs),
(708,392,l),
(374,392,l),
(374,300,l),
(602,300,l),
(602,178,o),
(524,88,o),
(394,88,cs),
(252,88,o),
(146,198,o),
(146,362,cs),
(146,520,o),
(250,632,o),
(402,632,cs),
(480,632,o),
(550,604,o),
(590,564,c),
(630,662,l),
(570,702,o),
(492,728,o),
(402,728,cs),
(188,728,o),
(40,572,o),
(40,360,cs),
(40,142,o),
(194,-8,o),
(394,-8,cs)
);
}
);
width = 748;
},
{
anchors = (
{
name = bottom;
position = "{386, 0}";
},
{
name = hook;
position = "{628, 652}";
},
{
name = top;
position = "{386, 720}";
}
);
layerId = "DBC57AB7-6BBF-4709-9065-B7AB4DBB4D97";
shapes = (
{
closed = 1;
nodes = (
(582,-8,o),
(696,132,o),
(696,344,cs),
(696,370,l),
(376,370,l),
(376,340,l),
(664,340,l),
(664,166,o),
(574,20,o),
(400,20,cs),
(230,20,o),
(92,160,o),
(92,360,cs),
(92,552,o),
(222,698,o),
(404,698,cs),
(486,698,o),
(564,670,o),
(614,620,c),
(628,652,l),
(580,692,o),
(500,728,o),
(402,728,cs),
(200,728,o),
(60,570,o),
(60,360,cs),
(60,142,o),
(212,-8,o),
(400,-8,cs)
);
}
);
width = 756;
}
);
leftKerningGroup = LAT_O_UC;
rightKerningGroup = LAT_G_UC;
unicode = 71;
}
{
glyphname = H;
layers = (
{
anchors = (
{
name = bottom;
position = "{384, 0}";
},
{
name = center;
position = "{384, 578}";
},
{
name = top;
position = "{384, 720}";
}
);
layerId = "3717EFD3-6B64-4297-9C46-7E4C78651CC4";
shapes = (
{
closed = 1;
nodes = (
(72,0,l),
(252,0,l),
(252,282,l),
(516,282,l),
(516,0,l),
(696,0,l),
(696,720,l),
(516,720,l),
(516,442,l),
(252,442,l),
(252,720,l),
(72,720,l)
);
}
);
width = 768;
},
{
anchors = (
{
name = bottom;
position = "{367, 0}";
},
{
name = center;
position = "{367, 554}";
},
{
name = top;
position = "{367, 720}";
}
);
layerId = "50A05132-A89A-4BC5-B81A-F4657F37FF17";
shapes = (
{
closed = 1;
nodes = (
(86,0,l),
(192,0,l),
(192,318,l),
(541,318,l),
(541,0,l),
(647,0,l),
(647,720,l),
(541,720,l),
(541,413,l),
(192,413,l),
(192,720,l),
(86,720,l)
);
}
);
width = 733;
},
{
anchors = (
{
name = bottom;
position = "{350, 0}";
},
{
name = center;
position = "{350, 530}";
},
{
name = top;
position = "{350, 720}";
}
);
layerId = "10DD257C-652B-4320-8EE1-77E209923FFD";
shapes = (
{
closed = 1;
nodes = (
(100,0,l),
(132,0,l),
(132,354,l),
(566,354,l),
(566,0,l),
(598,0,l),
(598,720,l),
(566,720,l),
(566,384,l),
(132,384,l),
(132,720,l),
(100,720,l)
);
}
);
width = 698;
}
);
leftKerningGroup = LAT_H_UC;
rightKerningGroup = LAT_H_UC;
unicode = 72;
}
{
glyphname = I;
layers = (
{
anchors = (
{
name = bottom;
position = "{172, 0}";
},
{
name = ogonek;
position = "{152, 0}";
},
{
name = top;
position = "{172, 720}";
}
);
layerId = "6324EBA6-AEA3-4E83-9504-1204FE3965A0";
shapes = (
{
closed = 1;
nodes = (
(82,0,l),
(262,0,l),
(262,720,l),
(82,720,l)
);
}
);
width = 346;
},
{
anchors = (
{
name = bottom;
position = "{146, 0}";
},
{
name = ogonek;
position = "{111, 0}";
},
{
name = top;
position = "{146, 720}";
}
);
layerId = "94997179-B2A0-4125-8E55-188F48EDA314";
shapes = (
{
closed = 1;
nodes = (
(93,0,l),
(199,0,l),
(199,720,l),
(93,720,l)
);
}
);
width = 293;
},
{
anchors = (
{
name = bottom;
position = "{120, 0}";
},
{
name = ogonek;
position = "{70, 0}";
},
{
name = top;
position = "{120, 720}";
}
);
layerId = "DBC57AB7-6BBF-4709-9065-B7AB4DBB4D97";
shapes = (
{
closed = 1;
nodes = (
(104,0,l),
(136,0,l),
(136,720,l),
(104,720,l)
);
}
);
width = 240;
}
);
leftKerningGroup = LAT_H_UC;
rightKerningGroup = LAT_H_UC;
unicode = 73;
}
{
glyphname = J;
layers = (
{
anchors = (
{
name = bottom;
position = "{282, 0}";
},
{
name = top;
position = "{396, 720}";
}
);
layerId = "3717EFD3-6B64-4297-9C46-7E4C78651CC4";
shapes = (
{
closed = 1;
nodes = (
(308,226,ls),
(308,182,o),
(284,152,o),
(246,152,cs),
(206,152,o),
(180,186,o),
(180,242,c),
(12,242,l),
(12,90,o),
(104,-8,o),
(250,-8,cs),
(396,-8,o),
(490,84,o),
(490,228,cs),
(490,720,l),
(308,720,l)
);
}
);
width = 562;
},
{
anchors = (
{
name = bottom;
position = "{247, 0}";
},
{
name = top;
position = "{366, 720}";
}
);
layerId = "50A05132-A89A-4BC5-B81A-F4657F37FF17";
shapes = (
{
closed = 1;
nodes = (
(317,218,ls),
(317,129,o),
(274,88,o),
(216,87,c),
(157,88,o),
(118,134,o),
(118,206,c),
(18,206,l),
(19,78,o),
(97,-8,o),
(219,-8,cs),
(340,-8,o),
(424,72,o),
(424,220,cs),
(424,720,l),
(317,720,l)
);
}
);
width = 510;
},
{
anchors = (
{
name = bottom;
position = "{212, 0}";
},
{
name = top;
position = "{336, 720}";
}
);
layerId = "10DD257C-652B-4320-8EE1-77E209923FFD";
shapes = (
{
closed = 1;
nodes = (
(326,210,ls),
(326,76,o),
(264,24,o),
(186,22,c),
(108,24,o),
(56,82,o),
(56,170,c),
(24,170,l),
(26,66,o),
(90,-8,o),
(188,-8,cs),
(284,-8,o),
(358,60,o),
(358,212,cs),
(358,720,l),
(326,720,l)
);
}
);
width = 458;
}
);
leftKerningGroup = LAT_J_UC;
rightKerningGroup = LAT_U_UC;
unicode = 74;
}
{
glyphname = K;
layers = (
{
anchors = (
{
name = bottom;
position = "{364, 0}";
},
{
name = top;
position = "{346, 720}";
}
);
layerId = "3717EFD3-6B64-4297-9C46-7E4C78651CC4";
shapes = (
{
closed = 1;
nodes = (
(252,0,l),
(252,312,l),
(294,312,l),
(236,338,l),
(488,0,l),
(702,0,l),
(390,414,l),
(390,316,l),
(694,720,l),
(478,720,l),
(236,378,l),
(294,404,l),
(252,404,l),
(252,720,l),
(72,720,l),
(72,0,l)
);
}
);
width = 710;
},
{
anchors = (
{
name = bottom;
position = "{336, 0}";
},
{
name = top;
position = "{327, 720}";
}
);
layerId = "50A05132-A89A-4BC5-B81A-F4657F37FF17";
shapes = (
{
closed = 1;
nodes = (
(192,0,l),
(192,329,l),
(221,329,l),
(183,348,l),
(500,0,l),
(629,0,l),
(275,393,l),
(275,333,l),
(612,720,l),
(482,720,l),
(183,370,l),
(221,389,l),
(192,389,l),
(192,720,l),
(86,720,l),
(86,0,l)
);
}
);
width = 651;
},
{
anchors = (
{
name = bottom;
position = "{308, 0}";
},
{
name = top;
position = "{308, 720}";
}
);
layerId = "10DD257C-652B-4320-8EE1-77E209923FFD";
shapes = (
{
closed = 1;
nodes = (
(132,0,l),
(132,346,l),
(148,346,l),
(130,358,l),
(512,0,l),
(556,0,l),
(160,372,l),
(160,350,l),
(530,720,l),
(486,720,l),
(130,362,l),
(148,374,l),
(132,374,l),
(132,720,l),
(100,720,l),
(100,0,l)
);
}
);
width = 592;
}
);
leftKerningGroup = LAT_H_UC;
rightKerningGroup = LAT_K_UC;
unicode = 75;
}
{
glyphname = L;
layers = (
{
anchors = (
{
name = bottom;
position = "{290, 0}";
},
{
name = center;
position = "{160, 370}";
},
{
name = dot;
position = "{428, 370}";
},
{
name = top;
position = "{166, 720}";
},
{
name = topright;
position = "{318, 720}";
}
);
layerId = "6324EBA6-AEA3-4E83-9504-1204FE3965A0";
shapes = (
{
closed = 1;
nodes = (
(72,0,l),
(498,0,l),
(498,160,l),
(252,160,l),
(252,720,l),
(72,720,l)
);
}
);
width = 514;
},
{
anchors = (
{
name = bottom;
position = "{291, 0}";
},
{
name = center;
position = "{138, 365}";
},
{
name = dot;
position = "{401, 365}";
},
{
name = top;
position = "{141, 720}";
},
{
name = topright;
position = "{347, 720}";
}
);
layerId = "94997179-B2A0-4125-8E55-188F48EDA314";
shapes = (
{
closed = 1;
nodes = (
(86,0,l),
(484,0,l),
(484,95,l),
(192,95,l),
(192,720,l),
(86,720,l)
);
}
);
width = 505;
},
{
anchors = (
{
name = bottom;
position = "{292, 0}";
},
{
name = center;
position = "{116, 360}";
},
{
name = dot;
position = "{374, 360}";
},
{
name = top;
position = "{116, 720}";
},
{
name = topright;
position = "{376, 720}";
}
);
layerId = "DBC57AB7-6BBF-4709-9065-B7AB4DBB4D97";
shapes = (
{
closed = 1;
nodes = (
(100,0,l),
(470,0,l),
(470,30,l),
(132,30,l),
(132,720,l),
(100,720,l)
);
}
);
width = 496;
}
);
leftKerningGroup = LAT_H_UC;
rightKerningGroup = LAT_L_UC;
unicode = 76;
}
{
glyphname = M;
layers = (
{
anchors = (
{
name = bottom;
position = "{452, 0}";
},
{
name = top;
position = "{452, 720}";
}
);
layerId = "3717EFD3-6B64-4297-9C46-7E4C78651CC4";
shapes = (
{
closed = 1;
nodes = (
(72,0,l),
(252,0,l),
(252,196,l),
(248,398,l),
(252,398,l),
(436,150,l),
(468,150,l),
(654,398,l),
(658,398,l),
(652,196,l),
(652,0,l),
(834,0,l),
(834,720,l),
(702,720,l),
(454,400,l),
(450,400,l),
(202,720,l),
(72,720,l)
);
}
);
width = 906;
},
{
anchors = (
{
name = bottom;
position = "{420, 0}";
},
{
name = top;
position = "{420, 720}";
}
);
layerId = "50A05132-A89A-4BC5-B81A-F4657F37FF17";
shapes = (
{
closed = 1;
nodes = (
(86,0,l),
(190,0,l),
(190,352,l),
(188,496,l),
(192,496,l),
(402,140,l),
(436,140,l),
(646,496,l),
(650,496,l),
(648,352,l),
(648,0,l),
(752,0,l),
(752,720,l),
(668,720,l),
(422,298,l),
(418,298,l),
(168,720,l),
(86,720,l)
);
}
);
width = 838;
},
{
anchors = (
{
name = bottom;
position = "{392, 0}";
},
{
name = top;
position = "{392, 720}";
}
);
layerId = "10DD257C-652B-4320-8EE1-77E209923FFD";
shapes = (
{
closed = 1;
nodes = (
(100,0,l),
(132,0,l),
(132,522,l),
(132,658,l),
(136,658,l),
(382,134,l),
(402,134,l),
(648,658,l),
(652,658,l),
(652,522,l),
(652,0,l),
(684,0,l),
(684,720,l),
(644,720,l),
(396,188,l),
(390,188,l),
(140,720,l),
(100,720,l)
);
}
);
width = 784;
}
);
leftKerningGroup = LAT_H_UC;
rightKerningGroup = LAT_H_UC;
unicode = 77;
}
{
glyphname = N;
layers = (
{
anchors = (
{
name = bottom;
position = "{390, 0}";
},
{
name = leghookright;
position = "{626, 0}";
},
{
name = top;
position = "{392, 720}";
}
);
layerId = "3717EFD3-6B64-4297-9C46-7E4C78651CC4";
shapes = (
{
closed = 1;
nodes = (
(72,0,l),
(252,0,l),
(252,254,l),
(248,414,l),
(252,414,l),
(298,348,l),
(580,0,l),
(712,0,l),
(712,720,l),
(530,720,l),
(530,466,l),
(534,316,l),
(530,316,l),
(484,380,l),
(202,720,l),
(72,720,l)
);
}
);
width = 784;
},
{
anchors = (
{
name = bottom;
position = "{368, 0}";
},
{
name = leghookright;
position = "{606, 0}";
},
{
name = top;
position = "{372, 720}";
}
);
layerId = "50A05132-A89A-4BC5-B81A-F4657F37FF17";
shapes = (
{
closed = 1;
nodes = (
(86,0,l),
(190,0,l),
(190,352,l),
(190,524,l),
(194,524,l),
(258,438,l),
(582,0,l),
(658,0,l),
(658,720,l),
(554,720,l),
(554,372,l),
(554,196,l),
(550,196,l),
(486,284,l),
(162,720,l),
(86,720,l)
);
}
);
width = 744;
},
{
anchors = (
{
name = bottom;
position = "{344, 0}";
},
{
name = leghookright;
position = "{586, 0}";
},
{
name = top;
position = "{352, 720}";
}
);
layerId = "10DD257C-652B-4320-8EE1-77E209923FFD";
shapes = (
{
closed = 1;
nodes = (
(100,0,l),
(132,0,l),
(132,472,l),
(132,660,l),
(136,660,l),
(224,528,l),
(572,0,l),
(602,0,l),
(602,720,l),
(570,720,l),
(570,252,l),
(570,58,l),
(566,58,l),
(480,190,l),
(130,720,l),
(100,720,l)
);
}
);
width = 702;
}
);
leftKerningGroup = LAT_H_UC;
rightKerningGroup = LAT_H_UC;
unicode = 78;
}
{
glyphname = O;
layers = (
{
anchors = (
{
name = bottom;
position = "{404, 0}";
},
{
name = center;
position = "{404, 360}";
},
{
name = horn;
position = "{564, 696}";
},
{
name = ogonek;
position = "{406, 0}";
},
{
name = top;
position = "{404, 720}";
},
{
name = topleft;
position = "{6, 720}";
},
{
name = topright;
position = "{800, 720}";
}
);
layerId = "3717EFD3-6B64-4297-9C46-7E4C78651CC4";
shapes = (
{
closed = 1;
nodes = (
(610,-8,o),
(778,156,o),
(778,360,cs),
(778,564,o),
(612,728,o),
(404,728,cs),
(194,728,o),
(28,564,o),
(28,360,cs),
(28,156,o),
(194,-8,o),
(404,-8,cs)
);
},
{
closed = 1;
nodes = (
(296,156,o),
(208,246,o),
(208,360,cs),
(208,474,o),
(296,564,o),
(404,564,cs),
(510,564,o),
(598,474,o),
(598,360,cs),
(598,246,o),
(510,156,o),
(404,156,cs)
);
}
);
width = 806;
},
{
anchors = (
{
name = bottom;
position = "{396, 0}";
},
{
name = center;
position = "{396, 360}";
},
{
name = horn;
position = "{548, 696}";
},
{
name = ogonek;
position = "{396, 0}";
},
{
name = top;
position = "{396, 720}";
},
{
name = topleft;
position = "{18, 718}";
},
{
name = topright;
position = "{772, 718}";
}
);
layerId = "50A05132-A89A-4BC5-B81A-F4657F37FF17";
shapes = (
{
closed = 1;
nodes = (
(601,-8,o),
(754,148,o),
(754,360,cs),
(754,571,o),
(601,728,o),
(396,728,cs),
(192,728,o),
(39,571,o),
(40,360,c),
(39,148,o),
(192,-8,o),
(396,-8,cs)
);
},
{
closed = 1;
nodes = (
(252,88,o),
(145,201,o),
(146,360,cs),
(147,518,o),
(254,631,o),
(396,632,c),
(540,631,o),
(646,518,o),
(648,360,cs),
(649,201,o),
(542,88,o),
(396,88,cs)
);
}
);
width = 794;
},
{
anchors = (
{
name = bottom;
position = "{400, 0}";
},
{
name = center;
position = "{400, 358}";
},
{
name = horn;
position = "{558, 688}";
},
{
name = ogonek;
position = "{400, 0}";
},
{
name = top;
position = "{400, 720}";
},
{
name = topleft;
position = "{38, 720}";
},
{
name = topright;
position = "{764, 720}";
}
);
layerId = "10DD257C-652B-4320-8EE1-77E209923FFD";
shapes = (
{
closed = 1;
nodes = (
(596,-8,o),
(742,150,o),
(742,360,cs),
(742,570,o),
(596,728,o),
(400,728,cs),
(206,728,o),
(60,570,o),
(60,360,cs),
(60,150,o),
(206,-8,o),
(400,-8,cs)
);
},
{
closed = 1;
nodes = (
(226,22,o),
(92,164,o),
(92,360,cs),
(92,554,o),
(226,700,o),
(400,698,cs),
(576,700,o),
(712,554,o),
(710,360,cs),
(712,164,o),
(576,22,o),
(400,22,cs)
);
}
);
width = 802;
}
);
leftKerningGroup = LAT_O_UC;
rightKerningGroup = LAT_O_UC;
unicode = 79;
}
{
glyphname = P;
layers = (
{
anchors = (
{
name = bottom;
position = "{174, 0}";
},
{
name = top;
position = "{336, 720}";
}
);
layerId = "3717EFD3-6B64-4297-9C46-7E4C78651CC4";
shapes = (
{
closed = 1;
nodes = (
(216,560,l),
(332,560,ls),
(398,560,o),
(440,524,o),
(440,470,cs),
(440,418,o),
(400,378,o),
(338,378,cs),
(216,378,l),
(216,220,l),
(346,220,ls),
(506,220,o),
(616,322,o),
(616,476,cs),
(616,624,o),
(514,720,o),
(342,720,cs),
(216,720,l)
);
},
{
closed = 1;
nodes = (
(252,720,l),
(72,720,l),
(72,0,l),
(252,0,l)
);
}
);
width = 650;
},
{
anchors = (
{
name = bottom;
position = "{150, 0}";
},
{
name = top;
position = "{323, 720}";
}
);
layerId = "50A05132-A89A-4BC5-B81A-F4657F37FF17";
shapes = (
{
closed = 1;
nodes = (
(169,625,l),
(327,625,ls),
(412,625,o),
(467,576,o),
(467,499,cs),
(467,421,o),
(413,366,o),
(330,366,cs),
(169,366,l),
(169,272,l),
(332,272,ls),
(476,272,o),
(571,366,o),
(571,501,cs),
(571,635,o),
(478,720,o),
(330,720,cs),
(169,720,l)
);
},
{
closed = 1;
nodes = (
(192,720,l),
(86,720,l),
(86,0,l),
(192,0,l)
);
}
);
width = 615;
},
{
anchors = (
{
name = bottom;
position = "{126, 0}";
},
{
name = top;
position = "{310, 720}";
}
);
layerId = "10DD257C-652B-4320-8EE1-77E209923FFD";
shapes = (
{
closed = 1;
nodes = (
(122,690,l),
(322,690,ls),
(426,690,o),
(494,628,o),
(494,528,cs),
(494,424,o),
(426,354,o),
(322,354,cs),
(122,354,l),
(122,324,l),
(318,324,ls),
(446,324,o),
(526,410,o),
(526,526,cs),
(526,646,o),
(442,720,o),
(318,720,cs),
(122,720,l)
);
},
{
closed = 1;
nodes = (
(132,720,l),
(100,720,l),
(100,0,l),
(132,0,l)
);
}
);
width = 580;
}
);
leftKerningGroup = LAT_H_UC;
rightKerningGroup = LAT_P_UC;
unicode = 80;
}
{
color = (153, 255, 154, 255);
glyphname = Q;
layers = (
{
anchors = (
{
name = bottom;
position = "{402, 0}";
},
{
name = top;
position = "{402, 720}";
}
);
layerId = "6324EBA6-AEA3-4E83-9504-1204FE3965A0";
shapes = (
{
closed = 1;
nodes = (
(356,10,l),
(442,-52,o),
(539,-106,o),
(657,-160,c),
(798,-45,l),
(667,-10,o),
(554,36,o),
(478,86,c)
);
},
{
alignment = -1;
ref = O;
}
);
width = 814;
},
{
anchors = (
{
name = bottom;
position = "{402, 0}";
},
{
name = top;
position = "{402, 720}";
},
{
name = center;
position = "{402, 359}";
},
{
name = horn;
position = "{561, 692}";
},
{
name = ogonek;
position = "{403, 0}";
},
{
name = topleft;
position = "{21, 720}";
},
{
name = topright;
position = "{783, 720}";
}
);
layerId = "94997179-B2A0-4125-8E55-188F48EDA314";
shapes = (
{
closed = 1;
nodes = (
(365,5,l),
(457,-57,o),
(571,-116,o),
(685,-162,c),
(774,-83,l),
(652,-50,o),
(524,5,o),
(443,58,c)
);
},
{
alignment = -1;
ref = O;
}
);
width = 812;
},
{
anchors = (
{
name = bottom;
position = "{402, 0}";
},
{
name = top;
position = "{398, 720}";
}
);
layerId = "DBC57AB7-6BBF-4709-9065-B7AB4DBB4D97";
shapes = (
{
closed = 1;
nodes = (
(378,-2,l),
(477,-65,o),
(615,-130,o),
(724,-165,c),
(741,-136,l),
(632,-106,o),
(482,-39,o),
(393,20,c)
);
},
{
alignment = -1;
ref = O;
}
);
width = 810;
}
);
leftKerningGroup = LAT_O_UC;
rightKerningGroup = LAT_Q_UC;
unicode = 81;
}
{
glyphname = R;
layers = (
{
anchors = (
{
name = bottom;
position = "{350, 0}";
},
{
name = top;
position = "{340, 720}";
}
);
layerId = "6324EBA6-AEA3-4E83-9504-1204FE3965A0";
shapes = (
{
closed = 1;
nodes = (
(216,560,l),
(332,560,ls),
(396,560,o),
(440,524,o),
(440,470,cs),
(440,418,o),
(398,382,o),
(338,382,cs),
(216,382,l),
(216,236,l),
(312,236,ls),
(502,236,o),
(616,348,o),
(616,494,cs),
(616,640,o),
(504,720,o),
(360,720,cs),
(216,720,l)
);
},
{
closed = 1;
nodes = (
(252,720,l),
(72,720,l),
(72,0,l),
(252,0,l)
);
},
{
closed = 1;
nodes = (
(328,262,l),
(470,0,l),
(670,0,l),
(458,368,l)
);
}
);
width = 704;
},
{
anchors = (
{
name = bottom;
position = "{332, 0}";
},
{
name = top;
position = "{319, 720}";
}
);
layerId = "94997179-B2A0-4125-8E55-188F48EDA314";
shapes = (
{
closed = 1;
nodes = (
(166,625,l),
(319,625,ls),
(405,625,o),
(464,576,o),
(464,498,cs),
(464,421,o),
(407,368,o),
(324,368,cs),
(166,368,l),
(166,280,l),
(314,280,ls),
(471,280,o),
(568,382,o),
(568,510,cs),
(568,642,o),
(467,720,o),
(335,720,cs),
(166,720,l)
);
},
{
closed = 1;
nodes = (
(192,720,l),
(86,720,l),
(86,0,l),
(192,0,l)
);
},
{
closed = 1;
nodes = (
(321,295,l),
(487,0,l),
(605,0,l),
(398,359,l)
);
}
);
width = 656;
},
{
anchors = (
{
name = bottom;
position = "{314, 0}";
},
{
name = top;
position = "{298, 720}";
}
);
layerId = "DBC57AB7-6BBF-4709-9065-B7AB4DBB4D97";
shapes = (
{
closed = 1;
nodes = (
(116,690,l),
(306,690,ls),
(414,690,o),
(488,628,o),
(488,526,cs),
(488,424,o),
(416,354,o),
(310,354,cs),
(116,354,l),
(116,324,l),
(316,324,ls),
(440,324,o),
(520,416,o),
(520,526,cs),
(520,644,o),
(430,720,o),
(310,720,cs),
(116,720,l)
);
},
{
closed = 1;
nodes = (
(132,720,l),
(100,720,l),
(100,0,l),
(132,0,l)
);
},
{
closed = 1;
nodes = (
(314,328,l),
(504,0,l),
(540,0,l),
(338,350,l)
);
}
);
width = 608;
}
);
leftKerningGroup = LAT_H_UC;
rightKerningGroup = LAT_R_UC;
unicode = 82;
}
{
glyphname = S;
layers = (
{
anchors = (
{
name = bottom;
position = "{322, 0}";
},
{
name = top;
position = "{306, 720}";
}
);
layerId = "3717EFD3-6B64-4297-9C46-7E4C78651CC4";
shapes = (
{
closed = 1;
nodes = (
(466,-8,o),
(572,96,o),
(572,222,cs),
(572,358,o),
(446,402,o),
(392,420,cs),
(344,436,o),
(246,456,o),
(246,514,cs),
(246,548,o),
(280,568,o),
(310,568,cs),
(350,568,o),
(380,534,o),
(390,506,c),
(556,574,l),
(520,666,o),
(428,728,o),
(308,728,cs),
(172,728,o),
(66,650,o),
(66,518,cs),
(66,396,o),
(156,338,o),
(254,306,cs),
(312,286,o),
(392,272,o),
(392,216,cs),
(392,180,o),
(356,156,o),
(320,156,cs),
(266,156,o),
(228,202,o),
(212,246,c),
(40,174,l),
(72,72,o),
(192,-8,o),
(318,-8,cs)
);
}
);
width = 612;
},
{
anchors = (
{
name = bottom;
position = "{287, 0}";
},
{
name = top;
position = "{285, 720}";
}
);
layerId = "50A05132-A89A-4BC5-B81A-F4657F37FF17";
shapes = (
{
closed = 1;
nodes = (
(412,-8,o),
(516,74,o),
(516,200,cs),
(516,342,o),
(382,390,o),
(314,414,cs),
(258,434,o),
(180,462,o),
(180,540,cs),
(180,602,o),
(232,632,o),
(282,632,cs),
(342,632,o),
(386,588,o),
(402,556,c),
(496,596,l),
(466,662,o),
(396,728,o),
(280,728,cs),
(160,728,o),
(76,652,o),
(76,540,cs),
(76,424,o),
(160,368,o),
(258,332,cs),
(306,314,o),
(412,286,o),
(412,198,cs),
(412,134,o),
(356,88,o),
(288,88,cs),
(218,88,o),
(168,142,o),
(150,196,c),
(52,156,l),
(78,74,o),
(174,-8,o),
(294,-8,cs)
);
}
);
width = 568;
},
{
anchors = (
{
name = bottom;
position = "{284, 0}";
},
{
name = top;
position = "{268, 720}";
}
);
layerId = "10DD257C-652B-4320-8EE1-77E209923FFD";
shapes = (
{
closed = 1;
nodes = (
(384,-8,o),
(482,64,o),
(482,178,cs),
(482,324,o),
(328,366,o),
(266,390,cs),
(196,416,o),
(116,462,o),
(116,556,cs),
(116,638,o),
(174,698,o),
(266,698,cs),
(354,698,o),
(402,644,o),
(424,602,c),
(452,614,l),
(428,666,o),
(368,728,o),
(266,728,cs),
(162,728,o),
(84,662,o),
(84,556,cs),
(84,446,o),
(174,394,o),
(274,356,cs),
(342,330,o),
(450,290,o),
(450,178,cs),
(450,82,o),
(368,22,o),
(276,22,cs),
(198,22,o),
(124,68,o),
(96,142,c),
(64,128,l),
(94,62,o),
(162,-8,o),
(274,-8,cs)
);
}
);
width = 546;
}
);
leftKerningGroup = LAT_S_UC;
rightKerningGroup = LAT_S_UC;
unicode = 83;
}
{
glyphname = T;
layers = (
{
anchors = (
{
name = bottom;
position = "{288, 0}";
},
{
name = cedilla;
position = "{288, 0}";
},
{
name = center;
position = "{288, 328}";
},
{
name = top;
position = "{288, 720}";
}
);
layerId = "6324EBA6-AEA3-4E83-9504-1204FE3965A0";
shapes = (
{
closed = 1;
nodes = (
(378,0,l),
(378,584,l),
(196,584,l),
(196,0,l)
);
},
{
closed = 1;
nodes = (
(546,560,l),
(546,720,l),
(28,720,l),
(28,560,l)
);
}
);
width = 574;
},
{
anchors = (
{
name = bottom;
position = "{273, 0}";
},
{
name = cedilla;
position = "{273, 0}";
},
{
name = center;
position = "{273, 344}";
},
{
name = top;
position = "{273, 720}";
}
);
layerId = "94997179-B2A0-4125-8E55-188F48EDA314";
shapes = (
{
closed = 1;
nodes = (
(326,0,l),
(326,641,l),
(219,641,l),
(219,0,l)
);
},
{
closed = 1;
nodes = (
(512,625,l),
(512,720,l),
(32,720,l),
(32,625,l)
);
}
);
width = 544;
},
{
anchors = (
{
name = bottom;
position = "{258, 0}";
},
{
name = cedilla;
position = "{258, 0}";
},
{
name = center;
position = "{258, 360}";
},
{
name = top;
position = "{258, 720}";
}
);
layerId = "DBC57AB7-6BBF-4709-9065-B7AB4DBB4D97";
shapes = (
{
closed = 1;
nodes = (
(274,0,l),
(274,698,l),
(242,698,l),
(242,0,l)
);
},
{
closed = 1;
nodes = (
(478,690,l),
(478,720,l),
(36,720,l),
(36,690,l)
);
}
);
width = 514;
}
);
leftKerningGroup = LAT_T_UC;
rightKerningGroup = LAT_T_UC;
unicode = 84;
}
{
glyphname = U;
layers = (
{
anchors = (
{
name = bottom;
position = "{364, 0}";
},
{
name = horn;
position = "{612, 720}";
},
{
name = ogonek;
position = "{364, 0}";
},
{
name = top;
position = "{364, 720}";
}
);
layerId = "3717EFD3-6B64-4297-9C46-7E4C78651CC4";
shapes = (
{
closed = 1;
nodes = (
(72,286,ls),
(72,108,o),
(186,-8,o),
(364,-8,cs),
(542,-8,o),
(656,108,o),
(656,286,cs),
(656,720,l),
(476,720,l),
(476,270,ls),
(476,198,o),
(432,152,o),
(364,152,cs),
(298,152,o),
(252,196,o),
(252,270,cs),
(252,720,l),
(72,720,l)
);
}
);
width = 728;
},
{
anchors = (
{
name = bottom;
position = "{350, 0}";
},
{
name = horn;
position = "{583, 720}";
},
{
name = ogonek;
position = "{350, 0}";
},
{
name = top;
position = "{350, 720}";
}
);
layerId = "50A05132-A89A-4BC5-B81A-F4657F37FF17";
shapes = (
{
closed = 1;
nodes = (
(86,259,ls),
(86,97,o),
(190,-8,o),
(350,-8,cs),
(511,-8,o),
(614,97,o),
(614,259,cs),
(614,720,l),
(508,720,l),
(508,255,ls),
(508,152,o),
(446,87,o),
(350,87,cs),
(256,87,o),
(192,151,o),
(192,255,cs),
(192,720,l),
(86,720,l)
);
}
);
width = 700;
},
{
anchors = (
{
name = bottom;
position = "{336, 0}";
},
{
name = horn;
position = "{554, 720}";
},
{
name = ogonek;
position = "{336, 0}";
},
{
name = top;
position = "{336, 720}";
}
);
layerId = "10DD257C-652B-4320-8EE1-77E209923FFD";
shapes = (
{
closed = 1;
nodes = (
(100,232,ls),
(100,86,o),
(194,-8,o),
(336,-8,cs),
(480,-8,o),
(572,86,o),
(572,232,cs),
(572,720,l),
(540,720,l),
(540,240,ls),
(540,106,o),
(460,22,o),
(336,22,cs),
(214,22,o),
(132,106,o),
(132,240,cs),
(132,720,l),
(100,720,l)
);
}
);
width = 672;
}
);
leftKerningGroup = LAT_U_UC;
rightKerningGroup = LAT_U_UC;
unicode = 85;
}
{
glyphname = V;
layers = (
{
anchors = (
{
name = bottom;
position = "{376, 0}";
},
{
name = top;
position = "{374, 720}";
}
);
layerId = "577C2F50-0FC2-4837-984D-4FA1DCF6681B";
shapes = (
{
closed = 1;
nodes = (
(452,0,l),
(744,720,l),
(546,720,l),
(442,438,l),
(376,242,l),
(372,242,l),
(304,438,l),
(200,720,l),
(4,720,l),
(300,0,l)
);
}
);
width = 748;
},
{
anchors = (
{
name = bottom;
position = "{354, 0}";
},
{
name = top;
position = "{350, 720}";
}
);
layerId = "E6E1701F-FDD6-4B99-AB09-C7A03B8D4814";
shapes = (
{
closed = 1;
nodes = (
(394,0,l),
(690,720,l),
(574,720,l),
(440,366,l),
(354,152,l),
(350,152,l),
(262,366,l),
(128,720,l),
(12,720,l),
(310,0,l)
);
}
);
width = 702;
},
{
anchors = (
{
name = bottom;
position = "{344, 0}";
},
{
name = top;
position = "{340, 720}";
}
);
layerId = "DBF002CB-ACA5-4984-BB80-D7F3ACD5E203";
shapes = (
{
closed = 1;
nodes = (
(356,0,l),
(652,720,l),
(616,720,l),
(444,294,l),
(344,40,l),
(340,40,l),
(240,294,l),
(68,720,l),
(32,720,l),
(328,0,l)
);
}
);
width = 684;
}
);
leftKerningGroup = LAT_V_UC;
rightKerningGroup = LAT_V_UC;
unicode = 86;
}
{
color = 9;
glyphname = W;
layers = (
{
anchors = (
{
name = bottom;
position = "{496, -24}";
},
{
name = top;
position = "{492, 744}";
}
);
layerId = "6324EBA6-AEA3-4E83-9504-1204FE3965A0";
shapes = (
{
closed = 1;
nodes = (
(180,0,l),
(354,0,l),
(436,236,l),
(492,396,l),
(496,396,l),
(550,236,l),
(634,0,l),
(806,0,l),
(974,720,l),
(790,720,l),
(736,432,l),
(706,240,l),
(700,240,l),
(652,396,l),
(544,720,l),
(442,720,l),
(336,398,l),
(286,240,l),
(282,240,l),
(250,432,l),
(198,720,l),
(12,720,l)
);
}
);
width = 986;
},
{
anchors = (
{
name = bottom;
position = "{472, 0}";
},
{
name = top;
position = "{472, 720}";
}
);
layerId = "94997179-B2A0-4125-8E55-188F48EDA314";
shapes = (
{
closed = 1;
nodes = (
(224,0,l),
(320,0,l),
(386,214,l),
(470,494,l),
(474,494,l),
(560,214,l),
(624,0,l),
(722,0,l),
(924,720,l),
(818,720,l),
(720,350,l),
(676,164,l),
(672,164,l),
(612,364,l),
(502,720,l),
(444,720,l),
(332,364,l),
(274,164,l),
(270,164,l),
(226,350,l),
(128,720,l),
(20,720,l)
);
}
);
width = 946;
},
{
anchors = (
{
name = bottom;
position = "{458, -24}";
},
{
name = top;
position = "{454, 754}";
}
);
layerId = "DBC57AB7-6BBF-4709-9065-B7AB4DBB4D97";
shapes = (
{
closed = 1;
nodes = (
(228,0,l),
(270,0,l),
(350,292,l),
(450,658,l),
(454,658,l),
(554,292,l),
(636,0,l),
(676,0,l),
(872,720,l),
(838,720,l),
(724,290,l),
(658,40,l),
(654,40,l),
(586,290,l),
(466,720,l),
(438,720,l),
(318,290,l),
(250,40,l),
(246,40,l),
(180,290,l),
(66,720,l),
(32,720,l)
);
}
);
width = 904;
}
);
leftKerningGroup = LAT_W_UC;
rightKerningGroup = LAT_W_UC;
unicode = 87;
}
{
glyphname = X;
layers = (
{
anchors = (
{
name = bottom;
position = "{384, 0}";
},
{
name = top;
position = "{384, 720}";
}
);
layerId = "3717EFD3-6B64-4297-9C46-7E4C78651CC4";
shapes = (
{
closed = 1;
nodes = (
(240,0,l),
(382,226,l),
(386,226,l),
(508,360,l),
(508,362,l),
(736,720,l),
(526,720,l),
(384,476,l),
(380,476,l),
(260,360,l),
(260,358,l),
(28,0,l)
);
},
{
closed = 1;
nodes = (
(740,0,l),
(508,358,l),
(508,360,l),
(386,476,l),
(382,476,l),
(240,720,l),
(32,720,l),
(260,362,l),
(260,360,l),
(380,226,l),
(384,226,l),
(526,0,l)
);
}
);
width = 768;
},
{
anchors = (
{
name = bottom;
position = "{347, 0}";
},
{
name = top;
position = "{347, 720}";
}
);
layerId = "50A05132-A89A-4BC5-B81A-F4657F37FF17";
shapes = (
{
closed = 1;
nodes = (
(163,0,l),
(346,281,l),
(351,281,l),
(420,358,l),
(420,361,l),
(656,720,l),
(533,720,l),
(349,430,l),
(344,430,l),
(276,361,l),
(276,358,l),
(38,0,l)
);
},
{
closed = 1;
nodes = (
(658,0,l),
(420,358,l),
(420,361,l),
(351,430,l),
(346,430,l),
(162,720,l),
(40,720,l),
(276,361,l),
(276,358,l),
(344,281,l),
(349,281,l),
(532,0,l)
);
}
);
width = 696;
},
{
anchors = (
{
name = bottom;
position = "{310, 0}";
},
{
name = top;
position = "{310, 720}";
}
);
layerId = "10DD257C-652B-4320-8EE1-77E209923FFD";
shapes = (
{
closed = 1;
nodes = (
(86,0,l),
(310,336,l),
(316,336,l),
(332,356,l),
(332,360,l),
(576,720,l),
(540,720,l),
(314,384,l),
(308,384,l),
(292,362,l),
(292,358,l),
(48,0,l)
);
},
{
closed = 1;
nodes = (
(576,0,l),
(332,358,l),
(332,362,l),
(316,384,l),
(310,384,l),
(84,720,l),
(48,720,l),
(292,360,l),
(292,356,l),
(308,336,l),
(314,336,l),
(538,0,l)
);
}
);
width = 624;
}
);
leftKerningGroup = LAT_X_UC;
rightKerningGroup = LAT_X_UC;
unicode = 88;
}
{
glyphname = Y;
layers = (
{
anchors = (
{
name = bottom;
position = "{342, 0}";
},
{
name = top;
position = "{342, 720}";
}
);
layerId = "577C2F50-0FC2-4837-984D-4FA1DCF6681B";
shapes = (
{
closed = 1;
nodes = (
(252,0,l),
(432,0,l),
(432,270,l),
(680,720,l),
(474,720,l),
(410,590,l),
(344,442,l),
(340,442,l),
(274,590,l),
(210,720,l),
(4,720,l),
(252,270,l)
);
}
);
width = 684;
},
{
anchors = (
{
name = bottom;
position = "{320, 0}";
},
{
name = top;
position = "{320, 720}";
}
);
layerId = "E6E1701F-FDD6-4B99-AB09-C7A03B8D4814";
shapes = (
{
closed = 1;
nodes = (
(267,0,l),
(373,0,l),
(373,301,l),
(622,720,l),
(501,720,l),
(402,550,l),
(322,404,l),
(318,404,l),
(238,550,l),
(139,720,l),
(18,720,l),
(267,301,l)
);
}
);
width = 640;
},
{
anchors = (
{
name = bottom;
position = "{298, 0}";
},
{
name = top;
position = "{298, 720}";
}
);
layerId = "DBF002CB-ACA5-4984-BB80-D7F3ACD5E203";
shapes = (
{
closed = 1;
nodes = (
(282,0,l),
(314,0,l),
(314,332,l),
(564,720,l),
(528,720,l),
(394,510,l),
(300,366,l),
(296,366,l),
(202,510,l),
(68,720,l),
(32,720,l),
(282,332,l)
);
}
);
width = 596;
}
);
leftKerningGroup = LAT_Y_UC;
rightKerningGroup = LAT_Y_UC;
unicode = 89;
}
{
glyphname = Z;
layers = (
{
anchors = (
{
name = bottom;
position = "{314, 0}";
},
{
name = top;
position = "{314, 720}";
}
);
layerId = "6324EBA6-AEA3-4E83-9504-1204FE3965A0";
shapes = (
{
closed = 1;
nodes = (
(36,0,l),
(592,0,l),
(592,158,l),
(300,158,l),
(300,160,l),
(584,694,l),
(584,720,l),
(50,720,l),
(50,562,l),
(322,562,l),
(322,560,l),
(36,24,l)
);
}
);
width = 628;
},
{
anchors = (
{
name = bottom;
position = "{316, 0}";
},
{
name = top;
position = "{314, 720}";
}
);
layerId = "94997179-B2A0-4125-8E55-188F48EDA314";
shapes = (
{
closed = 1;
nodes = (
(52,0,l),
(565,0,l),
(565,94,l),
(206,94,l),
(206,96,l),
(556,698,l),
(556,720,l),
(72,720,l),
(72,626,l),
(403,626,l),
(403,624,l),
(52,21,l)
);
}
);
width = 617;
},
{
anchors = (
{
name = bottom;
position = "{318, 0}";
},
{
name = top;
position = "{314, 720}";
}
);
layerId = "DBC57AB7-6BBF-4709-9065-B7AB4DBB4D97";
shapes = (
{
closed = 1;
nodes = (
(68,0,l),
(538,0,l),
(538,30,l),
(112,30,l),
(112,32,l),
(528,702,l),
(528,720,l),
(94,720,l),
(94,690,l),
(484,690,l),
(484,688,l),
(68,18,l)
);
}
);
width = 606;
}
);
leftKerningGroup = LAT_Z_UC;
rightKerningGroup = LAT_Z_UC;
unicode = 90;
}
{
glyphname = bracketleft;
layers = (
{
layerId = "6324EBA6-AEA3-4E83-9504-1204FE3965A0";
shapes = (
{
closed = 1;
nodes = (
(86,-146,l),
(324,-146,l),
(324,-30,l),
(218,-30,l),
(218,698,l),
(324,698,l),
(324,812,l),
(86,812,l)
);
}
);
width = 380;
},
{
layerId = "94997179-B2A0-4125-8E55-188F48EDA314";
shapes = (
{
closed = 1;
nodes = (
(89,-146,l),
(288,-146,l),
(288,-74,l),
(171,-74,l),
(171,741,l),
(288,741,l),
(288,812,l),
(89,812,l)
);
}
);
width = 332;
},
{
layerId = "DBC57AB7-6BBF-4709-9065-B7AB4DBB4D97";
shapes = (
{
closed = 1;
nodes = (
(92,-146,l),
(252,-146,l),
(252,-118,l),
(124,-118,l),
(124,784,l),
(252,784,l),
(252,812,l),
(92,812,l)
);
}
);
width = 284;
}
);
rightKerningGroup = PCT_BRACELEFT;
unicode = 91;
}
{
glyphname = bracketright;
layers = (
{
layerId = "577C2F50-0FC2-4837-984D-4FA1DCF6681B";
shapes = (
{
closed = 1;
nodes = (
(294,-146,l),
(294,812,l),
(56,812,l),
(56,696,l),
(162,696,l),
(162,-32,l),
(56,-32,l),
(56,-146,l)
);
}
);
width = 380;
},
{
layerId = "E6E1701F-FDD6-4B99-AB09-C7A03B8D4814";
shapes = (
{
closed = 1;
nodes = (
(243,-146,l),
(243,812,l),
(44,812,l),
(44,741,l),
(161,741,l),
(161,-74,l),
(44,-74,l),
(44,-146,l)
);
}
);
width = 332;
},
{
layerId = "DBF002CB-ACA5-4984-BB80-D7F3ACD5E203";
shapes = (
{
closed = 1;
nodes = (
(192,-146,l),
(192,812,l),
(32,812,l),
(32,784,l),
(160,784,l),
(160,-118,l),
(32,-118,l),
(32,-146,l)
);
}
);
width = 284;
}
);
leftKerningGroup = PCT_BRACERIGHT;
rightKerningGroup = LAT_H_UC;
unicode = 93;
}
{
glyphname = asciicircum;
layers = (
{
layerId = "577C2F50-0FC2-4837-984D-4FA1DCF6681B";
shapes = (
{
closed = 1;
nodes = (
(42,364,l),
(194,364,l),
(222,466,l),
(274,614,l),
(278,614,l),
(328,466,l),
(358,364,l),
(510,364,l),
(340,764,l),
(212,764,l)
);
}
);
width = 552;
},
{
layerId = "E6E1701F-FDD6-4B99-AB09-C7A03B8D4814";
shapes = (
{
closed = 1;
nodes = (
(57,361,l),
(149,361,l),
(205,526,l),
(257,672,l),
(261,672,l),
(312,526,l),
(368,361,l),
(461,361,l),
(301,762,l),
(217,762,l)
);
}
);
width = 518;
},
{
layerId = "DBF002CB-ACA5-4984-BB80-D7F3ACD5E203";
shapes = (
{
closed = 1;
nodes = (
(72,358,l),
(104,358,l),
(188,586,l),
(240,730,l),
(244,730,l),
(296,586,l),
(378,358,l),
(412,358,l),
(262,760,l),
(222,760,l)
);
}
);
width = 484;
}
);
unicode = 94;
}
{
glyphname = underscore;
layers = (
{
layerId = "3717EFD3-6B64-4297-9C46-7E4C78651CC4";
shapes = (
{
closed = 1;
nodes = (
(20,-146,l),
(506,-146,l),
(506,-42,l),
(20,-42,l)
);
}
);
width = 526;
},
{
layerId = "50A05132-A89A-4BC5-B81A-F4657F37FF17";
shapes = (
{
closed = 1;
nodes = (
(20,-146,l),
(506,-146,l),
(506,-79,l),
(20,-79,l)
);
}
);
width = 526;
},
{
layerId = "10DD257C-652B-4320-8EE1-77E209923FFD";
shapes = (
{
closed = 1;
nodes = (
(20,-146,l),
(506,-146,l),
(506,-116,l),
(20,-116,l)
);
}
);
width = 526;
}
);
leftKerningGroup = PCT_UNDERSCORE;
rightKerningGroup = PCT_UNDERSCORE;
unicode = 95;
}
{
glyphname = a;
layers = (
{
anchors = (
{
name = bottom;
position = "{282, 0}";
},
{
name = ogonek;
position = "{422, 0}";
},
{
name = top;
position = "{292, 528}";
}
);
layerId = "6324EBA6-AEA3-4E83-9504-1204FE3965A0";
shapes = (
{
closed = 1;
nodes = (
(280,-8,o),
(342,20,o),
(368,64,c),
(378,64,l),
(359,165,l),
(342,135,o),
(307,116,o),
(269,116,cs),
(231,116,o),
(206,135,o),
(206,164,cs),
(206,193,o),
(230,203,o),
(266,207,cs),
(310,211,o),
(346,226,o),
(349,238,c),
(350,238,l),
(350,150,l),
(370,64,l),
(370,0,l),
(514,0,l),
(514,348,ls),
(514,471,o),
(436,536,o),
(289,536,cs),
(207,536,o),
(120,516,o),
(68,486,c),
(126,358,l),
(162,381,o),
(224,398,o),
(277,398,cs),
(317,398,o),
(346,388,o),
(346,358,cs),
(346,326,o),
(315,313,o),
(253,309,cs),
(120,299,o),
(38,243,o),
(36,144,c),
(38,53,o),
(108,-8,o),
(211,-8,cs)
);
}
);
width = 570;
},
{
anchors = (
{
name = bottom;
position = "{272, 0}";
},
{
name = ogonek;
position = "{414, 0}";
},
{
name = top;
position = "{272, 520}";
}
);
layerId = "94997179-B2A0-4125-8E55-188F48EDA314";
shapes = (
{
closed = 1;
nodes = (
(278,-8,o),
(342,22,o),
(374,69,c),
(383,69,l),
(373,157,l),
(344,106,o),
(298,77,o),
(245,76,c),
(192,77,o),
(154,109,o),
(154,153,cs),
(154,196,o),
(187,215,o),
(272,227,cs),
(318,234,o),
(351,248,o),
(363,262,c),
(364,262,l),
(364,140,l),
(376,73,l),
(376,0,l),
(472,0,l),
(472,342,ls),
(472,467,o),
(408,529,o),
(279,529,cs),
(205,529,o),
(122,508,o),
(73,477,c),
(113,391,l),
(151,418,o),
(216,437,o),
(267,437,cs),
(328,437,o),
(362,411,o),
(362,364,cs),
(362,325,o),
(339,314,o),
(267,307,cs),
(120,293,o),
(44,234,o),
(43,142,c),
(44,54,o),
(113,-8,o),
(210,-8,cs)
);
}
);
width = 532;
},
{
anchors = (
{
name = bottom;
position = "{244, 0}";
},
{
name = ogonek;
position = "{406, 0}";
},
{
name = top;
position = "{244, 512}";
}
);
layerId = "DBC57AB7-6BBF-4709-9065-B7AB4DBB4D97";
shapes = (
{
closed = 1;
nodes = (
(276,-8,o),
(341,24,o),
(382,75,c),
(391,75,l),
(393,147,l),
(346,65,o),
(286,22,o),
(212,20,c),
(138,22,o),
(82,73,o),
(82,139,cs),
(82,218,o),
(164,244,o),
(280,264,cs),
(335,274,o),
(360,281,o),
(383,295,c),
(384,295,l),
(384,125,l),
(384,86,l),
(384,0,l),
(414,0,l),
(414,334,ls),
(414,463,o),
(365,520,o),
(263,520,cs),
(195,520,o),
(119,495,o),
(80,464,c),
(94,438,l),
(131,468,o),
(200,492,o),
(259,492,cs),
(339,492,o),
(384,449,o),
(384,370,cs),
(384,320,o),
(366,305,o),
(275,293,cs),
(145,275,o),
(52,237,o),
(52,139,cs),
(52,55,o),
(121,-8,o),
(212,-8,cs)
);
}
);
width = 494;
}
);
leftKerningGroup = LAT_ASS02_LC;
rightKerningGroup = LAT_A_LC;
unicode = 97;
}
{
glyphname = b;
layers = (
{
anchors = (
{
name = bottom;
position = "{324, 0}";
},
{
name = center;
position = "{146, 634}";
},
{
name = top;
position = "{398, 568}";
}
);
layerId = "3717EFD3-6B64-4297-9C46-7E4C78651CC4";
shapes = (
{
closed = 1;
nodes = (
(60,0,l),
(224,0,l),
(224,62,l),
(246,62,l),
(228,110,l),
(228,398,l),
(246,480,l),
(234,480,l),
(234,752,l),
(60,752,l)
);
},
{
closed = 1;
nodes = (
(486,-8,o),
(608,74,o),
(606,262,cs),
(608,446,o),
(488,536,o),
(372,536,cs),
(236,536,o),
(142,414,o),
(142,270,cs),
(142,120,o),
(244,-8,o),
(378,-8,cs)
);
},
{
closed = 1;
nodes = (
(274,136,o),
(230,185,o),
(230,266,cs),
(230,345,o),
(272,392,o),
(332,392,cs),
(394,392,o),
(438,345,o),
(438,266,cs),
(438,185,o),
(396,136,o),
(336,136,cs)
);
}
);
width = 636;
},
{
anchors = (
{
name = bottom;
position = "{310, 0}";
},
{
name = center;
position = "{122, 626}";
},
{
name = top;
position = "{358, 566}";
}
);
layerId = "50A05132-A89A-4BC5-B81A-F4657F37FF17";
shapes = (
{
closed = 1;
nodes = (
(72,0,l),
(174,0,l),
(174,60,l),
(192,60,l),
(168,116,l),
(168,408,l),
(182,460,l),
(174,460,l),
(174,720,l),
(72,720,l)
);
},
{
closed = 1;
nodes = (
(454,-8,o),
(568,96,o),
(568,260,cs),
(568,424,o),
(454,528,o),
(330,528,cs),
(198,528,o),
(104,410,o),
(104,262,cs),
(104,112,o),
(198,-8,o),
(330,-8,cs)
);
},
{
closed = 1;
nodes = (
(230,84,o),
(168,158,o),
(168,262,cs),
(168,364,o),
(230,436,o),
(314,436,cs),
(402,436,o),
(464,360,o),
(464,262,cs),
(464,162,o),
(402,84,o),
(314,84,cs)
);
}
);
width = 612;
},
{
anchors = (
{
name = bottom;
position = "{296, 0}";
},
{
name = center;
position = "{98, 616}";
},
{
name = top;
position = "{320, 564}";
}
);
layerId = "10DD257C-652B-4320-8EE1-77E209923FFD";
shapes = (
{
closed = 1;
nodes = (
(84,0,l),
(114,0,l),
(114,116,l),
(124,116,l),
(112,132,l),
(112,364,l),
(120,394,l),
(114,394,l),
(114,752,l),
(84,752,l)
);
},
{
closed = 1;
nodes = (
(442,-8,o),
(532,92,o),
(532,256,cs),
(532,422,o),
(444,520,o),
(308,520,cs),
(186,520,o),
(86,438,o),
(86,258,cs),
(86,78,o),
(188,-8,o),
(308,-8,cs)
);
},
{
closed = 1;
nodes = (
(194,20,o),
(114,120,o),
(114,256,cs),
(114,416,o),
(206,492,o),
(310,492,cs),
(422,492,o),
(502,404,o),
(502,256,cs),
(502,112,o),
(420,20,o),
(310,20,cs)
);
}
);
width = 586;
}
);
leftKerningGroup = LAT_H_UC;
rightKerningGroup = LAT_O_LC;
unicode = 98;
}
{
glyphname = c;
layers = (
{
anchors = (
{
name = base;
position = "{428, 0}";
},
{
name = bottom;
position = "{314, 0}";
},
{
name = cedilla;
position = "{320, 0}";
},
{
name = top;
position = "{320, 528}";
}
);
layerId = "577C2F50-0FC2-4837-984D-4FA1DCF6681B";
shapes = (
{
closed = 1;
nodes = (
(384,-6,o),
(440,12,o),
(478,34,c),
(416,176,l),
(394,156,o),
(356,142,o),
(318,142,cs),
(244,142,o),
(196,198,o),
(196,266,cs),
(196,336,o),
(246,388,o),
(318,388,cs),
(356,388,o),
(388,374,o),
(414,350,c),
(478,488,l),
(432,518,o),
(374,536,o),
(314,536,cs),
(164,536,o),
(32,422,o),
(32,266,cs),
(32,112,o),
(162,-6,o),
(322,-6,cs)
);
}
);
width = 498;
},
{
anchors = (
{
name = base;
position = "{416, 0}";
},
{
name = bottom;
position = "{301, 0}";
},
{
name = cedilla;
position = "{308, 0}";
},
{
name = top;
position = "{304, 520}";
}
);
layerId = "E6E1701F-FDD6-4B99-AB09-C7A03B8D4814";
shapes = (
{
closed = 1;
nodes = (
(366,-6,o),
(428,12,o),
(470,44,c),
(432,132,l),
(406,106,o),
(353,86,o),
(312,86,cs),
(214,86,o),
(148,162,o),
(148,262,cs),
(148,366,o),
(220,436,o),
(310,436,cs),
(352,436,o),
(405,417,o),
(430,394,c),
(468,478,l),
(426,508,o),
(366,528,o),
(304,528,cs),
(164,528,o),
(44,418,o),
(44,262,cs),
(44,110,o),
(158,-6,o),
(308,-6,cs)
);
}
);
width = 502;
},
{
anchors = (
{
name = base;
position = "{404, 0}";
},
{
name = bottom;
position = "{288, 0}";
},
{
name = cedilla;
position = "{296, 0}";
},
{
name = top;
position = "{288, 512}";
}
);
layerId = "DBF002CB-ACA5-4984-BB80-D7F3ACD5E203";
shapes = (
{
closed = 1;
nodes = (
(358,-6,o),
(416,14,o),
(460,52,c),
(446,82,l),
(418,50,o),
(362,24,o),
(300,24,cs),
(184,24,o),
(86,124,o),
(86,258,cs),
(86,394,o),
(190,492,o),
(302,492,cs),
(344,492,o),
(410,474,o),
(444,438,c),
(458,468,l),
(416,500,o),
(356,520,o),
(302,520,cs),
(174,520,o),
(56,412,o),
(56,258,cs),
(56,106,o),
(168,-6,o),
(298,-6,cs)
);
}
);
width = 504;
}
);
leftKerningGroup = LAT_O_LC;
rightKerningGroup = LAT_C_LC;
unicode = 99;
}
{
glyphname = e;
layers = (
{
anchors = (
{
name = bottom;
position = "{312, 0}";
},
{
name = cedilla;
position = "{316, 0}";
},
{
name = ogonek;
position = "{490, 34}";
},
{
name = top;
position = "{298, 528}";
}
);
layerId = "6324EBA6-AEA3-4E83-9504-1204FE3965A0";
shapes = (
{
closed = 1;
nodes = (
(388,-8,o),
(452,10,o),
(490,34,c),
(438,158,l),
(420,144,o),
(362,128,o),
(318,128,cs),
(240,128,o),
(180,182,o),
(180,268,cs),
(180,338,o),
(220,400,o),
(298,400,cs),
(348,400,o),
(386,374,o),
(386,314,c),
(168,314,l),
(168,210,l),
(538,210,l),
(542,224,o),
(546,254,o),
(546,284,cs),
(546,428,o),
(442,536,o),
(298,536,cs),
(154,536,o),
(34,428,o),
(32,262,c),
(32,104,o),
(142,-8,o),
(318,-8,cs)
);
}
);
width = 574;
},
{
anchors = (
{
name = bottom;
position = "{298, 0}";
},
{
name = cedilla;
position = "{294, 0}";
},
{
name = ogonek;
position = "{470, 40}";
},
{
name = top;
position = "{288, 520}";
}
);
layerId = "94997179-B2A0-4125-8E55-188F48EDA314";
shapes = (
{
closed = 1;
nodes = (
(366,-8,o),
(428,10,o),
(470,40,c),
(432,130,l),
(404,104,o),
(360,80,o),
(302,80,cs),
(204,80,o),
(138,154,o),
(138,262,cs),
(138,366,o),
(198,440,o),
(288,440,cs),
(372,440,o),
(424,374,o),
(422,302,c),
(118,302,l),
(118,222,l),
(510,222,l),
(512,232,o),
(516,258,o),
(516,286,cs),
(516,426,o),
(422,528,o),
(286,528,cs),
(148,528,o),
(44,420,o),
(44,262,cs),
(44,98,o),
(154,-8,o),
(304,-8,cs)
);
}
);
width = 560;
},
{
anchors = (
{
name = bottom;
position = "{290, 0}";
},
{
name = cedilla;
position = "{284, 0}";
},
{
name = ogonek;
position = "{436, 38}";
},
{
name = top;
position = "{286, 512}";
}
);
layerId = "DBC57AB7-6BBF-4709-9065-B7AB4DBB4D97";
shapes = (
{
closed = 1;
nodes = (
(362,-8,o),
(423,22,o),
(462,58,c),
(450,86,l),
(406,48,o),
(354,22,o),
(288,20,c),
(166,22,o),
(86,114,o),
(86,254,cs),
(86,402,o),
(176,492,o),
(286,492,cs),
(398,492,o),
(472,398,o),
(468,274,c),
(80,274,l),
(80,246,l),
(500,246,l),
(500,260,o),
(500,272,o),
(500,284,cs),
(500,420,o),
(414,520,o),
(286,520,cs),
(156,520,o),
(56,418,o),
(56,254,cs),
(56,100,o),
(150,-8,o),
(290,-8,cs)
);
}
);
width = 554;
}
);
leftKerningGroup = LAT_O_LC;
rightKerningGroup = LAT_E_LC;
unicode = 101;
}
{
glyphname = f;
layers = (
{
anchors = (
{
name = bottom;
position = "{212, 0}";
},
{
name = top;
position = "{284, 752}";
}
);
layerId = "6324EBA6-AEA3-4E83-9504-1204FE3965A0";
shapes = (
{
closed = 1;
nodes = (
(292,0,l),
(292,526,ls),
(292,568,o),
(316,586,o),
(350,586,cs),
(362,586,o),
(376,584,o),
(390,580,c),
(446,720,l),
(415,733,o),
(365,738,o),
(320,738,cs),
(184,738,o),
(118,652,o),
(118,530,cs),
(118,0,l)
);
},
{
closed = 1;
nodes = (
(418,380,l),
(418,528,l),
(20,528,l),
(20,380,l)
);
}
);
width = 458;
},
{
anchors = (
{
name = bottom;
position = "{180, 0}";
},
{
name = top;
position = "{270, 752}";
}
);
layerId = "94997179-B2A0-4125-8E55-188F48EDA314";
shapes = (
{
closed = 1;
nodes = (
(228,0,l),
(228,572,ls),
(228,620,o),
(258,642,o),
(296,642,cs),
(308,642,o),
(320,640,o),
(332,634,c),
(368,720,l),
(342,730,o),
(318,736,o),
(286,736,cs),
(184,736,o),
(126,674,o),
(126,584,cs),
(126,0,l)
);
},
{
closed = 1;
nodes = (
(352,430,l),
(352,520,l),
(34,520,l),
(32,430,l)
);
}
);
width = 392;
},
{
anchors = (
{
name = bottom;
position = "{152, 0}";
},
{
name = top;
position = "{244, 752}";
}
);
layerId = "DBC57AB7-6BBF-4709-9065-B7AB4DBB4D97";
shapes = (
{
closed = 1;
nodes = (
(164,0,l),
(164,590,ls),
(164,648,o),
(192,702,o),
(254,702,cs),
(270,702,o),
(286,700,o),
(300,694,c),
(312,720,l),
(294,728,o),
(276,730,o),
(256,730,cs),
(172,730,o),
(134,666,o),
(134,584,cs),
(134,0,l)
);
},
{
closed = 1;
nodes = (
(298,484,l),
(298,512,l),
(48,512,l),
(48,484,l)
);
}
);
width = 348;
}
);
leftKerningGroup = LAT_F_LC;
rightKerningGroup = LAT_F_LC;
unicode = 102;
}
{
color = 7;
glyphname = g;
layers = (
{
anchors = (
{
name = bottom;
position = "{315, -218}";
},
{
name = top;
position = "{305, 528}";
}
);
layerId = "577C2F50-0FC2-4837-984D-4FA1DCF6681B";
shapes = (
{
closed = 1;
nodes = (
(505,-214,o),
(605,-148,o),
(605,-40,cs),
(605,48,o),
(537,102,o),
(427,102,cs),
(305,102,ls),
(249,102,o),
(205,120,o),
(205,154,cs),
(205,174,o),
(217,188,o),
(231,194,c),
(173,246,l),
(113,218,o),
(91,154,o),
(91,118,cs),
(91,40,o),
(187,-4,o),
(321,-4,cs),
(381,-4,ls),
(419,-4,o),
(445,-20,o),
(445,-42,cs),
(445,-70,o),
(397,-88,o),
(325,-88,cs),
(253,-88,o),
(177,-70,o),
(177,-28,cs),
(177,-4,o),
(199,20,o),
(227,28,c),
(131,62,l),
(83,50,o),
(39,-10,o),
(39,-68,cs),
(39,-156,o),
(139,-214,o),
(317,-214,cs)
);
},
{
closed = 1;
nodes = (
(439,150,o),
(535,232,o),
(535,344,cs),
(535,456,o),
(437,536,o),
(303,536,cs),
(173,536,o),
(77,460,o),
(77,350,cs),
(77,236,o),
(177,150,o),
(309,150,cs)
);
},
{
closed = 1;
nodes = (
(261,266,o),
(225,298,o),
(225,342,cs),
(225,382,o),
(261,416,o),
(305,416,cs),
(353,416,o),
(387,382,o),
(387,340,cs),
(387,298,o),
(355,266,o),
(307,266,cs)
);
},
{
closed = 1;
nodes = (
(477,430,l),
(487,446,ls),
(503,471,o),
(547,475,o),
(601,472,c),
(601,598,l),
(531,598,o),
(468,570,o),
(433,522,cs),
(397,474,l)
);
}
);
width = 636;
},
{
anchors = (
{
name = bottom;
position = "{299, -216}";
},
{
name = top;
position = "{288, 519}";
}
);
layerId = "E6E1701F-FDD6-4B99-AB09-C7A03B8D4814";
shapes = (
{
closed = 1;
nodes = (
(468,-214,o),
(571,-146,o),
(571,-45,cs),
(571,35,o),
(507,85,o),
(402,85,cs),
(274,85,ls),
(214,85,o),
(168,110,o),
(168,154,cs),
(168,176,o),
(181,194,o),
(195,202,c),
(153,242,l),
(110,219,o),
(89,169,o),
(89,133,cs),
(89,63,o),
(164,12,o),
(284,12,cs),
(378,12,ls),
(431,12,o),
(464,-12,o),
(464,-46,cs),
(464,-93,o),
(401,-129,o),
(307,-129,cs),
(218,-129,o),
(142,-98,o),
(142,-45,cs),
(142,-9,o),
(173,27,o),
(206,38,c),
(139,65,l),
(91,48,o),
(50,-12,o),
(50,-69,cs),
(50,-155,o),
(144,-214,o),
(301,-214,cs)
);
},
{
closed = 1;
nodes = (
(420,155,o),
(510,234,o),
(510,343,cs),
(510,452,o),
(420,529,o),
(291,529,cs),
(167,529,o),
(77,456,o),
(77,348,cs),
(77,236,o),
(170,155,o),
(296,155,cs)
);
},
{
closed = 1;
nodes = (
(228,235,o),
(177,280,o),
(177,342,cs),
(177,403,o),
(228,447,o),
(292,447,cs),
(361,447,o),
(410,403,o),
(410,341,cs),
(410,280,o),
(362,235,o),
(294,235,cs)
);
},
{
closed = 1;
nodes = (
(458,440,l),
(471,459,ls),
(486,482,o),
(522,492,o),
(573,490,c),
(573,576,l),
(514,576,o),
(462,553,o),
(431,513,cs),
(403,475,l)
);
}
);
width = 608;
},
{
anchors = (
{
name = bottom;
position = "{287, -214}";
},
{
name = top;
position = "{275, 512}";
}
);
layerId = "DBF002CB-ACA5-4984-BB80-D7F3ACD5E203";
shapes = (
{
closed = 1;
nodes = (
(417,-214,o),
(523,-144,o),
(523,-52,cs),
(523,16,o),
(465,62,o),
(367,62,cs),
(231,62,ls),
(165,62,o),
(115,96,o),
(115,154,cs),
(115,180,o),
(131,202,o),
(145,214,c),
(125,236,l),
(107,220,o),
(87,190,o),
(87,154,cs),
(87,96,o),
(133,34,o),
(231,34,cs),
(375,34,ls),
(449,34,o),
(491,0,o),
(491,-52,cs),
(491,-126,o),
(407,-186,o),
(281,-186,cs),
(169,-186,o),
(93,-138,o),
(93,-68,cs),
(93,-16,o),
(137,36,o),
(177,52,c),
(151,70,l),
(103,44,o),
(65,-14,o),
(65,-70,cs),
(65,-154,o),
(151,-214,o),
(279,-214,cs)
);
},
{
closed = 1;
nodes = (
(393,162,o),
(475,236,o),
(475,342,cs),
(475,446,o),
(397,520,o),
(275,520,cs),
(159,520,o),
(77,450,o),
(77,344,cs),
(77,236,o),
(161,162,o),
(277,162,cs)
);
},
{
closed = 1;
nodes = (
(181,190,o),
(109,254,o),
(109,342,cs),
(109,432,o),
(181,492,o),
(275,492,cs),
(373,492,o),
(443,432,o),
(443,342,cs),
(443,254,o),
(373,190,o),
(275,190,cs)
);
},
{
closed = 1;
nodes = (
(431,454,l),
(449,478,ls),
(463,497,o),
(488,516,o),
(533,516,c),
(533,544,l),
(490,545,o),
(453,528,o),
(429,500,c),
(411,476,l)
);
}
);
width = 588;
}
);
leftKerningGroup = LAT_G_LC;
rightKerningGroup = LAT_G_LC;
unicode = 103;
}
{
glyphname = h;
layers = (
{
anchors = (
{
name = bottom;
position = "{308, 0}";
},
{
name = center;
position = "{146, 634}";
},
{
name = top;
position = "{146, 752}";
}
);
layerId = "3717EFD3-6B64-4297-9C46-7E4C78651CC4";
shapes = (
{
closed = 1;
nodes = (
(234,0,l),
(234,308,ls),
(234,364,o),
(268,394,o),
(312,394,cs),
(356,394,o),
(384,366,o),
(384,310,cs),
(384,0,l),
(558,0,l),
(558,348,ls),
(558,464,o),
(492,536,o),
(382,536,cs),
(304,536,o),
(222,500,o),
(206,424,c),
(246,480,l),
(234,480,l),
(234,720,l),
(60,720,l),
(60,0,l)
);
}
);
width = 614;
},
{
anchors = (
{
name = bottom;
position = "{292, 0}";
},
{
name = center;
position = "{126, 624}";
},
{
name = top;
position = "{122, 752}";
}
);
layerId = "50A05132-A89A-4BC5-B81A-F4657F37FF17";
shapes = (
{
closed = 1;
nodes = (
(174,0,l),
(174,310,ls),
(174,394,o),
(230,436,o),
(298,436,cs),
(368,436,o),
(410,392,o),
(410,310,cs),
(410,0,l),
(512,0,l),
(512,332,ls),
(512,414,o),
(470,528,o),
(326,528,cs),
(248,528,o),
(180,496,o),
(152,426,c),
(196,466,l),
(174,466,l),
(174,720,l),
(72,720,l),
(72,0,l)
);
}
);
width = 580;
},
{
anchors = (
{
name = bottom;
position = "{276, 0}";
},
{
name = center;
position = "{100, 616}";
},
{
name = top;
position = "{102, 720}";
}
);
layerId = "10DD257C-652B-4320-8EE1-77E209923FFD";
shapes = (
{
closed = 1;
nodes = (
(114,0,l),
(114,326,ls),
(114,418,o),
(202,492,o),
(286,492,cs),
(422,492,o),
(436,386,o),
(436,306,cs),
(436,0,l),
(466,0,l),
(466,314,ls),
(466,440,o),
(412,520,o),
(292,520,cs),
(205,520,o),
(132,469,o),
(106,402,c),
(128,420,l),
(114,420,l),
(114,720,l),
(84,720,l),
(84,0,l)
);
}
);
width = 546;
}
);
leftKerningGroup = LAT_H_UC;
rightKerningGroup = LAT_N_LC;
unicode = 104;
}
{
glyphname = j;
layers = (
{
layerId = "6324EBA6-AEA3-4E83-9504-1204FE3965A0";
shapes = (
{
alignment = -1;
ref = jdotless;
},
{
pos = (22,0);
ref = dotaccentcomb;
}
);
width = 316;
},
{
anchors = (
{
name = center;
position = "{147, 278}";
},
{
name = top;
position = "{146, 705}";
}
);
layerId = "94997179-B2A0-4125-8E55-188F48EDA314";
shapes = (
{
closed = 1;
nodes = (
(148,-214,o),
(198,-148,o),
(198,-60,cs),
(198,520,l),
(94,520,l),
(94,-48,ls),
(94,-96,o),
(70,-118,o),
(28,-118,cs),
(16,-118,o),
(-2,-116,o),
(-16,-110,c),
(-16,-208,l),
(0,-212,o),
(16,-214,o),
(36,-214,cs)
);
},
{
closed = 1;
nodes = (
(186,598,o),
(218,630,o),
(218,670,cs),
(218,710,o),
(186,742,o),
(146,742,cs),
(106,742,o),
(74,710,o),
(74,670,cs),
(74,630,o),
(106,598,o),
(146,598,cs)
);
}
);
width = 271;
},
{
layerId = "DBC57AB7-6BBF-4709-9065-B7AB4DBB4D97";
shapes = (
{
alignment = -1;
ref = jdotless;
},
{
pos = (44,0);
ref = dotaccentcomb;
}
);
width = 226;
}
);
leftKerningGroup = LAT_J_LC;
rightKerningGroup = LAT_J_LC;
unicode = 106;
}
{
glyphname = k;
layers = (
{
anchors = (
{
name = bottom;
position = "{316, 0}";
},
{
name = top;
position = "{148, 752}";
}
);
layerId = "577C2F50-0FC2-4837-984D-4FA1DCF6681B";
shapes = (
{
closed = 1;
nodes = (
(234,0,l),
(234,222,l),
(276,222,l),
(222,248,l),
(410,0,l),
(612,0,l),
(350,326,l),
(350,226,l),
(602,528,l),
(400,528,l),
(224,296,l),
(276,322,l),
(234,322,l),
(234,720,l),
(60,720,l),
(60,0,l)
);
}
);
width = 624;
},
{
anchors = (
{
name = bottom;
position = "{284, 0}";
},
{
name = top;
position = "{122, 752}";
}
);
layerId = "E6E1701F-FDD6-4B99-AB09-C7A03B8D4814";
shapes = (
{
closed = 1;
nodes = (
(174,0,l),
(174,230,l),
(216,230,l),
(174,258,l),
(402,0,l),
(536,0,l),
(266,300,l),
(266,246,l),
(522,520,l),
(386,520,l),
(174,290,l),
(216,316,l),
(174,316,l),
(174,720,l),
(72,720,l),
(72,0,l)
);
}
);
width = 562;
},
{
anchors = (
{
name = bottom;
position = "{256, 0}";
},
{
name = top;
position = "{98, 752}";
}
);
layerId = "DBF002CB-ACA5-4984-BB80-D7F3ACD5E203";
shapes = (
{
closed = 1;
nodes = (
(114,0,l),
(114,246,l),
(156,246,l),
(132,258,l),
(404,0,l),
(446,0,l),
(162,270,l),
(162,252,l),
(428,512,l),
(384,512,l),
(132,264,l),
(156,276,l),
(114,276,l),
(114,720,l),
(84,720,l),
(84,0,l)
);
}
);
width = 484;
}
);
leftKerningGroup = LAT_H_UC;
rightKerningGroup = LAT_K_LC;
unicode = 107;
}
{
glyphname = l;
layers = (
{
anchors = (
{
name = bottom;
position = "{174, 0}";
},
{
name = center;
position = "{146, 394}";
},
{
name = top;
position = "{146, 754}";
},
{
name = topright;
position = "{234, 752}";
}
);
layerId = "3717EFD3-6B64-4297-9C46-7E4C78651CC4";
shapes = (
{
closed = 1;
nodes = (
(236,-8,o),
(266,-2,o),
(288,6,c),
(288,140,l),
(284,138,o),
(276,136,o),
(268,136,cs),
(244,136,o),
(234,156,o),
(234,174,cs),
(234,720,l),
(60,720,l),
(60,144,ls),
(60,64,o),
(110,-8,o),
(208,-8,cs)
);
}
);
width = 320;
},
{
anchors = (
{
name = bottom;
position = "{152, 0}";
},
{
name = center;
position = "{126, 384}";
},
{
name = top;
position = "{124, 752}";
},
{
name = topright;
position = "{278, 752}";
}
);
layerId = "50A05132-A89A-4BC5-B81A-F4657F37FF17";
shapes = (
{
closed = 1;
nodes = (
(206,-8,o),
(222,-6,o),
(232,-2,c),
(232,88,l),
(224,85,o),
(218,84,o),
(210,84,cs),
(174,84,o),
(174,116,o),
(174,132,cs),
(174,720,l),
(72,720,l),
(72,136,ls),
(72,48,o),
(108,-8,o),
(190,-8,cs)
);
}
);
width = 268;
},
{
anchors = (
{
name = bottom;
position = "{134, 0}";
},
{
name = center;
position = "{100, 374}";
},
{
name = top;
position = "{100, 752}";
},
{
name = topright;
position = "{116, 752}";
}
);
layerId = "10DD257C-652B-4320-8EE1-77E209923FFD";
shapes = (
{
closed = 1;
nodes = (
(162,-4,o),
(176,-2,o),
(186,2,c),
(186,32,l),
(180,28,o),
(166,24,o),
(152,24,cs),
(114,24,o),
(114,54,o),
(114,86,cs),
(114,720,l),
(84,720,l),
(84,86,ls),
(84,16,o),
(106,-4,o),
(150,-4,cs)
);
}
);
width = 218;
}
);
leftKerningGroup = LAT_L_LC;
rightKerningGroup = LAT_L_LC;
unicode = 108;
}
{
glyphname = m;
layers = (
{
anchors = (
{
name = bottom;
position = "{452, 0}";
},
{
name = leghookleft;
position = "{746, 0}";
},
{
name = top;
position = "{450, 528}";
}
);
layerId = "6324EBA6-AEA3-4E83-9504-1204FE3965A0";
shapes = (
{
closed = 1;
nodes = (
(234,0,l),
(234,314,ls),
(234,358,o),
(256,394,o),
(302,394,cs),
(352,394,o),
(360,362,o),
(360,314,cs),
(360,0,l),
(534,0,l),
(534,314,ls),
(534,358,o),
(556,394,o),
(602,394,cs),
(652,394,o),
(660,362,o),
(660,314,cs),
(660,0,l),
(834,0,l),
(834,330,ls),
(834,408,o),
(814,536,o),
(668,536,cs),
(594,536,o),
(532,502,o),
(500,438,c),
(518,454,l),
(498,454,l),
(514,438,l),
(490,500,o),
(448,536,o),
(374,536,cs),
(292,536,o),
(230,494,o),
(190,398,c),
(246,462,l),
(224,462,l),
(224,528,l),
(60,528,l),
(60,0,l)
);
}
);
width = 890;
},
{
anchors = (
{
name = bottom;
position = "{432, 0}";
},
{
name = leghookleft;
position = "{734, 0}";
},
{
name = top;
position = "{432, 520}";
}
);
layerId = "94997179-B2A0-4125-8E55-188F48EDA314";
shapes = (
{
closed = 1;
nodes = (
(174,0,l),
(174,310,ls),
(174,394,o),
(222,436,o),
(280,436,cs),
(340,436,o),
(376,392,o),
(376,310,cs),
(376,0,l),
(478,0,l),
(478,310,ls),
(478,394,o),
(526,436,o),
(584,436,cs),
(644,436,o),
(680,392,o),
(680,310,cs),
(680,0,l),
(784,0,l),
(784,334,ls),
(784,438,o),
(740,528,o),
(620,528,cs),
(530,528,o),
(460,476,o),
(434,408,c),
(486,446,l),
(420,446,l),
(466,408,l),
(448,474,o),
(402,528,o),
(320,528,cs),
(238,528,o),
(170,482,o),
(146,406,c),
(194,462,l),
(174,462,l),
(174,520,l),
(72,520,l),
(72,0,l)
);
}
);
width = 852;
},
{
anchors = (
{
name = bottom;
position = "{408, 0}";
},
{
name = leghookleft;
position = "{718, 0}";
},
{
name = top;
position = "{408, 512}";
}
);
layerId = "DBC57AB7-6BBF-4709-9065-B7AB4DBB4D97";
shapes = (
{
closed = 1;
nodes = (
(114,0,l),
(114,318,ls),
(114,398,o),
(176,492,o),
(272,492,cs),
(332,492,o),
(394,454,o),
(394,332,cs),
(394,0,l),
(424,0,l),
(424,330,ls),
(424,400,o),
(484,492,o),
(580,492,cs),
(644,492,o),
(702,454,o),
(702,326,cs),
(702,0,l),
(732,0,l),
(732,336,ls),
(732,466,o),
(662,520,o),
(578,520,cs),
(486,520,o),
(432,456,o),
(414,404,c),
(426,410,l),
(404,410,l),
(418,400,l),
(400,474,o),
(342,520,o),
(270,520,cs),
(192,520,o),
(138,468,o),
(108,402,c),
(120,418,l),
(114,418,l),
(114,512,l),
(84,512,l),
(84,0,l)
);
}
);
width = 812;
}
);
leftKerningGroup = LAT_N_LC;
rightKerningGroup = LAT_N_LC;
unicode = 109;
}
{
glyphname = n;
layers = (
{
anchors = (
{
name = bottom;
position = "{306, 0}";
},
{
name = leghookleft;
position = "{146, 0}";
},
{
name = leghookretroflex;
position = "{470, 0}";
},
{
name = top;
position = "{324, 528}";
}
);
layerId = "577C2F50-0FC2-4837-984D-4FA1DCF6681B";
shapes = (
{
closed = 1;
nodes = (
(234,0,l),
(234,308,ls),
(234,364,o),
(268,394,o),
(312,394,cs),
(356,394,o),
(384,366,o),
(384,310,cs),
(384,0,l),
(558,0,l),
(558,348,ls),
(558,464,o),
(490,536,o),
(392,536,cs),
(304,536,o),
(224,488,o),
(206,398,c),
(246,456,l),
(228,456,l),
(228,528,l),
(60,528,l),
(60,0,l)
);
}
);
width = 614;
},
{
anchors = (
{
name = bottom;
position = "{294, 0}";
},
{
name = leghookleft;
position = "{124, 0}";
},
{
name = leghookretroflex;
position = "{460, 0}";
},
{
name = top;
position = "{310, 520}";
}
);
layerId = "E6E1701F-FDD6-4B99-AB09-C7A03B8D4814";
shapes = (
{
closed = 1;
nodes = (
(174,0,l),
(174,310,ls),
(174,394,o),
(230,436,o),
(298,436,cs),
(368,436,o),
(410,392,o),
(410,310,cs),
(410,0,l),
(512,0,l),
(512,332,ls),
(512,416,o),
(467,528,o),
(328,528,cs),
(248,528,o),
(180,490,o),
(152,422,c),
(196,462,l),
(174,462,l),
(174,520,l),
(72,520,l),
(72,0,l)
);
}
);
width = 580;
},
{
anchors = (
{
name = bottom;
position = "{286, 0}";
},
{
name = leghookleft;
position = "{100, 0}";
},
{
name = leghookretroflex;
position = "{452, 0}";
},
{
name = top;
position = "{288, 512}";
}
);
layerId = "DBF002CB-ACA5-4984-BB80-D7F3ACD5E203";
shapes = (
{
closed = 1;
nodes = (
(114,0,l),
(114,326,ls),
(114,418,o),
(202,492,o),
(286,492,cs),
(422,492,o),
(436,386,o),
(436,306,cs),
(436,0,l),
(466,0,l),
(466,314,ls),
(466,440,o),
(412,520,o),
(292,520,cs),
(205,520,o),
(132,469,o),
(106,402,c),
(128,420,l),
(114,420,l),
(114,512,l),
(84,512,l),
(84,0,l)
);
}
);
width = 546;
}
);
leftKerningGroup = LAT_N_LC;
rightKerningGroup = LAT_N_LC;
unicode = 110;
}
{
glyphname = o;
layers = (
{
anchors = (
{
name = bottom;
position = "{312, 0}";
},
{
name = center;
position = "{312, 264}";
},
{
name = horn;
position = "{460, 496}";
},
{
name = ogonek;
position = "{382, 0}";
},
{
name = top;
position = "{312, 528}";
},
{
name = topright;
position = "{594, 528}";
}
);
layerId = "6324EBA6-AEA3-4E83-9504-1204FE3965A0";
shapes = (
{
closed = 1;
nodes = (
(468,-8,o),
(592,104,o),
(592,264,cs),
(592,424,o),
(468,536,o),
(312,536,cs),
(158,536,o),
(34,424,o),
(32,264,cs),
(34,104,o),
(158,-8,o),
(312,-8,cs)
);
},
{
closed = 1;
nodes = (
(247,136,o),
(196,189,o),
(196,264,cs),
(196,338,o),
(247,390,o),
(312,390,cs),
(377,390,o),
(428,338,o),
(428,264,cs),
(428,189,o),
(377,136,o),
(312,136,cs)
);
}
);
width = 624;
},
{
anchors = (
{
name = bottom;
position = "{298, 0}";
},
{
name = center;
position = "{298, 258}";
},
{
name = horn;
position = "{426, 512}";
},
{
name = ogonek;
position = "{364, 0}";
},
{
name = top;
position = "{298, 520}";
},
{
name = topright;
position = "{574, 520}";
}
);
layerId = "94997179-B2A0-4125-8E55-188F48EDA314";
shapes = (
{
closed = 1;
nodes = (
(442,-8,o),
(552,101,o),
(552,262,cs),
(552,421,o),
(443,528,o),
(298,528,cs),
(153,528,o),
(44,421,o),
(44,262,cs),
(44,101,o),
(153,-8,o),
(298,-8,cs)
);
},
{
closed = 1;
nodes = (
(209,84,o),
(148,155,o),
(148,262,cs),
(148,367,o),
(211,436,o),
(298,436,cs),
(385,436,o),
(448,367,o),
(448,262,cs),
(448,155,o),
(384,84,o),
(298,84,cs)
);
}
);
width = 596;
},
{
anchors = (
{
name = bottom;
position = "{306, 0}";
},
{
name = center;
position = "{306, 256}";
},
{
name = horn;
position = "{420, 494}";
},
{
name = ogonek;
position = "{368, 0}";
},
{
name = top;
position = "{306, 512}";
},
{
name = topright;
position = "{592, 512}";
}
);
layerId = "DBC57AB7-6BBF-4709-9065-B7AB4DBB4D97";
shapes = (
{
closed = 1;
nodes = (
(450,-8,o),
(552,106,o),
(552,256,cs),
(552,410,o),
(450,520,o),
(304,520,cs),
(158,520,o),
(56,410,o),
(56,256,cs),
(56,106,o),
(158,-8,o),
(304,-8,cs)
);
},
{
closed = 1;
nodes = (
(180,22,o),
(86,118,o),
(86,256,cs),
(86,396,o),
(180,492,o),
(304,492,cs),
(432,492,o),
(522,396,o),
(522,256,cs),
(522,118,o),
(432,22,o),
(304,20,c)
);
}
);
width = 608;
}
);
leftKerningGroup = LAT_O_LC;
rightKerningGroup = LAT_O_LC;
unicode = 111;
}
{
glyphname = p;
layers = (
{
anchors = (
{
name = bottom;
position = "{148, -206}";
},
{
name = top;
position = "{328, 528}";
}
);
layerId = "3717EFD3-6B64-4297-9C46-7E4C78651CC4";
shapes = (
{
closed = 1;
nodes = (
(236,44,l),
(262,44,l),
(228,104,l),
(228,424,l),
(248,482,l),
(226,482,l),
(226,528,l),
(62,528,l),
(62,-206,l),
(236,-206,l)
);
},
{
closed = 1;
nodes = (
(486,-8,o),
(608,74,o),
(606,262,cs),
(608,446,o),
(488,536,o),
(372,536,cs),
(236,536,o),
(142,414,o),
(142,270,cs),
(142,120,o),
(244,-8,o),
(378,-8,cs)
);
},
{
closed = 1;
nodes = (
(274,136,o),
(230,185,o),
(230,266,cs),
(230,345,o),
(272,392,o),
(332,392,cs),
(394,392,o),
(438,345,o),
(438,266,cs),
(438,185,o),
(396,136,o),
(336,136,cs)
);
}
);
width = 636;
},
{
anchors = (
{
name = bottom;
position = "{122, -206}";
},
{
name = top;
position = "{316, 520}";
}
);
layerId = "50A05132-A89A-4BC5-B81A-F4657F37FF17";
shapes = (
{
closed = 1;
nodes = (
(170,60,l),
(188,60,l),
(164,94,l),
(164,406,l),
(184,460,l),
(170,460,l),
(170,520,l),
(68,520,l),
(68,-206,l),
(170,-206,l)
);
},
{
closed = 1;
nodes = (
(450,-8,o),
(564,96,o),
(564,260,cs),
(564,424,o),
(450,528,o),
(326,528,cs),
(194,528,o),
(100,410,o),
(100,262,cs),
(100,112,o),
(194,-8,o),
(326,-8,cs)
);
},
{
closed = 1;
nodes = (
(226,84,o),
(164,158,o),
(164,262,cs),
(164,364,o),
(226,436,o),
(310,436,cs),
(398,436,o),
(460,360,o),
(460,262,cs),
(460,162,o),
(398,84,o),
(310,84,cs)
);
}
);
width = 608;
},
{
anchors = (
{
name = bottom;
position = "{100, -206}";
},
{
name = top;
position = "{300, 512}";
}
);
layerId = "10DD257C-652B-4320-8EE1-77E209923FFD";
shapes = (
{
closed = 1;
nodes = (
(114,108,l),
(120,108,l),
(112,160,l),
(112,386,l),
(120,406,l),
(114,406,l),
(114,512,l),
(84,512,l),
(84,-206,l),
(114,-206,l)
);
},
{
closed = 1;
nodes = (
(442,-8,o),
(532,92,o),
(532,256,cs),
(532,422,o),
(444,520,o),
(308,520,cs),
(186,520,o),
(86,438,o),
(86,258,cs),
(86,78,o),
(188,-8,o),
(308,-8,cs)
);
},
{
closed = 1;
nodes = (
(194,20,o),
(114,120,o),
(114,256,cs),
(114,416,o),
(206,492,o),
(310,492,cs),
(422,492,o),
(502,404,o),
(502,256,cs),
(502,112,o),
(420,20,o),
(310,20,cs)
);
}
);
width = 586;
}
);
leftKerningGroup = LAT_P_LC;
rightKerningGroup = LAT_O_LC;
unicode = 112;
}
{
color = 4;
glyphname = q;
layers = (
{
layerId = "3717EFD3-6B64-4297-9C46-7E4C78651CC4";
shapes = (
{
closed = 1;
nodes = (
(418,-206,l),
(592,-206,l),
(592,528,l),
(428,528,l),
(428,482,l),
(406,482,l),
(426,424,l),
(426,104,l),
(392,44,l),
(418,44,l)
);
},
{
closed = 1;
nodes = (
(410,-8,o),
(512,120,o),
(512,270,cs),
(512,414,o),
(418,536,o),
(282,536,cs),
(166,536,o),
(46,446,o),
(48,262,cs),
(46,74,o),
(168,-8,o),
(276,-8,cs)
);
},
{
closed = 1;
nodes = (
(258,136,o),
(216,185,o),
(216,266,cs),
(216,345,o),
(260,392,o),
(322,392,cs),
(382,392,o),
(424,345,o),
(424,266,cs),
(424,185,o),
(380,136,o),
(318,136,cs)
);
}
);
width = 654;
},
{
anchors = (
{
name = bottom;
position = "{520, -206}";
},
{
name = top;
position = "{326, 520}";
}
);
layerId = "50A05132-A89A-4BC5-B81A-F4657F37FF17";
shapes = (
{
closed = 1;
nodes = (
(472,-206,l),
(574,-206,l),
(574,520,l),
(472,520,l),
(472,460,l),
(458,460,l),
(478,406,l),
(478,94,l),
(454,60,l),
(472,60,l)
);
},
{
closed = 1;
nodes = (
(448,-8,o),
(542,112,o),
(542,262,cs),
(542,410,o),
(448,528,o),
(316,528,cs),
(192,528,o),
(78,424,o),
(78,260,cs),
(78,96,o),
(192,-8,o),
(316,-8,cs)
);
},
{
closed = 1;
nodes = (
(244,84,o),
(182,162,o),
(182,262,cs),
(182,360,o),
(244,436,o),
(332,436,cs),
(416,436,o),
(478,364,o),
(478,262,cs),
(478,158,o),
(416,84,o),
(332,84,cs)
);
}
);
width = 642;
},
{
layerId = "10DD257C-652B-4320-8EE1-77E209923FFD";
shapes = (
{
closed = 1;
nodes = (
(472,-206,l),
(502,-206,l),
(502,512,l),
(472,512,l),
(472,406,l),
(466,406,l),
(474,386,l),
(474,160,l),
(466,108,l),
(472,108,l)
);
},
{
closed = 1;
nodes = (
(398,-8,o),
(500,78,o),
(500,258,cs),
(500,438,o),
(400,520,o),
(278,520,cs),
(142,520,o),
(54,422,o),
(54,256,cs),
(54,92,o),
(144,-8,o),
(278,-8,cs)
);
},
{
closed = 1;
nodes = (
(166,20,o),
(84,112,o),
(84,256,cs),
(84,404,o),
(164,492,o),
(276,492,cs),
(380,492,o),
(472,416,o),
(472,256,cs),
(472,120,o),
(392,20,o),
(276,20,cs)
);
}
);
width = 586;
}
);
leftKerningGroup = LAT_O_LC;
rightKerningGroup = LAT_Q_LC;
unicode = 113;
}
{
glyphname = r;
layers = (
{
anchors = (
{
name = bottom;
position = "{148, 0}";
},
{
name = top;
position = "{228, 528}";
}
);
layerId = "3717EFD3-6B64-4297-9C46-7E4C78651CC4";
shapes = (
{
closed = 1;
nodes = (
(234,0,l),
(234,264,ls),
(234,338,o),
(288,368,o),
(334,368,cs),
(356,368,o),
(374,362,o),
(382,358,c),
(452,524,l),
(442,530,o),
(418,536,o),
(390,536,cs),
(288,536,o),
(228,462,o),
(206,418,c),
(238,456,l),
(228,456,l),
(228,528,l),
(60,528,l),
(60,0,l)
);
}
);
width = 448;
},
{
anchors = (
{
name = bottom;
position = "{124, 0}";
},
{
name = top;
position = "{208, 520}";
}
);
layerId = "50A05132-A89A-4BC5-B81A-F4657F37FF17";
shapes = (
{
closed = 1;
nodes = (
(174,0,l),
(174,290,ls),
(174,378,o),
(258,430,o),
(314,430,cs),
(328,430,o),
(340,427,o),
(350,422,c),
(390,520,l),
(378,524,o),
(360,528,o),
(338,528,cs),
(256,528,o),
(186,466,o),
(156,408,c),
(180,434,l),
(174,434,l),
(174,520,l),
(72,520,l),
(72,0,l)
);
}
);
width = 390;
},
{
anchors = (
{
name = bottom;
position = "{100, 0}";
},
{
name = top;
position = "{188, 512}";
}
);
layerId = "10DD257C-652B-4320-8EE1-77E209923FFD";
shapes = (
{
closed = 1;
nodes = (
(114,0,l),
(114,314,ls),
(114,418,o),
(214,492,o),
(282,492,cs),
(294,492,o),
(302,490,o),
(314,486,c),
(326,514,l),
(314,518,o),
(298,520,o),
(286,520,cs),
(216,520,o),
(144,470,o),
(106,396,c),
(120,412,l),
(114,412,l),
(114,512,l),
(84,512,l),
(84,0,l)
);
}
);
width = 342;
}
);
leftKerningGroup = LAT_N_LC;
rightKerningGroup = LAT_R_LC;
unicode = 114;
}
{
glyphname = s;
layers = (
{
anchors = (
{
name = bottom;
position = "{243, 0}";
},
{
name = cedilla;
position = "{252, 0}";
},
{
name = top;
position = "{244, 531}";
}
);
layerId = "3717EFD3-6B64-4297-9C46-7E4C78651CC4";
shapes = (
{
closed = 1;
nodes = (
(360,-8,o),
(452,62,o),
(452,162,cs),
(452,270,o),
(346,304,o),
(298,316,cs),
(260,326,o),
(198,338,o),
(198,370,cs),
(198,392,o),
(222,404,o),
(244,404,cs),
(276,404,o),
(298,384,o),
(312,362,c),
(442,420,l),
(410,494,o),
(328,536,o),
(238,536,cs),
(130,536,o),
(46,472,o),
(46,372,cs),
(46,284,o),
(112,238,o),
(192,214,cs),
(238,200,o),
(300,190,o),
(300,158,cs),
(300,140,o),
(280,124,o),
(250,124,cs),
(204,124,o),
(176,160,o),
(160,186,c),
(26,126,l),
(64,38,o),
(156,-8,o),
(248,-8,cs)
);
}
);
width = 476;
},
{
anchors = (
{
name = bottom;
position = "{224, 0}";
},
{
name = cedilla;
position = "{230, 0}";
},
{
name = top;
position = "{224, 522}";
}
);
layerId = "50A05132-A89A-4BC5-B81A-F4657F37FF17";
shapes = (
{
closed = 1;
nodes = (
(337,-8,o),
(422,55,o),
(422,149,cs),
(422,255,o),
(320,286,o),
(266,302,cs),
(228,313,o),
(157,331,o),
(156,379,cs),
(155,415,o),
(188,441,o),
(230,441,cs),
(274,441,o),
(304,414,o),
(320,386,c),
(408,425,l),
(381,486,o),
(311,529,o),
(227,529,cs),
(129,529,o),
(55,471,o),
(55,383,cs),
(55,295,o),
(133,251,o),
(203,231,cs),
(247,218,o),
(321,201,o),
(321,148,cs),
(321,108,o),
(282,81,o),
(238,81,cs),
(186,81,o),
(148,121,o),
(131,156,c),
(40,116,l),
(72,41,o),
(150,-8,o),
(237,-8,cs)
);
}
);
width = 448;
},
{
anchors = (
{
name = bottom;
position = "{220, 0}";
},
{
name = cedilla;
position = "{224, 0}";
},
{
name = top;
position = "{218, 512}";
}
);
layerId = "10DD257C-652B-4320-8EE1-77E209923FFD";
shapes = (
{
closed = 1;
nodes = (
(306,-8,o),
(380,46,o),
(380,132,cs),
(380,234,o),
(284,262,o),
(222,282,cs),
(184,294,o),
(100,322,o),
(98,392,cs),
(96,448,o),
(140,492,o),
(210,492,cs),
(272,492,o),
(312,456,o),
(332,420,c),
(360,432,l),
(340,474,o),
(288,520,o),
(212,520,cs),
(128,520,o),
(68,470,o),
(68,398,cs),
(68,310,o),
(162,270,o),
(218,254,cs),
(260,242,o),
(350,216,o),
(350,134,cs),
(350,64,o),
(284,20,o),
(222,20,cs),
(162,20,o),
(108,66,o),
(90,114,c),
(60,102,l),
(82,46,o),
(142,-8,o),
(222,-8,cs)
);
}
);
width = 440;
}
);
leftKerningGroup = LAT_S_LC;
rightKerningGroup = LAT_S_LC;
unicode = 115;
}
{
glyphname = t;
layers = (
{
anchors = (
{
name = bottom;
position = "{278, 0}";
},
{
name = cedilla;
position = "{290, 0}";
},
{
name = center;
position = "{200, 264}";
},
{
name = top;
position = "{198, 674}";
},
{
name = topright;
position = "{284, 846}";
}
);
layerId = "577C2F50-0FC2-4837-984D-4FA1DCF6681B";
shapes = (
{
closed = 1;
nodes = (
(356,-8,o),
(404,0,o),
(436,14,c),
(380,150,l),
(368,144,o),
(360,140,o),
(342,140,cs),
(306,140,o),
(282,158,o),
(282,200,cs),
(282,674,l),
(108,674,l),
(108,200,ls),
(108,78,o),
(174,-8,o),
(314,-8,cs)
);
},
{
closed = 1;
nodes = (
(404,380,l),
(404,528,l),
(20,528,l),
(20,380,l)
);
}
);
width = 448;
},
{
anchors = (
{
name = bottom;
position = "{252, 0}";
},
{
name = cedilla;
position = "{264, 0}";
},
{
name = center;
position = "{172, 262}";
},
{
name = top;
position = "{170, 682}";
},
{
name = topright;
position = "{244, 804}";
}
);
layerId = "E6E1701F-FDD6-4B99-AB09-C7A03B8D4814";
shapes = (
{
closed = 1;
nodes = (
(306,-8,o),
(330,-2,o),
(356,8,c),
(320,94,l),
(308,88,o),
(296,86,o),
(284,86,cs),
(246,86,o),
(220,108,o),
(220,156,cs),
(220,682,l),
(118,682,l),
(118,144,ls),
(118,54,o),
(172,-8,o),
(274,-8,cs)
);
},
{
closed = 1;
nodes = (
(344,432,l),
(344,520,l),
(32,520,l),
(32,432,l)
);
}
);
width = 384;
},
{
anchors = (
{
name = bottom;
position = "{228, 0}";
},
{
name = cedilla;
position = "{238, 0}";
},
{
name = center;
position = "{146, 256}";
},
{
name = top;
position = "{146, 690}";
},
{
name = topright;
position = "{176, 772}";
}
);
layerId = "DBF002CB-ACA5-4984-BB80-D7F3ACD5E203";
shapes = (
{
closed = 1;
nodes = (
(270,-6,o),
(290,-4,o),
(308,4,c),
(296,30,l),
(282,24,o),
(264,22,o),
(252,22,cs),
(188,22,o),
(160,66,o),
(160,134,cs),
(160,690,l),
(130,690,l),
(130,140,ls),
(130,48,o),
(168,-6,o),
(254,-6,cs)
);
},
{
closed = 1;
nodes = (
(300,484,l),
(300,512,l),
(48,512,l),
(48,484,l)
);
}
);
width = 356;
}
);
leftKerningGroup = LAT_T_LC;
rightKerningGroup = LAT_T_LC;
unicode = 116;
}
{
color = 4;
glyphname = u;
layers = (
{
anchors = (
{
name = bottom;
position = "{310, 0}";
},
{
name = horn;
position = "{472, 528}";
},
{
name = ogonek;
position = "{554, 0}";
},
{
name = top;
position = "{310, 528}";
}
);
layerId = "577C2F50-0FC2-4837-984D-4FA1DCF6681B";
shapes = (
{
closed = 1;
nodes = (
(380,528,l),
(380,220,ls),
(380,164,o),
(346,134,o),
(302,134,cs),
(258,134,o),
(230,162,o),
(230,218,cs),
(230,528,l),
(56,528,l),
(56,180,ls),
(56,64,o),
(124,-8,o),
(222,-8,cs),
(310,-8,o),
(390,40,o),
(408,130,c),
(368,72,l),
(386,72,l),
(386,0,l),
(554,0,l),
(554,528,l)
);
}
);
width = 614;
},
{
anchors = (
{
name = bottom;
position = "{288, 0}";
},
{
name = horn;
position = "{456, 520}";
},
{
name = ogonek;
position = "{508, 0}";
},
{
name = top;
position = "{288, 520}";
}
);
layerId = "E6E1701F-FDD6-4B99-AB09-C7A03B8D4814";
shapes = (
{
closed = 1;
nodes = (
(406,520,l),
(406,210,ls),
(406,126,o),
(350,84,o),
(282,84,cs),
(212,84,o),
(170,128,o),
(170,210,cs),
(170,520,l),
(68,520,l),
(68,188,ls),
(68,104,o),
(113,-8,o),
(252,-8,cs),
(332,-8,o),
(400,30,o),
(428,98,c),
(384,58,l),
(406,58,l),
(406,0,l),
(508,0,l),
(508,520,l)
);
}
);
width = 580;
},
{
anchors = (
{
name = bottom;
position = "{274, 0}";
},
{
name = horn;
position = "{446, 512}";
},
{
name = ogonek;
position = "{462, 0}";
},
{
name = top;
position = "{274, 512}";
}
);
layerId = "DBF002CB-ACA5-4984-BB80-D7F3ACD5E203";
shapes = (
{
closed = 1;
nodes = (
(432,512,l),
(432,186,ls),
(432,94,o),
(344,20,o),
(260,20,cs),
(124,20,o),
(110,126,o),
(110,206,cs),
(110,512,l),
(80,512,l),
(80,198,ls),
(80,72,o),
(134,-8,o),
(254,-8,cs),
(341,-8,o),
(414,43,o),
(440,110,c),
(418,92,l),
(432,92,l),
(432,0,l),
(462,0,l),
(462,512,l)
);
}
);
width = 546;
}
);
leftKerningGroup = LAT_U_LC;
rightKerningGroup = LAT_A_LC;
unicode = 117;
}
{
glyphname = v;
layers = (
{
anchors = (
{
name = bottom;
position = "{292, 0}";
},
{
name = top;
position = "{292, 528}";
}
);
layerId = "6324EBA6-AEA3-4E83-9504-1204FE3965A0";
shapes = (
{
closed = 1;
nodes = (
(210,0,l),
(374,0,l),
(568,528,l),
(386,528,l),
(324,318,l),
(294,180,l),
(290,180,l),
(258,318,l),
(200,528,l),
(16,528,l)
);
}
);
width = 584;
},
{
anchors = (
{
name = bottom;
position = "{270, 0}";
},
{
name = top;
position = "{270, 520}";
}
);
layerId = "94997179-B2A0-4125-8E55-188F48EDA314";
shapes = (
{
closed = 1;
nodes = (
(222,0,l),
(316,0,l),
(514,520,l),
(404,520,l),
(310,234,l),
(272,118,l),
(268,118,l),
(228,234,l),
(134,520,l),
(24,520,l)
);
}
);
width = 538;
},
{
anchors = (
{
name = bottom;
position = "{246, 0}";
},
{
name = top;
position = "{246, 512}";
}
);
layerId = "DBC57AB7-6BBF-4709-9065-B7AB4DBB4D97";
shapes = (
{
closed = 1;
nodes = (
(230,0,l),
(262,0,l),
(458,512,l),
(426,512,l),
(302,182,l),
(248,40,l),
(244,40,l),
(190,182,l),
(66,512,l),
(34,512,l)
);
}
);
width = 492;
}
);
leftKerningGroup = LAT_V_LC;
rightKerningGroup = LAT_V_LC;
unicode = 118;
}
{
color = 9;
glyphname = w;
layers = (
{
anchors = (
{
name = bottom;
position = "{420, 0}";
},
{
name = top;
position = "{420, 528}";
}
);
layerId = "6324EBA6-AEA3-4E83-9504-1204FE3965A0";
shapes = (
{
closed = 1;
nodes = (
(330,0,l),
(384,150,l),
(418,254,l),
(422,254,l),
(456,150,l),
(510,0,l),
(670,0,l),
(824,528,l),
(638,528,l),
(598,306,l),
(576,178,l),
(572,178,l),
(532,310,l),
(464,528,l),
(376,528,l),
(308,310,l),
(268,178,l),
(264,178,l),
(242,306,l),
(202,528,l),
(16,528,l),
(170,0,l)
);
}
);
width = 840;
},
{
anchors = (
{
name = bottom;
position = "{400, 0}";
},
{
name = top;
position = "{400, 520}";
}
);
layerId = "94997179-B2A0-4125-8E55-188F48EDA314";
shapes = (
{
closed = 1;
nodes = (
(280,0,l),
(340,174,l),
(398,348,l),
(402,348,l),
(460,174,l),
(520,0,l),
(618,0,l),
(776,520,l),
(666,520,l),
(602,278,l),
(566,128,l),
(564,128,l),
(514,280,l),
(428,520,l),
(372,520,l),
(286,280,l),
(238,128,l),
(236,128,l),
(198,278,l),
(134,520,l),
(24,520,l),
(182,0,l)
);
}
);
width = 800;
},
{
anchors = (
{
name = bottom;
position = "{382, 0}";
},
{
name = top;
position = "{382, 512}";
}
);
layerId = "DBC57AB7-6BBF-4709-9065-B7AB4DBB4D97";
shapes = (
{
closed = 1;
nodes = (
(234,0,l),
(298,198,l),
(378,448,l),
(384,448,l),
(464,198,l),
(528,0,l),
(566,0,l),
(728,512,l),
(696,512,l),
(602,208,l),
(548,36,l),
(546,36,l),
(490,208,l),
(392,512,l),
(370,512,l),
(272,208,l),
(216,36,l),
(214,36,l),
(160,208,l),
(66,512,l),
(34,512,l),
(196,0,l)
);
}
);
width = 762;
}
);
leftKerningGroup = LAT_V_LC;
rightKerningGroup = LAT_V_LC;
unicode = 119;
}
{
glyphname = x;
layers = (
{
anchors = (
{
name = bottom;
position = "{296, 0}";
},
{
name = top;
position = "{296, 528}";
}
);
layerId = "3717EFD3-6B64-4297-9C46-7E4C78651CC4";
shapes = (
{
closed = 1;
nodes = (
(198,0,l),
(294,154,l),
(300,154,l),
(402,264,l),
(402,266,l),
(576,528,l),
(398,528,l),
(298,362,l),
(294,362,l),
(190,264,l),
(190,262,l),
(16,0,l)
);
},
{
closed = 1;
nodes = (
(574,0,l),
(402,262,l),
(402,264,l),
(298,362,l),
(294,362,l),
(194,528,l),
(18,528,l),
(190,266,l),
(190,264,l),
(292,154,l),
(298,154,l),
(394,0,l)
);
}
);
width = 592;
},
{
anchors = (
{
name = bottom;
position = "{268, 0}";
},
{
name = top;
position = "{268, 520}";
}
);
layerId = "50A05132-A89A-4BC5-B81A-F4657F37FF17";
shapes = (
{
closed = 1;
nodes = (
(142,0,l),
(264,188,l),
(270,188,l),
(334,260,l),
(334,262,l),
(508,520,l),
(392,520,l),
(268,326,l),
(262,326,l),
(198,260,l),
(198,258,l),
(24,0,l)
);
},
{
closed = 1;
nodes = (
(508,0,l),
(334,258,l),
(334,262,l),
(270,326,l),
(264,326,l),
(140,520,l),
(26,520,l),
(198,262,l),
(198,260,l),
(262,188,l),
(268,188,l),
(390,0,l)
);
}
);
width = 532;
},
{
anchors = (
{
name = bottom;
position = "{244, 0}";
},
{
name = top;
position = "{244, 512}";
}
);
layerId = "10DD257C-652B-4320-8EE1-77E209923FFD";
shapes = (
{
closed = 1;
nodes = (
(80,0,l),
(242,232,l),
(246,232,l),
(264,254,l),
(264,258,l),
(446,512,l),
(410,512,l),
(244,278,l),
(242,278,l),
(224,256,l),
(224,254,l),
(42,0,l)
);
},
{
closed = 1;
nodes = (
(446,0,l),
(264,254,l),
(264,258,l),
(246,278,l),
(242,278,l),
(78,512,l),
(42,512,l),
(224,258,l),
(224,254,l),
(240,232,l),
(244,232,l),
(408,0,l)
);
}
);
width = 488;
}
);
leftKerningGroup = LAT_X_LC;
rightKerningGroup = LAT_X_LC;
unicode = 120;
}
{
glyphname = y;
layers = (
{
anchors = (
{
name = bottom;
position = "{214, -206}";
},
{
name = top;
position = "{314, 528}";
}
);
layerId = "6324EBA6-AEA3-4E83-9504-1204FE3965A0";
shapes = (
{
closed = 1;
nodes = (
(604,528,l),
(422,528,l),
(336,242,l),
(316,174,l),
(314,174,l),
(294,242,l),
(202,528,l),
(20,528,l),
(244,-24,l),
(258,64,l),
(236,-16,ls),
(230,-38,o),
(216,-70,o),
(170,-70,cs),
(154,-70,o),
(136,-66,o),
(122,-60,c),
(64,-196,l),
(94,-206,o),
(140,-214,o),
(180,-214,cs),
(326,-214,o),
(358,-120,o),
(382,-56,cs)
);
}
);
width = 620;
},
{
anchors = (
{
name = bottom;
position = "{246, -206}";
},
{
name = top;
position = "{292, 520}";
}
);
layerId = "94997179-B2A0-4125-8E55-188F48EDA314";
shapes = (
{
closed = 1;
nodes = (
(538,520,l),
(430,520,l),
(324,220,l),
(294,128,l),
(290,128,l),
(254,220,l),
(140,520,l),
(28,520,l),
(254,-26,l),
(254,32,l),
(230,-42,ls),
(221,-70,o),
(198,-122,o),
(136,-122,cs),
(114,-122,o),
(94,-116,o),
(72,-106,c),
(34,-194,l),
(56,-202,o),
(96,-214,o),
(140,-214,cs),
(246,-214,o),
(296,-132,o),
(320,-68,cs)
);
}
);
width = 562;
},
{
anchors = (
{
name = bottom;
position = "{150, -206}";
},
{
name = top;
position = "{270, 512}";
}
);
layerId = "DBC57AB7-6BBF-4709-9065-B7AB4DBB4D97";
shapes = (
{
closed = 1;
nodes = (
(490,512,l),
(458,512,l),
(328,176,l),
(272,32,l),
(268,32,l),
(208,176,l),
(74,512,l),
(42,512,l),
(262,-28,l),
(260,2,l),
(228,-80,ls),
(209,-128,o),
(190,-184,o),
(124,-184,cs),
(106,-184,o),
(84,-180,o),
(68,-172,c),
(56,-202,l),
(70,-208,o),
(96,-214,o),
(122,-214,cs),
(204,-214,o),
(228,-158,o),
(256,-86,cs)
);
}
);
width = 524;
}
);
leftKerningGroup = LAT_Y_LC;
rightKerningGroup = LAT_Y_LC;
unicode = 121;
}
{
glyphname = z;
layers = (
{
anchors = (
{
name = bottom;
position = "{264, 0}";
},
{
name = center;
position = "{264, 264}";
},
{
name = leghookretroflex;
position = "{404, 0}";
},
{
name = top;
position = "{264, 528}";
}
);
layerId = "6324EBA6-AEA3-4E83-9504-1204FE3965A0";
shapes = (
{
closed = 1;
nodes = (
(32,0,l),
(492,0,l),
(492,148,l),
(280,148,l),
(280,152,l),
(492,492,l),
(492,528,l),
(50,528,l),
(50,380,l),
(244,380,l),
(244,374,l),
(32,34,l)
);
}
);
width = 524;
},
{
anchors = (
{
name = bottom;
position = "{248, 0}";
},
{
name = center;
position = "{248, 262}";
},
{
name = leghookretroflex;
position = "{402, 0}";
},
{
name = top;
position = "{248, 520}";
}
);
layerId = "94997179-B2A0-4125-8E55-188F48EDA314";
shapes = (
{
closed = 1;
nodes = (
(44,0,l),
(452,0,l),
(452,88,l),
(202,88,l),
(202,90,l),
(448,500,l),
(448,520,l),
(54,520,l),
(54,432,l),
(294,432,l),
(294,430,l),
(44,22,l)
);
}
);
width = 496;
},
{
anchors = (
{
name = bottom;
position = "{236, 0}";
},
{
name = center;
position = "{236, 256}";
},
{
name = leghookretroflex;
position = "{402, 0}";
},
{
name = top;
position = "{236, 512}";
}
);
layerId = "DBC57AB7-6BBF-4709-9065-B7AB4DBB4D97";
shapes = (
{
closed = 1;
nodes = (
(56,0,l),
(416,0,l),
(416,28,l),
(100,28,l),
(100,32,l),
(410,498,l),
(410,512,l),
(70,512,l),
(70,484,l),
(366,484,l),
(366,480,l),
(56,18,l)
);
}
);
width = 472;
}
);
leftKerningGroup = LAT_Z_LC;
rightKerningGroup = LAT_Z_LC;
unicode = 122;
}
{
glyphname = braceleft;
layers = (
{
layerId = "6324EBA6-AEA3-4E83-9504-1204FE3965A0";
shapes = (
{
closed = 1;
nodes = (
(326,-146,l),
(326,-30,l),
(300,-30,ls),
(284,-30,o),
(232,-40,o),
(232,24,cs),
(232,66,o),
(260,122,o),
(258,200,c),
(260,284,o),
(228,320,o),
(174,332,c),
(174,336,l),
(228,350,o),
(260,382,o),
(258,458,c),
(260,532,o),
(232,596,o),
(232,642,cs),
(232,698,o),
(274,698,o),
(300,698,cs),
(326,698,l),
(326,812,l),
(254,812,ls),
(174,812,o),
(100,782,o),
(100,656,cs),
(100,576,o),
(132,522,o),
(132,472,cs),
(132,420,o),
(98,390,o),
(32,384,c),
(32,282,l),
(108,276,o),
(132,244,o),
(132,190,cs),
(132,128,o),
(100,90,o),
(100,8,cs),
(100,-118,o),
(174,-146,o),
(254,-146,cs)
);
}
);
width = 398;
},
{
layerId = "94997179-B2A0-4125-8E55-188F48EDA314";
shapes = (
{
closed = 1;
nodes = (
(299,-146,l),
(299,-73,l),
(270,-73,l),
(229,-74,o),
(186,-64,o),
(186,9,cs),
(186,65,o),
(214,134,o),
(213,212,c),
(214,284,o),
(187,325,o),
(140,338,c),
(140,342,l),
(187,355,o),
(214,390,o),
(213,457,c),
(214,534,o),
(186,594,o),
(186,651,cs),
(186,717,o),
(221,742,o),
(270,741,c),
(299,741,l),
(299,812,l),
(246,812,ls),
(171,812,o),
(104,784,o),
(103,660,c),
(104,582,o),
(134,522,o),
(134,458,cs),
(134,412,o),
(103,375,o),
(34,372,c),
(34,308,l),
(108,304,o),
(134,262,o),
(134,212,cs),
(134,144,o),
(104,79,o),
(103,-1,c),
(104,-125,o),
(172,-146,o),
(246,-146,cs)
);
}
);
width = 355;
},
{
layerId = "DBC57AB7-6BBF-4709-9065-B7AB4DBB4D97";
shapes = (
{
closed = 1;
nodes = (
(272,-146,l),
(272,-116,l),
(240,-116,l),
(174,-118,o),
(140,-88,o),
(140,-6,cs),
(140,64,o),
(168,146,o),
(168,224,cs),
(168,284,o),
(146,330,o),
(106,344,c),
(106,348,l),
(146,360,o),
(168,398,o),
(168,456,cs),
(168,536,o),
(140,592,o),
(140,660,cs),
(140,736,o),
(168,786,o),
(240,784,c),
(272,784,l),
(272,812,l),
(238,812,ls),
(168,812,o),
(108,786,o),
(106,664,c),
(108,588,o),
(136,522,o),
(136,444,cs),
(136,404,o),
(108,360,o),
(36,360,c),
(36,334,l),
(108,332,o),
(136,280,o),
(136,234,cs),
(136,160,o),
(108,68,o),
(106,-10,c),
(108,-132,o),
(170,-146,o),
(238,-146,cs)
);
}
);
width = 312;
}
);
rightKerningGroup = PCT_BRACELEFT;
unicode = 123;
}
{
glyphname = bar;
layers = (
{
layerId = "577C2F50-0FC2-4837-984D-4FA1DCF6681B";
shapes = (
{
closed = 1;
nodes = (
(88,-206,l),
(204,-206,l),
(204,812,l),
(88,812,l)
);
}
);
width = 292;
},
{
layerId = "E6E1701F-FDD6-4B99-AB09-C7A03B8D4814";
shapes = (
{
closed = 1;
nodes = (
(100,-206,l),
(173,-206,l),
(173,812,l),
(100,812,l)
);
}
);
width = 273;
},
{
layerId = "DBF002CB-ACA5-4984-BB80-D7F3ACD5E203";
shapes = (
{
closed = 1;
nodes = (
(112,-206,l),
(142,-206,l),
(142,812,l),
(112,812,l)
);
}
);
width = 254;
}
);
unicode = 124;
}
{
glyphname = braceright;
layers = (
{
layerId = "6324EBA6-AEA3-4E83-9504-1204FE3965A0";
shapes = (
{
closed = 1;
nodes = (
(72,812,l),
(72,696,l),
(98,696,ls),
(114,696,o),
(166,706,o),
(166,642,cs),
(166,600,o),
(138,544,o),
(140,466,c),
(138,382,o),
(170,346,o),
(224,334,c),
(224,330,l),
(170,316,o),
(138,284,o),
(140,208,c),
(138,134,o),
(166,70,o),
(166,24,cs),
(166,-32,o),
(124,-32,o),
(98,-32,cs),
(72,-32,l),
(72,-146,l),
(144,-146,ls),
(224,-146,o),
(298,-116,o),
(298,10,cs),
(298,90,o),
(266,144,o),
(266,194,cs),
(266,246,o),
(300,276,o),
(366,282,c),
(366,384,l),
(290,390,o),
(266,422,o),
(266,476,cs),
(266,538,o),
(298,576,o),
(298,658,cs),
(298,784,o),
(224,812,o),
(144,812,cs)
);
}
);
width = 398;
},
{
layerId = "94997179-B2A0-4125-8E55-188F48EDA314";
shapes = (
{
closed = 1;
nodes = (
(56,812,l),
(56,741,l),
(85,741,l),
(134,742,o),
(169,717,o),
(169,651,cs),
(169,594,o),
(141,534,o),
(142,457,c),
(141,390,o),
(168,355,o),
(215,342,c),
(215,338,l),
(168,325,o),
(141,284,o),
(142,212,c),
(141,134,o),
(169,65,o),
(169,9,cs),
(169,-64,o),
(126,-74,o),
(85,-73,c),
(56,-73,l),
(56,-146,l),
(109,-146,ls),
(183,-146,o),
(251,-125,o),
(252,-1,c),
(251,79,o),
(221,144,o),
(221,212,cs),
(221,262,o),
(247,304,o),
(321,308,c),
(321,372,l),
(252,375,o),
(221,412,o),
(221,458,cs),
(221,522,o),
(251,582,o),
(252,660,c),
(251,784,o),
(184,812,o),
(109,812,cs)
);
}
);
width = 355;
},
{
layerId = "DBC57AB7-6BBF-4709-9065-B7AB4DBB4D97";
shapes = (
{
closed = 1;
nodes = (
(40,812,l),
(40,782,l),
(72,782,l),
(138,784,o),
(172,754,o),
(172,672,cs),
(172,602,o),
(144,520,o),
(144,442,cs),
(144,382,o),
(166,336,o),
(206,322,c),
(206,318,l),
(166,306,o),
(144,268,o),
(144,210,cs),
(144,130,o),
(172,74,o),
(172,6,cs),
(172,-70,o),
(144,-120,o),
(72,-118,c),
(40,-118,l),
(40,-146,l),
(74,-146,ls),
(144,-146,o),
(204,-120,o),
(206,2,c),
(204,78,o),
(176,144,o),
(176,222,cs),
(176,262,o),
(204,306,o),
(276,306,c),
(276,332,l),
(204,334,o),
(176,386,o),
(176,432,cs),
(176,506,o),
(204,598,o),
(206,676,c),
(204,798,o),
(142,812,o),
(74,812,cs)
);
}
);
width = 312;
}
);
leftKerningGroup = PCT_BRACERIGHT;
unicode = 125;
}
{
glyphname = asciitilde;
layers = (
{
layerId = "3717EFD3-6B64-4297-9C46-7E4C78651CC4";
shapes = (
{
closed = 1;
nodes = (
(170,196,l),
(172,240,o),
(200,276,o),
(228,276,cs),
(272,276,o),
(312,196,o),
(412,196,cs),
(518,196,o),
(584,290,o),
(584,422,c),
(448,422,l),
(446,376,o),
(418,338,o),
(386,338,cs),
(342,338,o),
(302,422,o),
(206,422,cs),
(106,422,o),
(34,332,o),
(32,196,c)
);
}
);
width = 616;
},
{
layerId = "50A05132-A89A-4BC5-B81A-F4657F37FF17";
shapes = (
{
closed = 1;
nodes = (
(119,219,l),
(120,266,o),
(152,307,o),
(195,307,cs),
(259,307,o),
(291,219,o),
(389,219,c),
(479,220,o),
(537,295,o),
(537,394,c),
(453,394,l),
(452,347,o),
(420,305,o),
(376,305,cs),
(315,305,o),
(279,394,o),
(183,394,cs),
(96,394,o),
(36,320,o),
(34,219,c)
);
}
);
width = 571;
},
{
layerId = "10DD257C-652B-4320-8EE1-77E209923FFD";
shapes = (
{
closed = 1;
nodes = (
(68,242,l),
(68,292,o),
(104,338,o),
(162,338,cs),
(246,338,o),
(270,242,o),
(366,242,c),
(440,244,o),
(490,300,o),
(490,366,c),
(458,366,l),
(458,318,o),
(422,272,o),
(366,272,cs),
(288,272,o),
(256,366,o),
(160,366,cs),
(86,366,o),
(38,308,o),
(36,242,c)
);
}
);
width = 526;
}
);
unicode = 126;
}
{
glyphname = exclamdown;
layers = (
{
layerId = "6324EBA6-AEA3-4E83-9504-1204FE3965A0";
shapes = (
{
closed = 1;
nodes = (
(254,276,l),
(114,276,l),
(90,-208,l),
(278,-208,l)
);
},
{
closed = 1;
nodes = (
(127,520,o),
(83,476,o),
(83,420,cs),
(83,364,o),
(127,320,o),
(183,320,cs),
(239,320,o),
(283,364,o),
(283,420,cs),
(283,476,o),
(239,520,o),
(183,520,cs)
);
}
);
width = 368;
},
{
layerId = "94997179-B2A0-4125-8E55-188F48EDA314";
shapes = (
{
closed = 1;
nodes = (
(198,287,l),
(113,287,l),
(101,-192,l),
(210,-192,l)
);
},
{
closed = 1;
nodes = (
(116,536,o),
(85,505,o),
(85,465,cs),
(85,425,o),
(116,394,o),
(156,394,cs),
(196,394,o),
(227,425,o),
(227,465,cs),
(227,505,o),
(196,536,o),
(156,536,cs)
);
}
);
width = 313;
},
{
layerId = "DBC57AB7-6BBF-4709-9065-B7AB4DBB4D97";
shapes = (
{
closed = 1;
nodes = (
(144,266,l),
(114,266,l),
(114,-208,l),
(144,-208,l)
);
},
{
closed = 1;
nodes = (
(106,520,o),
(88,502,o),
(88,478,cs),
(88,454,o),
(106,436,o),
(130,436,cs),
(154,436,o),
(172,454,o),
(172,478,cs),
(172,502,o),
(154,520,o),
(130,520,cs)
);
}
);
width = 258;
}
);
unicode = 161;
}
{
glyphname = cent;
layers = (
{
anchors = (
{
name = base;
position = "{408, 0}";
},
{
name = bottom;
position = "{300, 0}";
},
{
name = cedilla;
position = "{306, 0}";
},
{
name = top;
position = "{306, 528}";
}
);
layerId = "577C2F50-0FC2-4837-984D-4FA1DCF6681B";
shapes = (
{
closed = 1;
nodes = (
(248,638,l),
(248,496,l),
(258,428,l),
(258,106,l),
(248,20,l),
(248,-124,l),
(330,-124,l),
(330,18,l),
(320,106,l),
(320,428,l),
(330,494,l),
(330,638,l)
);
},
{
closed = 1;
nodes = (
(367,-6,o),
(420,12,o),
(456,34,c),
(397,176,l),
(376,156,o),
(340,142,o),
(304,142,cs),
(234,142,o),
(188,198,o),
(188,266,cs),
(188,336,o),
(236,388,o),
(304,388,cs),
(340,388,o),
(371,374,o),
(395,350,c),
(456,488,l),
(412,518,o),
(357,536,o),
(300,536,cs),
(158,536,o),
(32,422,o),
(32,266,cs),
(32,112,o),
(156,-6,o),
(308,-6,cs)
);
}
);
width = 476;
},
{
anchors = (
{
name = base;
position = "{402, 0}";
},
{
name = bottom;
position = "{292, 0}";
},
{
name = cedilla;
position = "{298, 0}";
},
{
name = top;
position = "{294, 520}";
}
);
layerId = "E6E1701F-FDD6-4B99-AB09-C7A03B8D4814";
shapes = (
{
closed = 1;
nodes = (
(236,638,l),
(236,498,l),
(236,460,l),
(236,34,l),
(236,-8,l),
(236,-124,l),
(316,-124,l),
(316,-8,l),
(316,34,l),
(316,460,l),
(316,498,l),
(316,638,l)
);
},
{
closed = 1;
nodes = (
(360,-6,o),
(414,14,o),
(454,44,c),
(418,130,l),
(392,104,o),
(348,84,o),
(300,84,cs),
(208,84,o),
(138,162,o),
(138,262,cs),
(138,366,o),
(212,440,o),
(300,440,cs),
(338,440,o),
(386,424,o),
(416,394,c),
(452,478,l),
(410,510,o),
(352,528,o),
(298,528,cs),
(166,528,o),
(44,418,o),
(44,262,cs),
(44,110,o),
(162,-6,o),
(300,-6,cs)
);
}
);
width = 486;
},
{
anchors = (
{
name = base;
position = "{386, 0}";
},
{
name = bottom;
position = "{276, 0}";
},
{
name = cedilla;
position = "{284, 0}";
},
{
name = top;
position = "{276, 512}";
}
);
layerId = "DBF002CB-ACA5-4984-BB80-D7F3ACD5E203";
shapes = (
{
closed = 1;
nodes = (
(260,638,l),
(260,502,l),
(260,490,l),
(260,26,l),
(260,16,l),
(260,-124,l),
(288,-124,l),
(288,16,l),
(288,26,l),
(288,490,l),
(288,504,l),
(288,638,l)
);
},
{
closed = 1;
nodes = (
(344,-6,o),
(398,14,o),
(440,52,c),
(426,82,l),
(400,50,o),
(346,24,o),
(288,24,cs),
(178,24,o),
(86,126,o),
(86,258,cs),
(86,394,o),
(184,492,o),
(290,492,cs),
(330,492,o),
(392,474,o),
(424,438,c),
(438,468,l),
(398,500,o),
(340,520,o),
(290,520,cs),
(170,520,o),
(56,412,o),
(56,258,cs),
(56,106,o),
(164,-6,o),
(286,-6,cs)
);
}
);
width = 484;
}
);
unicode = 162;
}
{
glyphname = sterling;
layers = (
{
layerId = "577C2F50-0FC2-4837-984D-4FA1DCF6681B";
shapes = (
{
closed = 1;
nodes = (
(554,0,l),
(554,144,l),
(242,144,l),
(242,150,l),
(264,176,o),
(282,234,o),
(282,306,cs),
(282,382,o),
(270,432,o),
(270,492,cs),
(270,564,o),
(300,578,o),
(344,578,cs),
(384,578,o),
(444,562,o),
(478,520,c),
(538,666,l),
(478,706,o),
(404,726,o),
(338,726,cs),
(204,726,o),
(98,642,o),
(98,512,cs),
(98,434,o),
(128,384,o),
(128,298,cs),
(128,196,o),
(76,124,o),
(40,114,c),
(40,0,l)
);
},
{
closed = 1;
nodes = (
(458,302,l),
(458,426,l),
(40,426,l),
(40,302,l)
);
}
);
width = 616;
},
{
layerId = "E6E1701F-FDD6-4B99-AB09-C7A03B8D4814";
shapes = (
{
closed = 1;
nodes = (
(504,0,l),
(504,92,l),
(176,92,l),
(176,96,l),
(210,134,o),
(234,214,o),
(234,292,cs),
(234,374,o),
(206,452,o),
(206,518,cs),
(206,602,o),
(256,634,o),
(316,632,c),
(366,632,o),
(434,610,o),
(472,568,c),
(508,664,l),
(450,706,o),
(376,728,o),
(312,728,cs),
(198,728,o),
(106,648,o),
(104,528,c),
(104,450,o),
(142,378,o),
(142,288,cs),
(142,188,o),
(92,90,o),
(52,70,c),
(52,0,l)
);
},
{
closed = 1;
nodes = (
(420,324,l),
(420,412,l),
(60,412,l),
(60,324,l)
);
}
);
width = 560;
},
{
layerId = "DBF002CB-ACA5-4984-BB80-D7F3ACD5E203";
shapes = (
{
closed = 1;
nodes = (
(460,0,l),
(460,28,l),
(110,28,l),
(110,32,l),
(154,80,o),
(186,194,o),
(184,278,c),
(186,368,o),
(142,470,o),
(142,542,cs),
(142,640,o),
(210,700,o),
(282,698,c),
(344,698,o),
(412,674,o),
(456,628,c),
(468,660,l),
(416,706,o),
(346,728,o),
(282,728,cs),
(190,728,o),
(112,654,o),
(110,544,c),
(112,468,o),
(154,370,o),
(154,278,cs),
(154,162,o),
(102,54,o),
(62,24,c),
(62,0,l)
);
},
{
closed = 1;
nodes = (
(366,356,l),
(366,384,l),
(78,384,l),
(78,356,l)
);
}
);
width = 504;
}
);
unicode = 163;
}
{
glyphname = currency;
layers = (
{
layerId = "3717EFD3-6B64-4297-9C46-7E4C78651CC4";
shapes = (
{
closed = 1;
nodes = (
(90,214,o),
(190,120,o),
(320,120,cs),
(452,120,o),
(552,214,o),
(550,340,c),
(552,466,o),
(452,560,o),
(320,560,cs),
(190,560,o),
(90,466,o),
(90,340,cs)
);
},
{
closed = 1;
nodes = (
(418,284,o),
(376,240,o),
(320,240,cs),
(266,240,o),
(224,284,o),
(224,340,cs),
(224,396,o),
(266,438,o),
(320,438,cs),
(376,438,o),
(418,396,o),
(418,340,cs)
);
},
{
closed = 1;
nodes = (
(232,528,l),
(130,636,l),
(42,546,l),
(134,446,l)
);
},
{
closed = 1;
nodes = (
(508,446,l),
(600,546,l),
(514,636,l),
(410,528,l)
);
},
{
closed = 1;
nodes = (
(410,154,l),
(514,44,l),
(600,130,l),
(506,230,l)
);
},
{
closed = 1;
nodes = (
(136,230,l),
(42,130,l),
(130,44,l),
(234,154,l)
);
}
);
width = 642;
},
{
layerId = "50A05132-A89A-4BC5-B81A-F4657F37FF17";
shapes = (
{
closed = 1;
nodes = (
(86,218,o),
(176,131,o),
(294,131,cs),
(413,131,o),
(502,218,o),
(501,333,c),
(502,450,o),
(413,536,o),
(294,536,cs),
(176,536,o),
(86,450,o),
(86,333,cs)
);
},
{
closed = 1;
nodes = (
(420,261,o),
(366,207,o),
(294,206,c),
(223,207,o),
(169,261,o),
(169,333,cs),
(169,406,o),
(223,460,o),
(294,459,c),
(366,460,o),
(420,406,o),
(420,333,cs)
);
},
{
closed = 1;
nodes = (
(192,498,l),
(100,600,l),
(46,541,l),
(133,446,l)
);
},
{
closed = 1;
nodes = (
(455,446,l),
(543,541,l),
(489,600,l),
(396,498,l)
);
},
{
closed = 1;
nodes = (
(396,169,l),
(489,67,l),
(543,122,l),
(454,219,l)
);
},
{
closed = 1;
nodes = (
(134,219,l),
(46,122,l),
(100,67,l),
(193,169,l)
);
}
);
width = 588;
},
{
layerId = "10DD257C-652B-4320-8EE1-77E209923FFD";
shapes = (
{
closed = 1;
nodes = (
(82,222,o),
(162,142,o),
(268,142,cs),
(374,142,o),
(452,222,o),
(452,326,cs),
(452,434,o),
(374,512,o),
(268,512,cs),
(162,512,o),
(82,434,o),
(82,326,cs)
);
},
{
closed = 1;
nodes = (
(422,238,o),
(356,174,o),
(268,172,c),
(180,174,o),
(114,238,o),
(114,326,cs),
(114,416,o),
(180,482,o),
(268,480,c),
(356,482,o),
(422,416,o),
(422,326,cs)
);
},
{
closed = 1;
nodes = (
(152,468,l),
(70,564,l),
(50,536,l),
(132,446,l)
);
},
{
closed = 1;
nodes = (
(402,446,l),
(486,536,l),
(464,564,l),
(382,468,l)
);
},
{
closed = 1;
nodes = (
(382,184,l),
(464,90,l),
(486,114,l),
(402,208,l)
);
},
{
closed = 1;
nodes = (
(132,208,l),
(50,114,l),
(70,90,l),
(152,184,l)
);
}
);
width = 534;
}
);
unicode = 164;
}
{
glyphname = yen;
layers = (
{
anchors = (
{
name = bottom;
position = "{302, -24}";
},
{
name = top;
position = "{300, 740}";
}
);
layerId = "577C2F50-0FC2-4837-984D-4FA1DCF6681B";
shapes = (
{
closed = 1;
nodes = (
(66,358,l),
(66,276,l),
(534,276,l),
(534,358,l)
);
},
{
closed = 1;
nodes = (
(66,206,l),
(66,124,l),
(534,124,l),
(534,206,l)
);
},
{
closed = 1;
nodes = (
(222,0,l),
(378,0,l),
(378,276,l),
(588,716,l),
(410,716,l),
(362,594,l),
(300,428,l),
(296,428,l),
(236,594,l),
(188,716,l),
(8,716,l),
(222,276,l)
);
}
);
width = 598;
},
{
anchors = (
{
name = bottom;
position = "{288, -24}";
},
{
name = top;
position = "{286, 746}";
}
);
layerId = "E6E1701F-FDD6-4B99-AB09-C7A03B8D4814";
shapes = (
{
closed = 1;
nodes = (
(80,366,l),
(80,284,l),
(496,284,l),
(496,366,l)
);
},
{
closed = 1;
nodes = (
(80,218,l),
(80,136,l),
(496,136,l),
(496,218,l)
);
},
{
closed = 1;
nodes = (
(236,0,l),
(340,0,l),
(340,288,l),
(548,716,l),
(442,716,l),
(360,550,l),
(288,396,l),
(284,396,l),
(212,550,l),
(130,716,l),
(22,716,l),
(236,288,l)
);
}
);
width = 572;
},
{
anchors = (
{
name = bottom;
position = "{276, -24}";
},
{
name = top;
position = "{274, 750}";
}
);
layerId = "DBF002CB-ACA5-4984-BB80-D7F3ACD5E203";
shapes = (
{
closed = 1;
nodes = (
(92,326,l),
(92,298,l),
(454,298,l),
(454,326,l)
);
},
{
closed = 1;
nodes = (
(92,220,l),
(92,192,l),
(454,192,l),
(454,220,l)
);
},
{
closed = 1;
nodes = (
(256,0,l),
(290,0,l),
(290,300,l),
(508,716,l),
(474,716,l),
(358,490,l),
(276,332,l),
(270,332,l),
(188,490,l),
(74,716,l),
(36,716,l),
(256,300,l)
);
}
);
width = 544;
}
);
unicode = 165;
}
{
glyphname = brokenbar;
layers = (
{
layerId = "6324EBA6-AEA3-4E83-9504-1204FE3965A0";
shapes = (
{
closed = 1;
nodes = (
(88,394,l),
(202,394,l),
(202,812,l),
(88,812,l)
);
},
{
closed = 1;
nodes = (
(88,-206,l),
(202,-206,l),
(202,212,l),
(88,212,l)
);
}
);
width = 290;
},
{
layerId = "94997179-B2A0-4125-8E55-188F48EDA314";
shapes = (
{
closed = 1;
nodes = (
(100,379,l),
(172,379,l),
(172,812,l),
(100,812,l)
);
},
{
closed = 1;
nodes = (
(100,-206,l),
(172,-206,l),
(172,228,l),
(100,228,l)
);
}
);
width = 272;
},
{
layerId = "DBC57AB7-6BBF-4709-9065-B7AB4DBB4D97";
shapes = (
{
closed = 1;
nodes = (
(112,364,l),
(142,364,l),
(142,812,l),
(112,812,l)
);
},
{
closed = 1;
nodes = (
(112,-206,l),
(142,-206,l),
(142,244,l),
(112,244,l)
);
}
);
width = 254;
}
);
unicode = 166;
}
{
glyphname = section;
layers = (
{
layerId = "3717EFD3-6B64-4297-9C46-7E4C78651CC4";
shapes = (
{
closed = 1;
nodes = (
(418,-136,o),
(514,-60,o),
(514,56,cs),
(514,144,o),
(456,188,o),
(380,206,c),
(380,158,l),
(472,190,o),
(526,234,o),
(526,324,cs),
(526,418,o),
(468,454,o),
(376,488,c),
(314,508,o),
(254,522,o),
(252,566,c),
(254,590,o),
(272,608,o),
(300,606,c),
(344,608,o),
(370,572,o),
(382,542,c),
(506,606,l),
(474,684,o),
(388,732,o),
(294,732,cs),
(178,732,o),
(100,658,o),
(98,558,c),
(100,474,o),
(158,438,o),
(226,418,c),
(226,464,l),
(136,434,o),
(86,370,o),
(86,294,cs),
(86,214,o),
(142,148,o),
(246,118,c),
(300,104,o),
(358,96,o),
(358,46,cs),
(358,14,o),
(336,-4,o),
(304,-2,c),
(256,-4,o),
(222,40,o),
(206,68,c),
(82,-8,l),
(110,-80,o),
(200,-136,o),
(300,-136,cs)
);
},
{
closed = 1;
nodes = (
(250,236,o),
(218,264,o),
(218,304,cs),
(218,344,o),
(252,372,o),
(302,372,cs),
(354,372,o),
(386,344,o),
(386,304,cs),
(386,264,o),
(354,236,o),
(300,236,cs)
);
}
);
width = 578;
},
{
layerId = "50A05132-A89A-4BC5-B81A-F4657F37FF17";
shapes = (
{
closed = 1;
nodes = (
(393,-134,o),
(473,-58,o),
(472,40,c),
(473,121,o),
(415,164,o),
(360,184,c),
(360,158,l),
(430,183,o),
(475,234,o),
(474,310,c),
(475,409,o),
(401,452,o),
(340,474,cs),
(288,493,o),
(206,510,o),
(206,580,cs),
(206,627,o),
(243,647,o),
(282,648,c),
(323,647,o),
(366,623,o),
(388,584,c),
(462,624,l),
(436,684,o),
(358,730,o),
(280,730,cs),
(183,730,o),
(113,664,o),
(114,584,c),
(113,512,o),
(164,454,o),
(228,432,c),
(226,456,l),
(148,432,o),
(103,374,o),
(102,302,c),
(103,224,o),
(160,171,o),
(238,144,cs),
(290,125,o),
(376,111,o),
(376,32,cs),
(376,-16,o),
(337,-51,o),
(286,-52,c),
(236,-51,o),
(187,-18,o),
(166,28,c),
(90,-18,l),
(119,-86,o),
(201,-134,o),
(286,-134,cs)
);
},
{
closed = 1;
nodes = (
(232,212,o),
(191,253,o),
(192,306,c),
(191,360,o),
(234,397,o),
(290,396,c),
(345,397,o),
(386,358,o),
(386,304,cs),
(386,251,o),
(343,212,o),
(288,212,cs)
);
}
);
width = 552;
},
{
layerId = "10DD257C-652B-4320-8EE1-77E209923FFD";
shapes = (
{
closed = 1;
nodes = (
(350,-132,o),
(424,-74,o),
(424,22,cs),
(424,100,o),
(376,144,o),
(318,168,c),
(318,162,l),
(380,174,o),
(438,224,o),
(438,306,cs),
(438,412,o),
(356,452,o),
(294,460,c),
(218,476,o),
(156,522,o),
(156,598,cs),
(156,664,o),
(200,698,o),
(266,696,c),
(334,698,o),
(374,660,o),
(394,624,c),
(420,644,l),
(400,682,o),
(346,728,o),
(266,728,cs),
(180,728,o),
(126,676,o),
(126,600,cs),
(126,528,o),
(174,470,o),
(230,448,c),
(230,454,l),
(166,444,o),
(112,388,o),
(110,310,c),
(112,222,o),
(174,166,o),
(264,154,cs),
(310,148,o),
(394,112,o),
(392,22,c),
(394,-52,o),
(334,-104,o),
(264,-102,c),
(202,-104,o),
(148,-64,o),
(126,-8,c),
(98,-28,l),
(124,-82,o),
(184,-132,o),
(264,-132,cs)
);
},
{
closed = 1;
nodes = (
(200,184,o),
(142,238,o),
(142,306,cs),
(142,380,o),
(200,432,o),
(278,434,c),
(354,432,o),
(408,380,o),
(406,306,c),
(408,238,o),
(354,184,o),
(278,182,c)
);
}
);
width = 528;
}
);
unicode = 167;
}
{
glyphname = copyright;
layers = (
{
layerId = "6324EBA6-AEA3-4E83-9504-1204FE3965A0";
shapes = (
{
closed = 1;
nodes = (
(474,156,o),
(530,194,o),
(566,242,c),
(470,308,l),
(456,288,o),
(426,270,o),
(398,270,cs),
(356,270,o),
(314,312,o),
(314,362,cs),
(314,404,o),
(344,450,o),
(400,450,cs),
(434,450,o),
(454,434,o),
(466,416,c),
(568,476,l),
(526,532,o),
(468,564,o),
(400,564,cs),
(288,564,o),
(198,482,o),
(198,362,cs),
(198,250,o),
(280,156,o),
(398,156,cs)
);
},
{
closed = 1;
nodes = (
(26,146,o),
(182,-8,o),
(388,-8,cs),
(596,-8,o),
(752,146,o),
(752,358,cs),
(752,572,o),
(596,732,o),
(388,732,cs),
(182,732,o),
(26,572,o),
(24,358,cs)
);
},
{
closed = 1;
nodes = (
(650,202,o),
(540,86,o),
(390,86,cs),
(240,86,o),
(128,202,o),
(128,358,cs),
(128,516,o),
(240,634,o),
(390,634,cs),
(540,634,o),
(650,516,o),
(650,358,cs)
);
}
);
width = 794;
},
{
layerId = "94997179-B2A0-4125-8E55-188F48EDA314";
shapes = (
{
closed = 1;
nodes = (
(487,154,o),
(543,194,o),
(572,234,c),
(511,274,l),
(491,250,o),
(458,225,o),
(414,225,cs),
(345,225,o),
(286,288,o),
(285,362,c),
(286,433,o),
(340,493,o),
(415,493,cs),
(448,493,o),
(486,481,o),
(508,445,c),
(573,482,l),
(538,534,o),
(480,566,o),
(414,567,c),
(305,566,o),
(213,481,o),
(213,362,cs),
(213,245,o),
(303,154,o),
(412,154,cs)
);
},
{
closed = 1;
nodes = (
(48,148,o),
(204,-8,o),
(411,-8,cs),
(619,-8,o),
(775,148,o),
(775,359,cs),
(775,572,o),
(619,730,o),
(411,730,cs),
(204,730,o),
(48,572,o),
(47,359,cs)
);
},
{
closed = 1;
nodes = (
(708,184,o),
(582,54,o),
(412,53,cs),
(242,54,o),
(114,184,o),
(114,359,cs),
(114,536,o),
(242,668,o),
(412,667,cs),
(582,668,o),
(708,536,o),
(708,359,cs)
);
}
);
width = 822;
},
{
layerId = "DBC57AB7-6BBF-4709-9065-B7AB4DBB4D97";
shapes = (
{
closed = 1;
nodes = (
(500,152,o),
(556,194,o),
(578,226,c),
(552,240,l),
(526,212,o),
(490,180,o),
(430,180,cs),
(334,180,o),
(258,264,o),
(256,362,c),
(258,462,o),
(336,536,o),
(430,536,cs),
(462,536,o),
(518,528,o),
(550,474,c),
(578,488,l),
(550,536,o),
(492,568,o),
(428,570,c),
(322,568,o),
(228,480,o),
(228,362,cs),
(228,240,o),
(326,152,o),
(426,152,cs)
);
},
{
closed = 1;
nodes = (
(54,150,o),
(210,-8,o),
(418,-8,cs),
(626,-8,o),
(782,150,o),
(782,360,cs),
(782,572,o),
(626,728,o),
(418,728,cs),
(210,728,o),
(54,572,o),
(54,360,cs)
);
},
{
closed = 1;
nodes = (
(750,166,o),
(608,22,o),
(418,20,cs),
(228,22,o),
(84,166,o),
(84,360,cs),
(84,556,o),
(228,702,o),
(418,700,cs),
(608,702,o),
(750,556,o),
(750,360,cs)
);
}
);
width = 850;
}
);
leftKerningGroup = LAT_O_UC;
rightKerningGroup = LAT_O_UC;
unicode = 169;
}
{
glyphname = ordfeminine;
layers = (
{
anchors = (
{
name = bottom;
position = "{209, 393}";
},
{
name = ogonek;
position = "{348, 389}";
},
{
name = top;
position = "{209, 720}";
},
{
name = topright;
position = "{394, 720}";
}
);
layerId = "6324EBA6-AEA3-4E83-9504-1204FE3965A0";
shapes = (
{
closed = 1;
nodes = (
(326,397,l),
(326,615,ls),
(326,690,o),
(276,728,o),
(177,728,cs),
(127,728,o),
(72,717,o),
(39,697,c),
(80,610,l),
(100,623,o),
(139,634,o),
(167,634,cs),
(194,634,o),
(207,627,o),
(207,612,cs),
(207,592,o),
(188,585,o),
(138,585,cs),
(70,585,o),
(21,545,o),
(20,485,c),
(21,430,o),
(64,392,o),
(126,392,cs),
(171,392,o),
(209,409,o),
(223,435,c),
(228,435,l),
(217,497,l),
(206,483,o),
(191,477,o),
(173,477,cs),
(152,477,o),
(139,486,o),
(139,501,cs),
(139,515,o),
(146,520,o),
(165,520,cs),
(210,520,l),
(210,487,l),
(223,435,l),
(223,397,l)
);
}
);
width = 349;
},
{
anchors = (
{
name = bottom;
position = "{197, 404}";
},
{
name = ogonek;
position = "{340, 400}";
},
{
name = top;
position = "{197, 721}";
},
{
name = topright;
position = "{372, 721}";
}
);
layerId = "94997179-B2A0-4125-8E55-188F48EDA314";
shapes = (
{
closed = 1;
nodes = (
(301,396,l),
(301,604,ls),
(301,682,o),
(258,727,o),
(181,727,cs),
(138,727,o),
(87,714,o),
(57,696,c),
(81,641,l),
(107,657,o),
(144,668,o),
(175,668,cs),
(210,668,o),
(237,653,o),
(237,620,cs),
(237,603,o),
(218,592,o),
(190,592,cs),
(92,592,o),
(35,553,o),
(36,488,c),
(35,430,o),
(79,391,o),
(144,391,cs),
(187,391,o),
(225,409,o),
(246,439,c),
(254,439,l),
(244,506,l),
(232,472,o),
(191,446,o),
(151,446,cs),
(121,446,o),
(102,463,o),
(102,489,cs),
(102,520,o),
(137,539,o),
(195,539,cs),
(240,539,l),
(240,498,l),
(248,439,l),
(248,396,l)
);
}
);
width = 330;
},
{
anchors = (
{
name = bottom;
position = "{189, 411}";
},
{
name = ogonek;
position = "{336, 407}";
},
{
name = top;
position = "{189, 722}";
},
{
name = topright;
position = "{360, 722}";
}
);
layerId = "DBC57AB7-6BBF-4709-9065-B7AB4DBB4D97";
shapes = (
{
closed = 1;
nodes = (
(280,397,l),
(280,608,ls),
(280,689,o),
(245,728,o),
(172,728,cs),
(134,728,o),
(84,713,o),
(58,694,c),
(72,665,l),
(96,683,o),
(137,697,o),
(169,697,cs),
(219,697,o),
(247,675,o),
(247,624,cs),
(247,598,o),
(231,588,o),
(196,588,cs),
(97,588,o),
(39,550,o),
(39,487,cs),
(39,432,o),
(83,392,o),
(143,392,cs),
(184,392,o),
(225,412,o),
(249,444,c),
(256,444,l),
(253,497,l),
(229,450,o),
(190,423,o),
(145,423,c),
(104,423,o),
(73,451,o),
(73,487,cs),
(73,531,o),
(120,559,o),
(197,559,cs),
(248,559,l),
(248,485,l),
(250,448,l),
(250,397,l)
);
}
);
width = 304;
}
);
leftKerningGroup = PCT_QUOTE;
rightKerningGroup = PCT_QUOTE;
unicode = 170;
}
{
glyphname = guillemetleft;
layers = (
{
layerId = "6324EBA6-AEA3-4E83-9504-1204FE3965A0";
shapes = (
{
closed = 1;
nodes = (
(420,496,l),
(246,302,l),
(246,240,l),
(420,44,l),
(494,110,l),
(368,270,l),
(494,432,l)
);
},
{
closed = 1;
nodes = (
(214,496,l),
(40,302,l),
(40,240,l),
(214,44,l),
(288,110,l),
(162,270,l),
(288,432,l)
);
}
);
width = 542;
},
{
layerId = "94997179-B2A0-4125-8E55-188F48EDA314";
shapes = (
{
closed = 1;
nodes = (
(375,483,l),
(212,285,l),
(212,250,l),
(375,51,l),
(422,92,l),
(290,268,l),
(422,441,l)
);
},
{
closed = 1;
nodes = (
(203,483,l),
(40,285,l),
(40,250,l),
(203,51,l),
(250,92,l),
(118,268,l),
(250,441,l)
);
}
);
width = 476;
},
{
layerId = "DBC57AB7-6BBF-4709-9065-B7AB4DBB4D97";
shapes = (
{
closed = 1;
nodes = (
(330,470,l),
(178,266,l),
(178,258,l),
(330,58,l),
(350,76,l),
(212,262,l),
(350,452,l)
);
},
{
closed = 1;
nodes = (
(192,470,l),
(40,266,l),
(40,258,l),
(192,58,l),
(212,76,l),
(74,262,l),
(212,452,l)
);
}
);
width = 410;
}
);
leftKerningGroup = PCT_GUILLEFT;
rightKerningGroup = PCT_GUILLEFT;
unicode = 171;
}
{
glyphname = logicalnot;
layers = (
{
layerId = "3717EFD3-6B64-4297-9C46-7E4C78651CC4";
shapes = (
{
closed = 1;
nodes = (
(406,70,l),
(554,70,l),
(554,382,l),
(32,382,l),
(32,234,l),
(406,234,l)
);
}
);
width = 588;
},
{
layerId = "50A05132-A89A-4BC5-B81A-F4657F37FF17";
shapes = (
{
closed = 1;
nodes = (
(411,71,l),
(499,71,l),
(499,350,l),
(32,350,l),
(32,262,l),
(411,262,l)
);
}
);
width = 532;
},
{
layerId = "10DD257C-652B-4320-8EE1-77E209923FFD";
shapes = (
{
closed = 1;
nodes = (
(416,72,l),
(444,72,l),
(444,318,l),
(32,318,l),
(32,290,l),
(416,290,l)
);
}
);
width = 476;
}
);
leftKerningGroup = PCT_EMDASH;
unicode = 172;
}
{
glyphname = registered;
layers = (
{
layerId = "6324EBA6-AEA3-4E83-9504-1204FE3965A0";
shapes = (
{
closed = 1;
nodes = (
(332,452,l),
(408,452,ls),
(436,452,o),
(456,438,o),
(456,412,cs),
(456,388,o),
(438,370,o),
(408,370,cs),
(332,370,l),
(332,284,l),
(382,284,ls),
(492,284,o),
(560,336,o),
(560,420,cs),
(560,500,o),
(498,542,o),
(392,542,cs),
(332,542,l)
);
},
{
closed = 1;
nodes = (
(352,542,l),
(242,542,l),
(242,168,l),
(352,168,l)
);
},
{
closed = 1;
nodes = (
(392,296,l),
(452,168,l),
(572,168,l),
(468,362,l)
);
},
{
closed = 1;
nodes = (
(26,146,o),
(182,-8,o),
(388,-8,cs),
(596,-8,o),
(752,146,o),
(752,358,cs),
(752,572,o),
(596,732,o),
(388,732,cs),
(182,732,o),
(26,572,o),
(24,358,cs)
);
},
{
closed = 1;
nodes = (
(650,202,o),
(540,86,o),
(390,86,cs),
(240,86,o),
(128,202,o),
(128,358,cs),
(128,516,o),
(240,634,o),
(390,634,cs),
(540,634,o),
(650,516,o),
(650,358,cs)
);
}
);
width = 794;
},
{
layerId = "94997179-B2A0-4125-8E55-188F48EDA314";
shapes = (
{
closed = 1;
nodes = (
(322,492,l),
(420,492,ls),
(467,492,o),
(496,468,o),
(496,429,cs),
(496,392,o),
(468,364,o),
(420,364,cs),
(322,364,l),
(322,306,l),
(409,306,ls),
(503,306,o),
(564,358,o),
(564,434,cs),
(564,508,o),
(506,552,o),
(414,552,cs),
(322,552,l)
);
},
{
closed = 1;
nodes = (
(341,552,l),
(270,552,l),
(270,163,l),
(341,163,l)
);
},
{
closed = 1;
nodes = (
(404,312,l),
(495,163,l),
(573,163,l),
(453,355,l)
);
},
{
closed = 1;
nodes = (
(48,148,o),
(204,-8,o),
(411,-8,cs),
(619,-8,o),
(775,148,o),
(775,359,cs),
(775,572,o),
(619,730,o),
(411,730,cs),
(204,730,o),
(48,572,o),
(47,359,cs)
);
},
{
closed = 1;
nodes = (
(708,184,o),
(582,54,o),
(412,53,cs),
(242,54,o),
(114,184,o),
(114,359,cs),
(114,536,o),
(242,668,o),
(412,667,cs),
(582,668,o),
(708,536,o),
(708,359,cs)
);
}
);
width = 822;
},
{
layerId = "DBC57AB7-6BBF-4709-9065-B7AB4DBB4D97";
shapes = (
{
closed = 1;
nodes = (
(312,532,l),
(432,532,ls),
(498,532,o),
(536,498,o),
(536,446,cs),
(536,396,o),
(498,358,o),
(432,358,cs),
(312,358,l),
(312,328,l),
(436,328,ls),
(514,328,o),
(568,380,o),
(568,448,cs),
(568,516,o),
(514,562,o),
(436,562,cs),
(312,562,l)
);
},
{
closed = 1;
nodes = (
(330,562,l),
(298,562,l),
(298,158,l),
(330,158,l)
);
},
{
closed = 1;
nodes = (
(416,328,l),
(538,158,l),
(574,158,l),
(438,348,l)
);
},
{
closed = 1;
nodes = (
(54,150,o),
(210,-8,o),
(418,-8,cs),
(626,-8,o),
(782,150,o),
(782,360,cs),
(782,572,o),
(626,728,o),
(418,728,cs),
(210,728,o),
(54,572,o),
(54,360,cs)
);
},
{
closed = 1;
nodes = (
(750,166,o),
(608,22,o),
(418,20,cs),
(228,22,o),
(84,166,o),
(84,360,cs),
(84,556,o),
(228,702,o),
(418,700,cs),
(608,702,o),
(750,556,o),
(750,360,cs)
);
}
);
width = 850;
}
);
leftKerningGroup = LAT_O_UC;
rightKerningGroup = LAT_O_UC;
unicode = 174;
}
{
glyphname = degree;
layers = (
{
layerId = "577C2F50-0FC2-4837-984D-4FA1DCF6681B";
shapes = (
{
closed = 1;
nodes = (
(302,394,o),
(376,468,o),
(376,560,cs),
(376,654,o),
(302,728,o),
(208,728,cs),
(114,728,o),
(40,654,o),
(40,560,cs),
(40,468,o),
(114,394,o),
(208,394,cs)
);
},
{
closed = 1;
nodes = (
(170,492,o),
(140,522,o),
(140,560,cs),
(140,599,o),
(170,630,o),
(208,630,cs),
(246,630,o),
(276,599,o),
(276,560,cs),
(276,522,o),
(246,492,o),
(208,492,cs)
);
}
);
width = 416;
},
{
layerId = "E6E1701F-FDD6-4B99-AB09-C7A03B8D4814";
shapes = (
{
closed = 1;
nodes = (
(297,407,o),
(368,478,o),
(368,567,cs),
(368,657,o),
(297,728,o),
(206,728,cs),
(117,728,o),
(45,657,o),
(44,567,c),
(45,478,o),
(117,407,o),
(206,407,cs)
);
},
{
closed = 1;
nodes = (
(153,470,o),
(110,513,o),
(110,567,cs),
(110,622,o),
(153,665,o),
(206,665,cs),
(260,665,o),
(302,622,o),
(302,567,cs),
(302,513,o),
(260,470,o),
(206,470,cs)
);
}
);
width = 412;
},
{
layerId = "DBF002CB-ACA5-4984-BB80-D7F3ACD5E203";
shapes = (
{
closed = 1;
nodes = (
(291,420,o),
(360,488,o),
(360,574,cs),
(360,660,o),
(291,728,o),
(204,728,cs),
(119,728,o),
(50,660,o),
(48,574,c),
(50,488,o),
(119,420,o),
(204,420,cs)
);
},
{
closed = 1;
nodes = (
(135,448,o),
(80,504,o),
(80,574,cs),
(80,644,o),
(135,700,o),
(204,700,cs),
(273,700,o),
(328,644,o),
(328,574,cs),
(328,504,o),
(273,448,o),
(204,448,cs)
);
}
);
width = 408;
}
);
leftKerningGroup = PCT_QUOTE;
rightKerningGroup = PCT_QUOTE;
unicode = 176;
}
{
glyphname = plusminus;
layers = (
{
layerId = "577C2F50-0FC2-4837-984D-4FA1DCF6681B";
shapes = (
{
closed = 1;
nodes = (
(32,-2,l),
(554,-2,l),
(554,146,l),
(32,146,l)
);
},
{
closed = 1;
nodes = (
(32,378,l),
(554,378,l),
(554,526,l),
(32,526,l)
);
},
{
closed = 1;
nodes = (
(220,720,l),
(220,186,l),
(368,186,l),
(368,720,l)
);
}
);
width = 588;
},
{
layerId = "E6E1701F-FDD6-4B99-AB09-C7A03B8D4814";
shapes = (
{
closed = 1;
nodes = (
(32,-1,l),
(491,-1,l),
(491,79,l),
(32,79,l)
);
},
{
closed = 1;
nodes = (
(32,328,l),
(491,328,l),
(491,407,l),
(32,407,l)
);
},
{
closed = 1;
nodes = (
(222,606,l),
(222,130,l),
(302,130,l),
(302,606,l)
);
}
);
width = 524;
},
{
layerId = "DBF002CB-ACA5-4984-BB80-D7F3ACD5E203";
shapes = (
{
closed = 1;
nodes = (
(32,0,l),
(444,0,l),
(444,28,l),
(32,28,l)
);
},
{
closed = 1;
nodes = (
(32,290,l),
(444,290,l),
(444,318,l),
(32,318,l)
);
},
{
closed = 1;
nodes = (
(224,520,l),
(224,88,l),
(252,88,l),
(252,520,l)
);
}
);
width = 476;
}
);
unicode = 177;
}
{
glyphname = twosuperior;
layers = (
{
layerId = "3717EFD3-6B64-4297-9C46-7E4C78651CC4";
shapes = (
{
closed = 1;
nodes = (
(52,444,l),
(368,444,l),
(368,560,l),
(318,560,l),
(264,556,l),
(264,560,l),
(278,580,ls),
(320,640,o),
(370,688,o),
(370,758,cs),
(370,842,o),
(302,896,o),
(208,896,cs),
(113,896,o),
(49,842,o),
(41,751,c),
(172,736,l),
(172,762,o),
(188,780,o),
(210,780,cs),
(228,780,o),
(242,768,o),
(242,748,cs),
(242,710,o),
(198,664,o),
(168,624,cs),
(52,468,l)
);
}
);
width = 410;
},
{
layerId = "50A05132-A89A-4BC5-B81A-F4657F37FF17";
shapes = (
{
closed = 1;
nodes = (
(50,444,l),
(350,444,l),
(350,519,l),
(250,519,l),
(190,517,l),
(190,521,l),
(245,589,ls),
(296,654,o),
(343,701,o),
(344,767,c),
(343,845,o),
(281,896,o),
(199,896,cs),
(110,896,o),
(51,838,o),
(47,757,c),
(131,751,l),
(131,791,o),
(160,821,o),
(199,821,cs),
(235,821,o),
(260,794,o),
(260,761,cs),
(260,717,o),
(217,672,o),
(174,618,cs),
(50,464,l)
);
}
);
width = 392;
},
{
layerId = "10DD257C-652B-4320-8EE1-77E209923FFD";
shapes = (
{
closed = 1;
nodes = (
(48,444,l),
(326,444,l),
(326,472,l),
(170,472,l),
(96,472,l),
(96,474,l),
(206,600,ls),
(268,670,o),
(312,716,o),
(312,776,cs),
(312,848,o),
(256,896,o),
(186,896,cs),
(108,896,o),
(54,839,o),
(54,769,c),
(84,768,l),
(84,824,o),
(128,868,o),
(186,868,cs),
(244,868,o),
(282,824,o),
(282,776,cs),
(282,726,o),
(240,682,o),
(180,612,cs),
(48,458,l)
);
}
);
width = 374;
}
);
unicode = 178;
}
{
glyphname = threesuperior;
layers = (
{
layerId = "3717EFD3-6B64-4297-9C46-7E4C78651CC4";
shapes = (
{
closed = 1;
nodes = (
(298,440,o),
(370,494,o),
(370,568,cs),
(370,642,o),
(302,686,o),
(206,686,c),
(206,654,l),
(294,654,o),
(356,694,o),
(356,766,cs),
(356,832,o),
(298,896,o),
(202,896,cs),
(118,896,o),
(52,845,o),
(46,773,c),
(168,762,l),
(168,778,o),
(180,788,o),
(200,788,cs),
(218,788,o),
(230,776,o),
(230,754,cs),
(230,734,o),
(218,716,o),
(190,716,cs),
(158,716,l),
(156,624,l),
(190,624,ls),
(228,624,o),
(242,602,o),
(242,584,cs),
(242,564,o),
(226,548,o),
(202,548,cs),
(182,548,o),
(166,558,o),
(166,576,c),
(37,563,l),
(46,488,o),
(113,440,o),
(204,440,cs)
);
}
);
width = 410;
},
{
layerId = "50A05132-A89A-4BC5-B81A-F4657F37FF17";
shapes = (
{
closed = 1;
nodes = (
(281,440,o),
(350,496,o),
(350,568,cs),
(350,642,o),
(282,690,o),
(193,686,c),
(193,665,l),
(270,660,o),
(330,711,o),
(330,777,cs),
(330,841,o),
(276,896,o),
(195,896,cs),
(116,896,o),
(58,847,o),
(55,776,c),
(133,769,l),
(133,800,o),
(158,821,o),
(191,821,cs),
(227,821,o),
(248,796,o),
(248,767,cs),
(248,734,o),
(224,709,o),
(183,709,cs),
(156,709,l),
(154,642,l),
(177,642,ls),
(235,642,o),
(266,613,o),
(266,578,cs),
(266,544,o),
(235,515,o),
(195,515,cs),
(158,515,o),
(125,538,o),
(125,572,c),
(42,565,l),
(46,491,o),
(111,440,o),
(195,440,cs)
);
}
);
width = 397;
},
{
layerId = "10DD257C-652B-4320-8EE1-77E209923FFD";
shapes = (
{
closed = 1;
nodes = (
(262,440,o),
(324,496,o),
(324,566,cs),
(324,640,o),
(258,692,o),
(178,686,c),
(178,676,l),
(244,670,o),
(298,726,o),
(298,790,cs),
(298,852,o),
(248,896,o),
(184,896,cs),
(112,896,o),
(64,848,o),
(64,786,c),
(90,784,l),
(92,834,o),
(132,868,o),
(182,868,cs),
(232,868,o),
(268,836,o),
(268,788,cs),
(268,740,o),
(228,696,o),
(172,696,cs),
(152,696,l),
(152,668,l),
(162,668,ls),
(242,668,o),
(294,628,o),
(294,568,cs),
(294,510,o),
(246,468,o),
(186,468,cs),
(128,468,o),
(78,506,o),
(78,568,c),
(48,566,l),
(48,490,o),
(112,440,o),
(186,440,cs)
);
}
);
width = 384;
}
);
unicode = 179;
}
{
glyphname = micro;
layers = (
{
layerId = "577C2F50-0FC2-4837-984D-4FA1DCF6681B";
shapes = (
{
closed = 1;
nodes = (
(62,-206,l),
(236,-206,l),
(236,528,l),
(62,528,l)
);
},
{
alignment = -1;
ref = u;
}
);
width = 630;
},
{
anchors = (
{
name = bottom;
position = "{288, 0}";
},
{
name = horn;
position = "{456, 520}";
},
{
name = ogonek;
position = "{508, 0}";
},
{
name = top;
position = "{288, 520}";
}
);
layerId = "E6E1701F-FDD6-4B99-AB09-C7A03B8D4814";
shapes = (
{
closed = 1;
nodes = (
(64,-206,l),
(166,-206,l),
(166,520,l),
(64,520,l)
);
},
{
alignment = -1;
ref = u;
}
);
width = 584;
},
{
layerId = "DBF002CB-ACA5-4984-BB80-D7F3ACD5E203";
shapes = (
{
closed = 1;
nodes = (
(80,-206,l),
(110,-206,l),
(110,512,l),
(80,512,l)
);
},
{
alignment = -1;
ref = u;
}
);
width = 556;
}
);
leftKerningGroup = LAT_P_LC;
rightKerningGroup = LAT_A_LC;
unicode = 181;
}
{
glyphname = paragraph;
layers = (
{
layerId = "6324EBA6-AEA3-4E83-9504-1204FE3965A0";
shapes = (
{
closed = 1;
nodes = (
(504,-124,l),
(636,-124,l),
(636,720,l),
(504,720,l)
);
},
{
closed = 1;
nodes = (
(40,374,o),
(138,278,o),
(270,278,c),
(270,720,l),
(138,720,o),
(40,626,o),
(40,502,cs)
);
},
{
closed = 1;
nodes = (
(270,588,l),
(738,588,l),
(738,720,l),
(270,720,l)
);
},
{
closed = 1;
nodes = (
(270,-124,l),
(400,-124,l),
(400,720,l),
(270,720,l)
);
}
);
width = 754;
},
{
layerId = "94997179-B2A0-4125-8E55-188F48EDA314";
shapes = (
{
closed = 1;
nodes = (
(423,-124,l),
(505,-124,l),
(505,720,l),
(423,720,l)
);
},
{
closed = 1;
nodes = (
(45,401,o),
(133,314,o),
(252,314,c),
(252,720,l),
(133,720,o),
(45,633,o),
(45,517,cs)
);
},
{
closed = 1;
nodes = (
(257,639,l),
(593,639,l),
(593,720,l),
(257,720,l)
);
},
{
closed = 1;
nodes = (
(252,-124,l),
(334,-124,l),
(334,720,l),
(252,720,l)
);
}
);
width = 622;
},
{
layerId = "DBC57AB7-6BBF-4709-9065-B7AB4DBB4D97";
shapes = (
{
closed = 1;
nodes = (
(342,-124,l),
(374,-124,l),
(374,720,l),
(342,720,l)
);
},
{
closed = 1;
nodes = (
(50,428,o),
(128,350,o),
(234,350,c),
(234,720,l),
(128,720,o),
(50,640,o),
(50,532,cs)
);
},
{
closed = 1;
nodes = (
(244,690,l),
(448,690,l),
(448,720,l),
(244,720,l)
);
},
{
closed = 1;
nodes = (
(234,-124,l),
(268,-124,l),
(268,720,l),
(234,720,l)
);
}
);
width = 490;
}
);
unicode = 182;
}
{
glyphname = onesuperior;
layers = (
{
layerId = "6324EBA6-AEA3-4E83-9504-1204FE3965A0";
shapes = (
{
closed = 1;
nodes = (
(254,444,l),
(254,890,l),
(218,890,l),
(40,812,l),
(40,690,l),
(146,732,l),
(126,772,l),
(126,444,l)
);
}
);
width = 310;
},
{
layerId = "94997179-B2A0-4125-8E55-188F48EDA314";
shapes = (
{
closed = 1;
nodes = (
(213,444,l),
(213,890,l),
(187,890,l),
(42,823,l),
(42,742,l),
(146,787,l),
(130,816,l),
(130,444,l)
);
}
);
width = 271;
},
{
layerId = "DBC57AB7-6BBF-4709-9065-B7AB4DBB4D97";
shapes = (
{
closed = 1;
nodes = (
(164,444,l),
(164,890,l),
(150,890,l),
(44,834,l),
(44,804,l),
(144,856,l),
(136,866,l),
(136,444,l)
);
}
);
width = 232;
}
);
unicode = 185;
}
{
glyphname = ordmasculine;
layers = (
{
layerId = "3717EFD3-6B64-4297-9C46-7E4C78651CC4";
shapes = (
{
closed = 1;
nodes = (
(308,392,o),
(384,464,o),
(384,560,cs),
(384,656,o),
(308,728,o),
(206,728,cs),
(104,728,o),
(28,656,o),
(28,560,cs),
(28,464,o),
(104,392,o),
(206,392,cs)
);
},
{
closed = 1;
nodes = (
(174,504,o),
(150,528,o),
(150,560,cs),
(150,592,o),
(174,616,o),
(206,616,cs),
(238,616,o),
(262,592,o),
(262,560,cs),
(262,528,o),
(238,504,o),
(206,504,cs)
);
}
);
width = 412;
},
{
layerId = "50A05132-A89A-4BC5-B81A-F4657F37FF17";
shapes = (
{
closed = 1;
nodes = (
(298,392,o),
(369,464,o),
(369,560,cs),
(369,657,o),
(298,728,o),
(201,728,cs),
(105,728,o),
(33,657,o),
(33,560,cs),
(33,464,o),
(105,392,o),
(201,392,cs)
);
},
{
closed = 1;
nodes = (
(149,463,o),
(110,505,o),
(110,560,cs),
(110,616,o),
(149,657,o),
(201,657,cs),
(253,657,o),
(292,616,o),
(292,560,cs),
(292,505,o),
(253,463,o),
(201,463,cs)
);
}
);
width = 402;
},
{
layerId = "10DD257C-652B-4320-8EE1-77E209923FFD";
shapes = (
{
closed = 1;
nodes = (
(287,392,o),
(354,465,o),
(354,560,cs),
(354,657,o),
(287,728,o),
(196,728,cs),
(107,728,o),
(38,657,o),
(38,560,cs),
(38,465,o),
(107,392,o),
(196,392,cs)
);
},
{
closed = 1;
nodes = (
(123,421,o),
(69,481,o),
(69,560,cs),
(69,641,o),
(123,699,o),
(196,699,cs),
(269,699,o),
(323,641,o),
(323,560,cs),
(323,481,o),
(269,421,o),
(196,421,cs)
);
}
);
width = 392;
}
);
leftKerningGroup = PCT_QUOTE;
rightKerningGroup = PCT_QUOTE;
unicode = 186;
}
{
glyphname = questiondown;
layers = (
{
layerId = "6324EBA6-AEA3-4E83-9504-1204FE3965A0";
shapes = (
{
closed = 1;
nodes = (
(386,-220,o),
(480,-128,o),
(482,-4,c),
(332,-4,l),
(330,-46,o),
(294,-76,o),
(252,-76,cs),
(208,-76,o),
(178,-54,o),
(180,-16,c),
(178,60,o),
(328,94,o),
(330,242,c),
(330,276,l),
(186,276,l),
(186,242,l),
(184,132,o),
(28,106,o),
(30,-36,c),
(28,-146,o),
(116,-220,o),
(244,-220,cs)
);
},
{
closed = 1;
nodes = (
(198,520,o),
(154,476,o),
(154,420,cs),
(154,364,o),
(198,320,o),
(254,320,cs),
(310,320,o),
(354,364,o),
(354,420,cs),
(354,476,o),
(310,520,o),
(254,520,cs)
);
}
);
width = 510;
},
{
layerId = "94997179-B2A0-4125-8E55-188F48EDA314";
shapes = (
{
closed = 1;
nodes = (
(356,-202,o),
(442,-124,o),
(443,-18,c),
(349,-18,l),
(350,-74,o),
(304,-115,o),
(243,-116,c),
(181,-115,o),
(138,-74,o),
(137,-20,c),
(138,78,o),
(296,68,o),
(297,216,c),
(297,286,l),
(203,286,l),
(203,214,l),
(204,115,o),
(45,109,o),
(45,-30,cs),
(45,-128,o),
(130,-202,o),
(243,-202,cs)
);
},
{
closed = 1;
nodes = (
(209,536,o),
(178,505,o),
(178,464,cs),
(178,423,o),
(209,392,o),
(250,392,cs),
(291,392,o),
(322,423,o),
(322,464,cs),
(322,505,o),
(291,536,o),
(250,536,cs)
);
}
);
width = 475;
},
{
layerId = "DBC57AB7-6BBF-4709-9065-B7AB4DBB4D97";
shapes = (
{
closed = 1;
nodes = (
(314,-216,o),
(390,-146,o),
(390,-64,c),
(360,-64,l),
(360,-130,o),
(298,-188,o),
(222,-186,c),
(138,-188,o),
(80,-132,o),
(80,-58,cs),
(80,68,o),
(244,66,o),
(244,214,cs),
(244,266,l),
(214,266,l),
(214,212,ls),
(214,80,o),
(48,82,o),
(50,-58,c),
(48,-150,o),
(120,-216,o),
(216,-216,cs)
);
},
{
closed = 1;
nodes = (
(204,520,o),
(186,502,o),
(186,478,cs),
(186,454,o),
(204,436,o),
(228,436,cs),
(252,436,o),
(270,454,o),
(270,478,cs),
(270,502,o),
(252,520,o),
(228,520,cs)
);
}
);
width = 440;
}
);
leftKerningGroup = PCT_QUESTIONDOWN;
rightKerningGroup = PCT_QUESTIONDOWN;
unicode = 191;
}
{
glyphname = Agrave;
layers = (
{
anchors = (
{
name = _top;
position = "{378, 720}";
},
{
name = top;
position = "{378, 822}";
}
);
layerId = "3717EFD3-6B64-4297-9C46-7E4C78651CC4";
shapes = (
{
closed = 1;
nodes = (
(378,754,l),
(448,824,l),
(270,976,l),
(190,870,l)
);
},
{
alignment = -1;
ref = A;
}
);
width = 756;
},
{
anchors = (
{
name = bottom;
position = "{360, 0}";
},
{
name = ogonek;
position = "{628, 0}";
},
{
name = top;
position = "{360, 822}";
},
{
name = _top;
position = "{360, 720}";
}
);
layerId = "50A05132-A89A-4BC5-B81A-F4657F37FF17";
shapes = (
{
closed = 1;
nodes = (
(360,757,l),
(406,804,l),
(248,947,l),
(198,883,l)
);
},
{
alignment = -1;
ref = A;
}
);
width = 718;
},
{
anchors = (
{
name = _top;
position = "{342, 720}";
},
{
name = top;
position = "{342, 822}";
}
);
layerId = "10DD257C-652B-4320-8EE1-77E209923FFD";
shapes = (
{
closed = 1;
nodes = (
(342,760,l),
(364,784,l),
(226,918,l),
(206,896,l)
);
},
{
alignment = -1;
ref = A;
}
);
width = 680;
}
);
leftKerningGroup = LAT_A_UC;
rightKerningGroup = LAT_A_UC;
unicode = 192;
}
{
glyphname = Aacute;
layers = (
{
anchors = (
{
name = top;
position = "{-154, 822}";
}
);
layerId = "3717EFD3-6B64-4297-9C46-7E4C78651CC4";
shapes = (
{
closed = 1;
nodes = (
(378,754,l),
(308,824,l),
(486,976,l),
(566,870,l)
);
},
{
alignment = -1;
ref = A;
}
);
width = 756;
},
{
anchors = (
{
name = bottom;
position = "{360, 0}";
},
{
name = ogonek;
position = "{628, 0}";
},
{
name = top;
position = "{360, 720}";
},
{
name = _top;
position = "{360, 720}";
}
);
layerId = "50A05132-A89A-4BC5-B81A-F4657F37FF17";
shapes = (
{
closed = 1;
nodes = (
(360,757,l),
(314,804,l),
(472,947,l),
(522,883,l)
);
},
{
alignment = -1;
ref = A;
}
);
width = 718;
},
{
anchors = (
{
name = top;
position = "{-218, 822}";
}
);
layerId = "10DD257C-652B-4320-8EE1-77E209923FFD";
shapes = (
{
closed = 1;
nodes = (
(342,760,l),
(320,784,l),
(458,918,l),
(478,896,l)
);
},
{
alignment = -1;
ref = A;
}
);
width = 680;
}
);
leftKerningGroup = LAT_A_UC;
rightKerningGroup = LAT_A_UC;
unicode = 193;
}
{
glyphname = Acircumflex;
layers = (
{
anchors = (
{
name = _top;
position = "{378, 720}";
},
{
name = top;
position = "{378, 924}";
}
);
layerId = "577C2F50-0FC2-4837-984D-4FA1DCF6681B";
shapes = (
{
closed = 1;
nodes = (
(376,846,l),
(378,846,l),
(502,756,l),
(576,834,l),
(394,958,l),
(362,958,l),
(180,834,l),
(256,756,l)
);
},
{
alignment = -1;
ref = A;
}
);
width = 756;
},
{
anchors = (
{
name = bottom;
position = "{360, 0}";
},
{
name = ogonek;
position = "{628, 0}";
},
{
name = top;
position = "{361, 898}";
},
{
name = _top;
position = "{360, 720}";
}
);
layerId = "E6E1701F-FDD6-4B99-AB09-C7A03B8D4814";
shapes = (
{
closed = 1;
nodes = (
(359,851,l),
(363,851,l),
(484,758,l),
(531,809,l),
(374,923,l),
(349,923,l),
(191,809,l),
(239,758,l)
);
},
{
alignment = -1;
ref = A;
}
);
width = 718;
},
{
anchors = (
{
name = _top;
position = "{342, 720}";
},
{
name = top;
position = "{344, 872}";
}
);
layerId = "DBF002CB-ACA5-4984-BB80-D7F3ACD5E203";
shapes = (
{
closed = 1;
nodes = (
(342,856,l),
(348,856,l),
(466,760,l),
(486,784,l),
(354,888,l),
(336,888,l),
(202,784,l),
(222,760,l)
);
},
{
alignment = -1;
ref = A;
}
);
width = 680;
}
);
leftKerningGroup = LAT_A_UC;
rightKerningGroup = LAT_A_UC;
unicode = 194;
}
{
glyphname = Atilde;
layers = (
{
anchors = (
{
name = _top;
position = "{378, 720}";
},
{
name = top;
position = "{378, 920}";
}
);
layerId = "577C2F50-0FC2-4837-984D-4FA1DCF6681B";
shapes = (
{
closed = 1;
nodes = (
(530,768,o),
(574,834,o),
(574,922,c),
(472,922,l),
(472,890,o),
(460,868,o),
(436,868,cs),
(400,868,o),
(384,924,o),
(306,922,c),
(228,924,o),
(184,856,o),
(184,766,c),
(286,766,l),
(286,802,o),
(296,822,o),
(320,822,cs),
(358,822,o),
(374,768,o),
(450,766,c)
);
},
{
alignment = -1;
ref = A;
}
);
width = 756;
},
{
anchors = (
{
name = bottom;
position = "{360, 0}";
},
{
name = ogonek;
position = "{628, 0}";
},
{
name = top;
position = "{360, 888}";
},
{
name = _top;
position = "{360, 720}";
}
);
layerId = "E6E1701F-FDD6-4B99-AB09-C7A03B8D4814";
shapes = (
{
closed = 1;
nodes = (
(490,774,o),
(527,827,o),
(527,898,c),
(461,898,l),
(461,864,o),
(446,838,o),
(419,838,cs),
(380,838,o),
(363,899,o),
(293,898,c),
(232,899,o),
(194,846,o),
(193,773,c),
(260,773,l),
(260,810,o),
(274,834,o),
(299,833,c),
(341,834,o),
(360,774,o),
(426,773,c)
);
},
{
alignment = -1;
ref = A;
}
);
width = 718;
},
{
anchors = (
{
name = _top;
position = "{342, 720}";
},
{
name = top;
position = "{342, 856}";
}
);
layerId = "DBF002CB-ACA5-4984-BB80-D7F3ACD5E203";
shapes = (
{
closed = 1;
nodes = (
(450,780,o),
(480,820,o),
(480,874,c),
(450,874,l),
(450,838,o),
(432,808,o),
(402,808,cs),
(360,808,o),
(342,874,o),
(280,874,cs),
(236,874,o),
(204,836,o),
(202,780,c),
(234,780,l),
(234,818,o),
(252,846,o),
(278,844,c),
(324,846,o),
(346,780,o),
(402,780,cs)
);
},
{
alignment = -1;
ref = A;
}
);
width = 680;
}
);
leftKerningGroup = LAT_A_UC;
rightKerningGroup = LAT_A_UC;
unicode = 195;
}
{
glyphname = Adieresis;
layers = (
{
anchors = (
{
name = _top;
position = "{378, 720}";
},
{
name = top;
position = "{378, 904}";
}
);
layerId = "3717EFD3-6B64-4297-9C46-7E4C78651CC4";
shapes = (
{
closed = 1;
nodes = (
(556,752,o),
(596,792,o),
(594,844,c),
(596,898,o),
(556,938,o),
(504,938,cs),
(450,938,o),
(410,898,o),
(410,844,cs),
(410,792,o),
(450,752,o),
(504,752,cs)
);
},
{
closed = 1;
nodes = (
(308,752,o),
(348,792,o),
(348,844,cs),
(348,898,o),
(308,938,o),
(256,938,cs),
(204,938,o),
(164,898,o),
(164,844,cs),
(164,792,o),
(204,752,o),
(256,752,cs)
);
},
{
alignment = -1;
ref = A;
}
);
width = 756;
},
{
anchors = (
{
name = bottom;
position = "{360, 0}";
},
{
name = ogonek;
position = "{628, 0}";
},
{
name = top;
position = "{360, 863}";
},
{
name = _top;
position = "{360, 720}";
}
);
layerId = "50A05132-A89A-4BC5-B81A-F4657F37FF17";
shapes = (
{
closed = 1;
nodes = (
(510,767,o),
(538,796,o),
(537,833,c),
(538,872,o),
(510,901,o),
(472,901,cs),
(433,901,o),
(404,872,o),
(404,833,cs),
(404,796,o),
(433,767,o),
(472,767,cs)
);
},
{
closed = 1;
nodes = (
(289,767,o),
(318,796,o),
(318,833,cs),
(318,872,o),
(289,901,o),
(251,901,cs),
(214,901,o),
(185,872,o),
(185,833,cs),
(185,796,o),
(214,767,o),
(251,767,cs)
);
},
{
alignment = -1;
ref = A;
}
);
width = 718;
},
{
anchors = (
{
name = _top;
position = "{342, 720}";
},
{
name = top;
position = "{342, 822}";
}
);
layerId = "10DD257C-652B-4320-8EE1-77E209923FFD";
shapes = (
{
closed = 1;
nodes = (
(464,782,o),
(480,800,o),
(480,822,cs),
(480,846,o),
(464,864,o),
(440,864,cs),
(416,864,o),
(398,846,o),
(398,822,cs),
(398,800,o),
(416,782,o),
(440,782,cs)
);
},
{
closed = 1;
nodes = (
(270,782,o),
(288,800,o),
(288,822,cs),
(288,846,o),
(270,864,o),
(246,864,cs),
(224,864,o),
(206,846,o),
(206,822,cs),
(206,800,o),
(224,782,o),
(246,782,cs)
);
},
{
alignment = -1;
ref = A;
}
);
width = 680;
}
);
leftKerningGroup = LAT_A_UC;
rightKerningGroup = LAT_A_UC;
unicode = 196;
}
{
glyphname = Aring;
layers = (
{
anchors = (
{
name = _top;
position = "{378, 720}";
},
{
name = top;
position = "{378, 1030}";
}
);
layerId = "3717EFD3-6B64-4297-9C46-7E4C78651CC4";
shapes = (
{
closed = 1;
nodes = (
(460,752,o),
(522,812,o),
(522,890,cs),
(522,970,o),
(460,1030,o),
(378,1030,cs),
(296,1030,o),
(234,970,o),
(234,890,cs),
(234,812,o),
(296,752,o),
(378,752,cs)
);
},
{
closed = 1;
nodes = (
(350,844,o),
(330,864,o),
(330,890,c),
(332,918,o),
(350,938,o),
(378,938,cs),
(406,938,o),
(426,918,o),
(426,890,c),
(424,864,o),
(406,844,o),
(378,842,c)
);
},
{
alignment = -1;
ref = A;
}
);
width = 756;
},
{
anchors = (
{
name = bottom;
position = "{360, 0}";
},
{
name = ogonek;
position = "{628, 0}";
},
{
name = top;
position = "{360, 979}";
},
{
name = _top;
position = "{360, 720}";
}
);
layerId = "50A05132-A89A-4BC5-B81A-F4657F37FF17";
shapes = (
{
closed = 1;
nodes = (
(428,752,o),
(479,802,o),
(479,867,cs),
(479,934,o),
(428,984,o),
(360,984,cs),
(293,984,o),
(242,934,o),
(242,867,cs),
(242,802,o),
(293,752,o),
(360,752,cs)
);
},
{
closed = 1;
nodes = (
(328,813,o),
(304,837,o),
(304,867,c),
(305,900,o),
(328,924,o),
(360,923,c),
(393,924,o),
(417,900,o),
(416,867,c),
(416,837,o),
(393,813,o),
(360,812,c)
);
},
{
alignment = -1;
ref = A;
}
);
width = 718;
},
{
anchors = (
{
name = _top;
position = "{342, 720}";
},
{
name = top;
position = "{342, 928}";
}
);
layerId = "10DD257C-652B-4320-8EE1-77E209923FFD";
shapes = (
{
closed = 1;
nodes = (
(396,752,o),
(436,792,o),
(436,844,cs),
(436,898,o),
(396,938,o),
(342,938,cs),
(290,938,o),
(250,898,o),
(250,844,cs),
(250,792,o),
(290,752,o),
(342,752,cs)
);
},
{
closed = 1;
nodes = (
(306,782,o),
(278,810,o),
(278,844,cs),
(278,882,o),
(306,910,o),
(342,908,c),
(380,910,o),
(408,882,o),
(406,844,c),
(408,810,o),
(380,782,o),
(342,782,cs)
);
},
{
alignment = -1;
ref = A;
}
);
width = 680;
}
);
leftKerningGroup = LAT_A_UC;
rightKerningGroup = LAT_A_UC;
unicode = 197;
}
{
glyphname = AE;
layers = (
{
anchors = (
{
name = bottom;
position = "{566, 0}";
},
{
name = top;
position = "{566, 720}";
}
);
layerId = "3717EFD3-6B64-4297-9C46-7E4C78651CC4";
shapes = (
{
closed = 1;
nodes = (
(4,0,l),
(196,0,l),
(336,314,l),
(436,564,l),
(448,564,l),
(440,720,l),
(322,720,l)
);
},
{
closed = 1;
nodes = (
(212,138,l),
(602,138,l),
(590,274,l),
(212,274,l)
);
},
{
closed = 1;
nodes = (
(600,560,l),
(868,560,l),
(868,720,l),
(434,720,l),
(442,466,l),
(480,0,l),
(868,0,l),
(868,160,l),
(636,160,l)
);
},
{
closed = 1;
nodes = (
(826,286,l),
(826,438,l),
(598,438,l),
(608,286,l)
);
}
);
width = 920;
},
{
anchors = (
{
name = bottom;
position = "{553, 0}";
},
{
name = top;
position = "{562, 720}";
}
);
layerId = "50A05132-A89A-4BC5-B81A-F4657F37FF17";
shapes = (
{
closed = 1;
nodes = (
(6,0,l),
(121,0,l),
(312,371,l),
(430,615,l),
(447,615,l),
(441,720,l),
(370,720,l)
);
},
{
closed = 1;
nodes = (
(189,185,l),
(539,185,l),
(531,268,l),
(189,268,l)
);
},
{
closed = 1;
nodes = (
(526,625,l),
(851,625,l),
(851,720,l),
(427,720,l),
(437,524,l),
(482,0,l),
(851,0,l),
(851,95,l),
(574,95,l)
);
},
{
closed = 1;
nodes = (
(806,320,l),
(806,411,l),
(535,411,l),
(542,320,l)
);
}
);
width = 911;
},
{
anchors = (
{
name = bottom;
position = "{540, 0}";
},
{
name = top;
position = "{558, 720}";
}
);
layerId = "10DD257C-652B-4320-8EE1-77E209923FFD";
shapes = (
{
closed = 1;
nodes = (
(8,0,l),
(46,0,l),
(288,428,l),
(424,666,l),
(446,666,l),
(442,720,l),
(418,720,l)
);
},
{
closed = 1;
nodes = (
(166,232,l),
(476,232,l),
(472,262,l),
(166,262,l)
);
},
{
closed = 1;
nodes = (
(452,690,l),
(834,690,l),
(834,720,l),
(420,720,l),
(432,582,l),
(484,0,l),
(834,0,l),
(834,30,l),
(512,30,l)
);
},
{
closed = 1;
nodes = (
(786,354,l),
(786,384,l),
(472,384,l),
(476,354,l)
);
}
);
width = 902;
}
);
leftKerningGroup = LAT_AE_UC;
rightKerningGroup = LAT_E_UC;
unicode = 198;
}
{
glyphname = Ccedilla;
layers = (
{
layerId = "3717EFD3-6B64-4297-9C46-7E4C78651CC4";
shapes = (
{
closed = 1;
nodes = (
(316,-256,l),
(456,-258,o),
(516,-212,o),
(516,-138,cs),
(516,-74,o),
(466,-44,o),
(412,-44,c),
(418,-80,l),
(448,0,l),
(376,0,l),
(342,-100,l),
(390,-104,o),
(416,-118,o),
(416,-136,cs),
(416,-158,o),
(388,-176,o),
(316,-174,c)
);
},
{
alignment = -1;
ref = C;
}
);
width = 672;
},
{
anchors = (
{
name = base;
position = "{420, 0}";
},
{
name = bottom;
position = "{407, 0}";
},
{
name = cedilla;
position = "{413, 0}";
},
{
name = top;
position = "{405, 720}";
},
{
name = _cedilla;
position = "{413, 0}";
}
);
layerId = "50A05132-A89A-4BC5-B81A-F4657F37FF17";
shapes = (
{
closed = 1;
nodes = (
(328,-233,l),
(436,-234,o),
(496,-202,o),
(496,-134,cs),
(496,-81,o),
(454,-52,o),
(403,-51,c),
(410,-79,l),
(438,0,l),
(386,0,l),
(356,-91,l),
(403,-93,o),
(432,-110,o),
(432,-133,cs),
(432,-164,o),
(396,-179,o),
(328,-177,c)
);
},
{
alignment = -1;
ref = C;
}
);
width = 673;
},
{
layerId = "10DD257C-652B-4320-8EE1-77E209923FFD";
shapes = (
{
closed = 1;
nodes = (
(340,-210,l),
(416,-210,o),
(476,-192,o),
(476,-130,cs),
(476,-88,o),
(442,-60,o),
(394,-58,c),
(402,-78,l),
(428,0,l),
(396,0,l),
(370,-82,l),
(416,-82,o),
(448,-102,o),
(448,-130,cs),
(448,-170,o),
(404,-182,o),
(340,-180,c)
);
},
{
alignment = -1;
ref = C;
}
);
width = 674;
}
);
leftKerningGroup = LAT_A_UC;
rightKerningGroup = LAT_C_UC;
unicode = 199;
}
{
glyphname = Egrave;
layers = (
{
anchors = (
{
name = _top;
position = "{304, 720}";
},
{
name = top;
position = "{304, 822}";
}
);
layerId = "3717EFD3-6B64-4297-9C46-7E4C78651CC4";
shapes = (
{
closed = 1;
nodes = (
(304,754,l),
(374,824,l),
(196,976,l),
(116,870,l)
);
},
{
alignment = -1;
ref = E;
}
);
width = 550;
},
{
anchors = (
{
name = bottom;
position = "{306, 0}";
},
{
name = cedilla;
position = "{302, 0}";
},
{
name = ogonek;
position = "{399, 0}";
},
{
name = top;
position = "{300, 822}";
},
{
name = topleft;
position = "{20, 720}";
},
{
name = _top;
position = "{300, 720}";
}
);
layerId = "50A05132-A89A-4BC5-B81A-F4657F37FF17";
shapes = (
{
closed = 1;
nodes = (
(300,757,l),
(346,804,l),
(188,947,l),
(138,883,l)
);
},
{
alignment = -1;
ref = E;
}
);
width = 545;
},
{
anchors = (
{
name = _top;
position = "{296, 720}";
},
{
name = top;
position = "{296, 822}";
}
);
layerId = "10DD257C-652B-4320-8EE1-77E209923FFD";
shapes = (
{
closed = 1;
nodes = (
(296,760,l),
(318,784,l),
(180,918,l),
(160,896,l)
);
},
{
alignment = -1;
ref = E;
}
);
width = 540;
}
);
leftKerningGroup = LAT_H_UC;
rightKerningGroup = LAT_E_UC;
unicode = 200;
}
{
glyphname = Eacute;
layers = (
{
anchors = (
{
name = top;
position = "{-80, 822}";
}
);
layerId = "6324EBA6-AEA3-4E83-9504-1204FE3965A0";
shapes = (
{
closed = 1;
nodes = (
(304,754,l),
(234,824,l),
(412,976,l),
(492,870,l)
);
},
{
alignment = -1;
ref = E;
}
);
width = 550;
},
{
anchors = (
{
name = bottom;
position = "{306, 0}";
},
{
name = cedilla;
position = "{302, 0}";
},
{
name = ogonek;
position = "{399, 0}";
},
{
name = top;
position = "{300, 720}";
},
{
name = topleft;
position = "{20, 720}";
},
{
name = _top;
position = "{300, 720}";
}
);
layerId = "94997179-B2A0-4125-8E55-188F48EDA314";
shapes = (
{
closed = 1;
nodes = (
(300,757,l),
(254,804,l),
(412,947,l),
(462,883,l)
);
},
{
alignment = -1;
ref = E;
}
);
width = 545;
},
{
anchors = (
{
name = top;
position = "{-172, 822}";
}
);
layerId = "DBC57AB7-6BBF-4709-9065-B7AB4DBB4D97";
shapes = (
{
closed = 1;
nodes = (
(296,760,l),
(274,784,l),
(412,918,l),
(432,896,l)
);
},
{
alignment = -1;
ref = E;
}
);
width = 540;
}
);
leftKerningGroup = LAT_H_UC;
rightKerningGroup = LAT_E_UC;
unicode = 201;
}
{
glyphname = Ecircumflex;
layers = (
{
anchors = (
{
name = _top;
position = "{304, 720}";
},
{
name = top;
position = "{304, 924}";
}
);
layerId = "6324EBA6-AEA3-4E83-9504-1204FE3965A0";
shapes = (
{
closed = 1;
nodes = (
(302,846,l),
(304,846,l),
(428,756,l),
(502,834,l),
(320,958,l),
(288,958,l),
(106,834,l),
(182,756,l)
);
},
{
alignment = -1;
ref = E;
}
);
width = 550;
},
{
anchors = (
{
name = bottom;
position = "{306, 0}";
},
{
name = cedilla;
position = "{302, 0}";
},
{
name = ogonek;
position = "{399, 0}";
},
{
name = top;
position = "{301, 898}";
},
{
name = topleft;
position = "{20, 720}";
},
{
name = _top;
position = "{300, 720}";
}
);
layerId = "94997179-B2A0-4125-8E55-188F48EDA314";
shapes = (
{
closed = 1;
nodes = (
(299,851,l),
(303,851,l),
(424,758,l),
(471,809,l),
(314,923,l),
(289,923,l),
(131,809,l),
(179,758,l)
);
},
{
alignment = -1;
ref = E;
}
);
width = 545;
},
{
anchors = (
{
name = _top;
position = "{296, 720}";
},
{
name = top;
position = "{298, 872}";
}
);
layerId = "DBC57AB7-6BBF-4709-9065-B7AB4DBB4D97";
shapes = (
{
closed = 1;
nodes = (
(296,856,l),
(302,856,l),
(420,760,l),
(440,784,l),
(308,888,l),
(290,888,l),
(156,784,l),
(176,760,l)
);
},
{
alignment = -1;
ref = E;
}
);
width = 540;
}
);
leftKerningGroup = LAT_H_UC;
rightKerningGroup = LAT_E_UC;
unicode = 202;
}
{
glyphname = Edieresis;
layers = (
{
anchors = (
{
name = _top;
position = "{304, 720}";
},
{
name = top;
position = "{304, 904}";
}
);
layerId = "3717EFD3-6B64-4297-9C46-7E4C78651CC4";
shapes = (
{
closed = 1;
nodes = (
(482,752,o),
(522,792,o),
(520,844,c),
(522,898,o),
(482,938,o),
(430,938,cs),
(376,938,o),
(336,898,o),
(336,844,cs),
(336,792,o),
(376,752,o),
(430,752,cs)
);
},
{
closed = 1;
nodes = (
(234,752,o),
(274,792,o),
(274,844,cs),
(274,898,o),
(234,938,o),
(182,938,cs),
(130,938,o),
(90,898,o),
(90,844,cs),
(90,792,o),
(130,752,o),
(182,752,cs)
);
},
{
alignment = -1;
ref = E;
}
);
width = 550;
},
{
anchors = (
{
name = bottom;
position = "{306, 0}";
},
{
name = cedilla;
position = "{302, 0}";
},
{
name = ogonek;
position = "{399, 0}";
},
{
name = top;
position = "{300, 863}";
},
{
name = topleft;
position = "{20, 720}";
},
{
name = _top;
position = "{300, 720}";
}
);
layerId = "50A05132-A89A-4BC5-B81A-F4657F37FF17";
shapes = (
{
closed = 1;
nodes = (
(450,767,o),
(478,796,o),
(477,833,c),
(478,872,o),
(450,901,o),
(412,901,cs),
(373,901,o),
(344,872,o),
(344,833,cs),
(344,796,o),
(373,767,o),
(412,767,cs)
);
},
{
closed = 1;
nodes = (
(229,767,o),
(258,796,o),
(258,833,cs),
(258,872,o),
(229,901,o),
(191,901,cs),
(154,901,o),
(125,872,o),
(125,833,cs),
(125,796,o),
(154,767,o),
(191,767,cs)
);
},
{
alignment = -1;
ref = E;
}
);
width = 545;
},
{
anchors = (
{
name = _top;
position = "{296, 720}";
},
{
name = top;
position = "{296, 822}";
}
);
layerId = "10DD257C-652B-4320-8EE1-77E209923FFD";
shapes = (
{
closed = 1;
nodes = (
(418,782,o),
(434,800,o),
(434,822,cs),
(434,846,o),
(418,864,o),
(394,864,cs),
(370,864,o),
(352,846,o),
(352,822,cs),
(352,800,o),
(370,782,o),
(394,782,cs)
);
},
{
closed = 1;
nodes = (
(224,782,o),
(242,800,o),
(242,822,cs),
(242,846,o),
(224,864,o),
(200,864,cs),
(178,864,o),
(160,846,o),
(160,822,cs),
(160,800,o),
(178,782,o),
(200,782,cs)
);
},
{
alignment = -1;
ref = E;
}
);
width = 540;
}
);
leftKerningGroup = LAT_H_UC;
rightKerningGroup = LAT_E_UC;
unicode = 203;
}
{
glyphname = Igrave;
layers = (
{
anchors = (
{
name = _top;
position = "{172, 720}";
},
{
name = top;
position = "{172, 822}";
}
);
layerId = "577C2F50-0FC2-4837-984D-4FA1DCF6681B";
shapes = (
{
closed = 1;
nodes = (
(172,754,l),
(242,824,l),
(64,976,l),
(-16,870,l)
);
},
{
alignment = -1;
ref = I;
}
);
width = 346;
},
{
anchors = (
{
name = bottom;
position = "{146, 0}";
},
{
name = ogonek;
position = "{111, 0}";
},
{
name = top;
position = "{146, 822}";
},
{
name = _top;
position = "{146, 720}";
}
);
layerId = "E6E1701F-FDD6-4B99-AB09-C7A03B8D4814";
shapes = (
{
closed = 1;
nodes = (
(146,757,l),
(192,804,l),
(34,947,l),
(-16,883,l)
);
},
{
alignment = -1;
ref = I;
}
);
width = 293;
},
{
anchors = (
{
name = _top;
position = "{120, 720}";
},
{
name = top;
position = "{120, 822}";
}
);
layerId = "DBF002CB-ACA5-4984-BB80-D7F3ACD5E203";
shapes = (
{
closed = 1;
nodes = (
(120,760,l),
(142,784,l),
(4,918,l),
(-16,896,l)
);
},
{
alignment = -1;
ref = I;
}
);
width = 240;
}
);
leftKerningGroup = LAT_I_UC_BAR;
rightKerningGroup = LAT_I_UC;
unicode = 204;
}
{
glyphname = Iacute;
layers = (
{
anchors = (
{
name = top;
position = "{52, 822}";
}
);
layerId = "6324EBA6-AEA3-4E83-9504-1204FE3965A0";
shapes = (
{
closed = 1;
nodes = (
(172,754,l),
(102,824,l),
(280,976,l),
(360,870,l)
);
},
{
alignment = -1;
ref = I;
}
);
width = 346;
},
{
anchors = (
{
name = bottom;
position = "{146, 0}";
},
{
name = ogonek;
position = "{111, 0}";
},
{
name = top;
position = "{146, 720}";
},
{
name = _top;
position = "{146, 720}";
}
);
layerId = "94997179-B2A0-4125-8E55-188F48EDA314";
shapes = (
{
closed = 1;
nodes = (
(146,757,l),
(100,804,l),
(258,947,l),
(308,883,l)
);
},
{
alignment = -1;
ref = I;
}
);
width = 293;
},
{
anchors = (
{
name = top;
position = "{4, 822}";
}
);
layerId = "DBC57AB7-6BBF-4709-9065-B7AB4DBB4D97";
shapes = (
{
closed = 1;
nodes = (
(120,760,l),
(98,784,l),
(236,918,l),
(256,896,l)
);
},
{
alignment = -1;
ref = I;
}
);
width = 240;
}
);
leftKerningGroup = LAT_I_UC;
rightKerningGroup = LAT_I_UC_BAR;
unicode = 205;
}
